<svg viewBox="0 0 1456 400" xmlns="http://www.w3.org/2000/svg"><g><g><g><g><g><line x1="30.78125" y1="352.84190584158955" x2="25.78125" y2="352.84190584158955" style="visibility: inherit;" fill="rgb(0, 0, 0)" stroke="rgb(204, 204, 204)" stroke-width="1px"></line><line x1="30.78125" y1="307.1934006966531" x2="25.78125" y2="307.1934006966531" style="visibility: inherit;" fill="rgb(0, 0, 0)" stroke="rgb(204, 204, 204)" stroke-width="1px"></line><line x1="30.78125" y1="261.54489555171665" x2="25.78125" y2="261.54489555171665" style="visibility: inherit;" fill="rgb(0, 0, 0)" stroke="rgb(204, 204, 204)" stroke-width="1px"></line><line x1="30.78125" y1="215.89639040678017" x2="25.78125" y2="215.89639040678017" style="visibility: inherit;" fill="rgb(0, 0, 0)" stroke="rgb(204, 204, 204)" stroke-width="1px"></line><line x1="30.78125" y1="170.24788526184375" x2="25.78125" y2="170.24788526184375" style="visibility: inherit;" fill="rgb(0, 0, 0)" stroke="rgb(204, 204, 204)" stroke-width="1px"></line><line x1="30.78125" y1="124.5993801169073" x2="25.78125" y2="124.5993801169073" style="visibility: inherit;" fill="rgb(0, 0, 0)" stroke="rgb(204, 204, 204)" stroke-width="1px"></line><line x1="30.78125" y1="78.95087497197089" x2="25.78125" y2="78.95087497197089" style="visibility: inherit;" fill="rgb(0, 0, 0)" stroke="rgb(204, 204, 204)" stroke-width="1px"></line><line x1="30.78125" y1="33.30236982703443" x2="25.78125" y2="33.30236982703443" style="visibility: inherit;" fill="rgb(0, 0, 0)" stroke="rgb(204, 204, 204)" stroke-width="1px"></line></g><g transform="translate(20.78125, 0)"><text x="0" y="352.84190584158955" dx="0em" dy="0.3em" style="text-anchor: end; visibility: inherit; font-family: Roboto, sans-serif; font-size: 12px; font-weight: 200;" fill="rgb(33, 33, 33)" stroke="none" stroke-width="1px">14</text><text x="0" y="307.1934006966531" dx="0em" dy="0.3em" style="text-anchor: end; visibility: inherit; font-family: Roboto, sans-serif; font-size: 12px; font-weight: 200;" fill="rgb(33, 33, 33)" stroke="none" stroke-width="1px">15</text><text x="0" y="261.54489555171665" dx="0em" dy="0.3em" style="text-anchor: end; visibility: inherit; font-family: Roboto, sans-serif; font-size: 12px; font-weight: 200;" fill="rgb(33, 33, 33)" stroke="none" stroke-width="1px">16</text><text x="0" y="215.89639040678017" dx="0em" dy="0.3em" style="text-anchor: end; visibility: inherit; font-family: Roboto, sans-serif; font-size: 12px; font-weight: 200;" fill="rgb(33, 33, 33)" stroke="none" stroke-width="1px">17</text><text x="0" y="170.24788526184375" dx="0em" dy="0.3em" style="text-anchor: end; visibility: inherit; font-family: Roboto, sans-serif; font-size: 12px; font-weight: 200;" fill="rgb(33, 33, 33)" stroke="none" stroke-width="1px">18</text><text x="0" y="124.5993801169073" dx="0em" dy="0.3em" style="text-anchor: end; visibility: inherit; font-family: Roboto, sans-serif; font-size: 12px; font-weight: 200;" fill="rgb(33, 33, 33)" stroke="none" stroke-width="1px">19</text><text x="0" y="78.95087497197089" dx="0em" dy="0.3em" style="text-anchor: end; visibility: inherit; font-family: Roboto, sans-serif; font-size: 12px; font-weight: 200;" fill="rgb(33, 33, 33)" stroke="none" stroke-width="1px">20</text><text x="0" y="33.30236982703443" dx="0em" dy="0.3em" style="text-anchor: end; visibility: inherit; font-family: Roboto, sans-serif; font-size: 12px; font-weight: 200;" fill="rgb(33, 33, 33)" stroke="none" stroke-width="1px">21</text></g><line x1="30.78125" y1="0" x2="30.78125" y2="377" fill="rgb(0, 0, 0)" stroke="rgb(204, 204, 204)" stroke-width="1px"></line></g></g><g transform="translate(30, 0)" clip-path="url(#clip_0)"><clipPath id="clip_0"><rect width="1425" height="377"></rect></clipPath><g><g><g><line x1="89.43800205995085" y1="0" x2="89.43800205995085" y2="377" fill="rgb(0, 0, 0)" stroke="rgb(66, 66, 66)" stroke-width="1px" opacity="0.25"></line><line x1="186.50894850860996" y1="0" x2="186.50894850860996" y2="377" fill="rgb(0, 0, 0)" stroke="rgb(66, 66, 66)" stroke-width="1px" opacity="0.25"></line><line x1="283.57989495726906" y1="0" x2="283.57989495726906" y2="377" fill="rgb(0, 0, 0)" stroke="rgb(66, 66, 66)" stroke-width="1px" opacity="0.25"></line><line x1="380.6508414059282" y1="0" x2="380.6508414059282" y2="377" fill="rgb(0, 0, 0)" stroke="rgb(66, 66, 66)" stroke-width="1px" opacity="0.25"></line><line x1="477.72178785458726" y1="0" x2="477.72178785458726" y2="377" fill="rgb(0, 0, 0)" stroke="rgb(66, 66, 66)" stroke-width="1px" opacity="0.25"></line><line x1="574.7927343032464" y1="0" x2="574.7927343032464" y2="377" fill="rgb(0, 0, 0)" stroke="rgb(66, 66, 66)" stroke-width="1px" opacity="0.25"></line><line x1="671.8636807519055" y1="0" x2="671.8636807519055" y2="377" fill="rgb(0, 0, 0)" stroke="rgb(66, 66, 66)" stroke-width="1px" opacity="0.25"></line><line x1="768.9346272005647" y1="0" x2="768.9346272005647" y2="377" fill="rgb(0, 0, 0)" stroke="rgb(66, 66, 66)" stroke-width="1px" opacity="0.25"></line><line x1="866.0055736492238" y1="0" x2="866.0055736492238" y2="377" fill="rgb(0, 0, 0)" stroke="rgb(66, 66, 66)" stroke-width="1px" opacity="0.25"></line><line x1="963.076520097883" y1="0" x2="963.076520097883" y2="377" fill="rgb(0, 0, 0)" stroke="rgb(66, 66, 66)" stroke-width="1px" opacity="0.25"></line><line x1="1060.147466546542" y1="0" x2="1060.147466546542" y2="377" fill="rgb(0, 0, 0)" stroke="rgb(66, 66, 66)" stroke-width="1px" opacity="0.25"></line><line x1="1157.2184129952009" y1="0" x2="1157.2184129952009" y2="377" fill="rgb(0, 0, 0)" stroke="rgb(66, 66, 66)" stroke-width="1px" opacity="0.25"></line><line x1="1254.2893594438601" y1="0" x2="1254.2893594438601" y2="377" fill="rgb(0, 0, 0)" stroke="rgb(66, 66, 66)" stroke-width="1px" opacity="0.25"></line><line x1="1351.3603058925191" y1="0" x2="1351.3603058925191" y2="377" fill="rgb(0, 0, 0)" stroke="rgb(66, 66, 66)" stroke-width="1px" opacity="0.25"></line></g><g><line x1="0" y1="352.84190584158955" x2="1425.21875" y2="352.84190584158955" fill="rgb(0, 0, 0)" stroke="rgb(66, 66, 66)" stroke-width="1px" opacity="0.25"></line><line x1="0" y1="307.1934006966531" x2="1425.21875" y2="307.1934006966531" fill="rgb(0, 0, 0)" stroke="rgb(66, 66, 66)" stroke-width="1px" opacity="0.25"></line><line x1="0" y1="261.54489555171665" x2="1425.21875" y2="261.54489555171665" fill="rgb(0, 0, 0)" stroke="rgb(66, 66, 66)" stroke-width="1px" opacity="0.25"></line><line x1="0" y1="215.89639040678017" x2="1425.21875" y2="215.89639040678017" fill="rgb(0, 0, 0)" stroke="rgb(66, 66, 66)" stroke-width="1px" opacity="0.25"></line><line x1="0" y1="170.24788526184375" x2="1425.21875" y2="170.24788526184375" fill="rgb(0, 0, 0)" stroke="rgb(66, 66, 66)" stroke-width="1px" opacity="0.25"></line><line x1="0" y1="124.5993801169073" x2="1425.21875" y2="124.5993801169073" fill="rgb(0, 0, 0)" stroke="rgb(66, 66, 66)" stroke-width="1px" opacity="0.25"></line><line x1="0" y1="78.95087497197089" x2="1425.21875" y2="78.95087497197089" fill="rgb(0, 0, 0)" stroke="rgb(66, 66, 66)" stroke-width="1px" opacity="0.25"></line><line x1="0" y1="33.30236982703443" x2="1425.21875" y2="33.30236982703443" fill="rgb(0, 0, 0)" stroke="rgb(66, 66, 66)" stroke-width="1px" opacity="0.25"></line></g></g></g><g><g><line x1="0" y1="991.9209778706996" x2="1425.21875" y2="991.9209778706996" fill="rgb(0, 0, 0)" stroke="rgb(153, 153, 153)" stroke-width="1.5px"></line></g></g><g><g><line x1="-7.632944388708252" y1="0" x2="-7.632944388708252" y2="377" fill="rgb(0, 0, 0)" stroke="rgb(153, 153, 153)" stroke-width="1.5px"></line></g></g><g><g><g><g><g><path stroke="rgb(255, 112, 67)" stroke-width="2px" d="M-0.032289281778244916,147.36057941901763L1.7877909641341132,166.5465067281279L1.8848619105827722,176.4400672191792L4.520338106663867,206.08190146410578L4.879500608523905,224.1183925247793L5.442512097926128,250.99915711275733L5.515315307762623,165.17734546999444L5.5589972336645195,178.85895603430947L7.335395553674981,161.87884361659263L8.102256030619387,135.53841742444044L8.218741166357779,153.968412302889L9.679658910410097,179.34399831381984L9.84467951937282,190.19956288247758L10.106771074784199,209.59414012029043L11.89773003676196,224.74788696465902L12.315135106491194,154.92704107589307L12.37337767436039,156.80432560538156L12.664590513706367,127.17880928756036L12.887853690538282,104.55253098364051L13.37806197010401,120.6032872155582L14.523499138198188,140.8107097229914L15.824249820610222,131.81063998870331L17.076465029797923,141.1650939731359L17.299728206629837,118.63407027434357L17.547259120073917,134.68371950289296L17.610355235265548,138.8758977443135L17.911275169256392,155.88166487580952L18.07144223089668,165.75469265327547L18.396629901499686,171.04125214677617L18.843156255163517,167.97902834376475L19.876961834841737,180.94732983400948L20.677797143043172,174.87789244867827L20.842817752005892,176.68940984777385L21.40097569408568,172.81528383322035L21.478632451244607,167.25783644358012L21.750431101300855,172.71945073342522L22.162982623707656,165.60049171905933L22.585241240759323,165.68885614333558L22.847332796170704,144.4592231934107L23.11427789890452,154.14811714234207L23.28415205518967,143.73316284338188L24.25486151967626,156.34888903855253L25.03628263858797,152.60953854755925L25.133353585036623,120.00608841105867L25.61870831727992,116.99959734308078L25.953603082527795,117.12595235985995L26.30305848974297,128.45751145886226L26.608831971056244,136.4909678820611L27.574687888220403,142.10214255444177L28.46288704822563,137.54199272906595L28.598786373253752,144.3829672776884L29.472424891291688,153.10480910940302L29.889829961020922,162.94240493869944L31.13233807556376,136.7298568029648L31.792420511414637,132.55869568537156L32.61267000890581,123.24914245393437L33.86003167077108,130.39753765417314L33.88915295470568,136.07331014459055L34.19977998334139,139.7033044073551L34.39877542356113,147.60188761533283L34.568649579846294,155.29521528033592L34.71425599951928,162.18311618358243L34.8501553245474,161.08790610091938L34.96664046028579,168.32838557249679L34.976347554930655,173.63075614027304L36.79157425352059,182.28101270635952L37.27692898576388,189.5770197567891L37.46621733133877,176.87847795349202L37.64094503494635,162.79913794607393L37.79625854926421,169.53367757842113L38.7087254458816,159.68565387704416L39.50956075408304,158.1860796045284L39.708556194302794,159.39928011890834L40.11625416938716,164.82645268283943L40.26186058906015,164.88875091567596L40.392906366765835,170.65985576471792L40.50453795518179,172.71032634158567L40.65985146949965,176.24282325897852L40.776336605238036,179.70089759705968L40.80545788917264,186.07761728333818L41.213155864257004,192.81631938185726L41.3442016419627,188.66455334137657L41.49466160895812,183.14452864580423L41.834409921528426,183.9679939853661L43.067210941426396,184.300191652076L43.421519895964,179.92064063912315L44.02821331126812,171.43054710956636L44.037920405912985,162.6419392367263L44.338840339903825,167.29575075236912L45.87256129379264,172.31533305702013L46.33364828942377,154.75902389992126L46.819003021667065,150.89899474671117L49.73598496244928,150.2026225595883L49.96895523392606,155.65122798108106L50.74552280551533,162.30442844802386L50.98334662431454,167.54683314413296L52.14819798169845,173.97741957503447L52.332632779950906,173.09585396651124L52.54618886213796,179.3697529892069L52.92476555328773,180.53627772405028L54.05078853209217,175.89758470128174L55.006937354611466,181.58589083910454L55.196225700186346,183.51831018151242L56.94350273626222,182.59402099450847L57.35120071134658,186.8896603312736L58.0015760525526,185.15575274321753L58.13747537758072,185.8154698622171L58.49178433211832,177.46589628313905L58.584001731244555,182.84077089923284L58.60826946785672,178.10950196694154L59.36056930283383,177.27848684487728L59.58868602698817,177.21999742698154L60.18081880032499,176.78541354852513L60.54483484950747,178.97752421217874L61.23403856929294,178.53484863319127L61.32140242109674,175.5160608637315L61.60776171312029,179.50396331471327L62.073702256073844,172.15370674836848L63.4521096956448,175.39037515365737L63.9374644278881,157.76754565856353L64.451940444066,162.85429515693733L64.51503655925762,148.04488044379934L65.49059957106665,151.38025165173713L65.51486730767881,154.6678984831909L65.7769588630902,158.60273050309522L66.0730252497586,146.6271345178054L66.97578505173114,151.2559008392673L68.1357828617926,152.75831599168546L68.27168218682073,153.90193682986356L71.1983712222478,155.02986435286724L71.93125686793518,156.47618111386623L74.07652478445054,159.5612627193658L74.2318382987684,159.9680288983244L74.31434860324977,161.0244937769421L74.43083373898816,160.4391619968503L74.62497563188548,164.39154695908204L75.46463931866637,167.64894113121053L75.4986141499234,153.60118804084289L77.61476078250418,157.53034850691594L78.43015673267291,157.61835452224474L79.76002869901953,156.44911338706072L80.32304018842176,157.79226659614181L80.36186856700122,160.04963911180678L80.38128275629096,163.51310906780583L80.40069694558069,166.9334632893166L81.7014476279927,168.78609757901063L82.07031722449763,169.4025248202191L83.41960338013399,168.80480412177542L83.44872466406858,168.81428707822886L83.59433108374157,172.40336623248433L84.12336774188677,175.0593626510486L85.11834494298552,179.45393555188747L85.13775913227525,183.20949687486274L85.60369967522882,182.25105393536995L86.13758988069644,179.562098244457L86.41909562539755,182.10187936388232L87.02093549337924,182.8889393105126L87.23934512288872,183.09552477186426L87.58394698278146,183.2997433311551L88.67114158300645,186.3289408802872L89.43800205995085,190.44890127485374L92.24820595963952,193.9627989874956L92.44234785253686,196.88053773783037L92.57824717756498,199.4887861146412L93.13155157232232,202.3437249665884L93.52468890543939,203.24775605003433L94.1410894153884,206.87028979373687L94.47113063331382,197.96480860654418L94.54878739047274,199.96200244674242L94.92251053430009,193.87272746098327L95.59230006479584,196.944551570561L95.80585614698288,199.71737282168024L97.57740091967092,195.57209603565397L99.45572373345247,194.1074038902338L99.93622491837333,196.85695293473188L100.6399892801261,199.31658591530217L102.55714047248712,195.2516321519897L104.3480994344649,194.07492108174273L104.51797359075003,194.45557914966741L105.97403778747993,186.6290188788611L105.97889133480237,188.57885573339055L106.43027123578862,192.28700422109733L106.86223694748516,195.70490781071516L110.69168578488477,198.08166682286435L111.13335859122616,199.18178727573553L111.15277278051589,197.27743231560234L112.2739422119979,198.12378992118838L112.34189187451197,201.43437560783747L112.53603376740928,202.74320577654706L112.8757820799796,201.83346023003452L112.94858528981608,203.37278963308458L113.40967228544721,206.59805192769628L113.66691029353616,209.79233970015213L113.967830227527,212.23343132022035L114.25418951955055,215.37088642466557L114.91912550272387,210.59671667903146L115.86556723059829,211.5756866666886L116.86054443169704,211.5981041584321L117.12263598710842,212.09202102716253L117.18087855497762,211.8767200007111L118.21953768197828,212.1312231386142L119.84062248767088,213.31516381668007L120.03476438056819,215.41622367334105L120.39392688242825,217.7291573069928L121.6995311121627,220.02107535974633L121.92764783631706,221.37550364359615L122.5246341569763,223.85909353573444L123.48563652681803,222.22789868235787L123.5584397366545,221.7435669789259L123.922455785837,216.9777627699149L124.91257943961331,220.56734638337466L125.62119734868854,223.90150391487876L125.94638501929154,222.7477402194497L126.456007488147,219.82748204887895L127.26169634367088,220.25086445232827L127.46069178389062,214.7206221320499L127.75675817055904,216.92156245167197L128.30035547067152,218.44751989790208L128.4896438162464,221.04977968321606L128.76629601362507,220.59117468199517L132.12495076074867,221.001412944052L132.98888218414174,219.6847178504371L133.04712475201094,221.1693534113124L134.38185026568001,221.78618319930743L134.6293811791241,223.88928091923307L135.50301969716205,224.7012323982923L135.8670357463445,226.56400954729565L136.1339808490783,229.25441305545252L136.21163760623725,230.24288132943522L136.41063304645698,228.92174540623046L136.9299626099573,230.94708396342287L137.15807933411165,230.2553648079651L137.24058963859304,233.50235548675028L137.3667818689763,231.56630015976575L138.24527393433664,227.79576425574263L138.30351650220584,222.21178021768543L138.36661261739746,221.7752903674391L139.43439302833272,224.19011573620423L139.594560089973,226.9913357646605L141.3903725992732,227.548302219288L142.30769304321302,219.84625273164937L142.43873882091873,221.63473030890145L142.63288071381604,224.20920017337983L142.6717090923955,226.1658679897155L142.86099743797038,228.70334055777428L144.01614170070943,228.053908372403L144.65680994727057,230.1717231223961L144.8218305562333,231.48679214888497L145.7779793787526,230.04782250306L146.03521738684154,232.33158555604183L147.2097758388703,235.37702897810001L147.28743259602925,235.87646556355133L147.4573067523144,236.1787077278455L147.56893834073034,237.82853981009856L147.7533731389828,237.54397398970755L150.14617196894227,237.6447126284452L151.62165035496187,236.78976368130546L151.6847464701535,236.70262523320233L151.68960001747593,238.5139356931092L152.0633231613033,237.85264911418201L152.59721336677092,239.45925681505383L153.8931105018605,240.86623048692056L154.51921810645433,243.20014176209156L155.9413074719272,243.08838867941387L156.43636929881535,242.79117489403805L156.73243568548378,242.31039353488336L159.64456407894355,240.722304117979L162.0082416249684,236.37711055085043L162.0858983821273,232.06261372435998L162.92556206890822,234.19894797979492L163.29928521273555,225.52981062529037L164.07585278432484,221.1151380861142L164.56120751656815,222.91232378319611L164.92037001842817,225.4220545732756L165.0562693434563,227.55297695674133L165.66296275876041,230.02957404368215L166.6773541491489,230.69257802829313L166.84722830543404,232.9632183528485L169.5312399747395,233.43226713092366L170.46797460796904,231.58295415455942L171.40956278852104,233.12010560690246L171.42412343048832,234.82392811199915L171.48236599835752,237.39904366772473L171.9337458993438,239.78081446507247L172.26864066459166,241.79554443391436L172.33659032710574,239.2455235691016L172.51617157803574,238.28346131482547L172.83650570131633,237.67590454346134L174.37022665520513,237.76666492366442L175.22445098395332,238.89537097676714L175.5884670331358,240.70710148192578L176.5009339297532,240.44141608478105L178.68017667752557,240.86408121022075L178.68503022484805,242.99581596899867L178.7869547186191,238.45595068500046L179.17038495709133,237.69083117769716L180.713813005625,237.6097701486825L180.87883361458773,237.19058550624314L181.07782905480747,238.6315943493572L181.16519290661128,240.73704770643334L181.78159341656024,236.78260852928872L184.51414055909,238.21355080872038L185.1159804270717,232.2846526230723L186.65940847560537,234.22427813469602L187.04769226140002,236.31789595688883L187.3583192900357,237.90117180649224L187.65923922402655,237.82148566356847L187.72233533921818,239.0612973955429L188.1251797669801,240.78675015855862L188.5328777420645,242.82956222840158L189.13471761004615,244.2053912221304L189.50844075387351,244.92006438211905L190.36266508262173,238.46917722108387L190.4014934612012,238.5512402796394L191.08584363366424,240.25203949211283L191.72165833290293,240.65040176624092L193.18257607695526,241.36855626116954L193.66307726187614,242.56446155262364L193.96885074318942,244.875211396405L193.99311847980158,246.69240458173513L194.11445716286238,246.7442979882986L195.11428791128358,247.7504540018534L195.79378453642417,248.7506176983996L196.06558318648047,250.3780777675881L196.2791392686675,250.57462814337921L196.8421507580697,252.34533566262292L196.856711400037,252.062712268046L198.45838201643988,252.7223302946886L198.81754451829994,254.47276818918027L200.37067966147845,255.43296494925744L200.83662020443205,257.4769710374981L201.74423355372699,258.42233230801054L202.19561345471325,259.6719864462527L202.5110940306714,261.0689402035773L203.7633092398591,258.6042260308599L204.0399614372378,260.7670466774024L204.84565029276166,261.536741765721L205.34556566697225,259.7001109970298L207.1656459128846,260.164368549521L207.30154523791276,261.8446972479118L207.6218793611933,263.6674964239432L207.68982902370738,264.26696542255473L208.17518375595066,266.07328867842483L208.27710824972178,264.3980925295511L208.4615430479742,263.9369341862329L209.37886349191402,264.0792983753376L209.44195960710567,261.07310923162504L209.47108089104026,256.58809995724874L209.62154085803567,258.6932731335448L210.66505353235877,258.7025731906756L212.65015438723384,259.30597621049395L212.85400337477606,260.647085727384L213.55291418920638,261.3893555027198L216.96495795687673,263.3079027637295L218.0230312731671,264.47992349231345L218.5957498572142,265.64557104908033L219.95474310749546,267.0980195702281L220.0518140539441,268.542611296832L220.57114361744442,267.79065983359544L220.71189648979498,267.7707388448944L220.79440679427637,267.4603673392064L220.81382098356607,261.9330134454686L220.891477740725,261.6424883395467L221.03223061307554,262.2195182074941L221.26034733722992,261.20922698015505L221.35256473635613,258.3360129178813L221.9641116989827,259.7801483609972L222.17766778116973,258.21159127090044L223.13867015101147,255.508928783397L223.4541507269696,251.68051443572585L223.52210038948368,252.2799979001249L224.25983958249347,253.30202047989363L225.3373270880736,249.646229712674L226.25950107933585,250.95470271553373L226.54100682403697,252.39739658500986L227.2107963545327,251.29995707958494L227.81748976983684,252.1739420034225L228.42418318514098,253.04343359136126L228.72024957180935,250.97199931882272L228.82217406558044,251.00431981828416L229.43372102820703,252.84682149095983L230.64710785881525,251.483577822778L230.9965632660304,251.5141460271061L231.17129096963802,253.4822542231344L231.49647864024104,254.74978557972642L231.7197418170729,254.35676455087346L232.53999131456408,255.34141003865466L233.54952915763013,255.22277512497817L233.84559554429856,251.13122789990857L234.38919284441104,252.52986036088518L235.09781075348624,248.0532553378186L236.3160511314169,247.68490877433788L237.50031667809057,247.99804219636286L238.15069201929657,248.8522768183991L238.4321977639977,249.43150562803072L240.3590560510036,249.06197453697234L243.77109981867395,250.44750896560183L244.41662161255755,251.2878457535559L244.4457428964921,253.0644592658926L244.61561705277728,254.43016906200535L244.81946604031947,251.77460942636452L245.867832261965,252.73813628393881L246.03285287092774,253.96360953852687L246.46481858262425,255.3162128307417L246.52306115049342,255.20153636529759L246.6929353067786,253.3643481174656L247.3724319319192,254.97555376050738L247.41126031049868,253.14598359036015L247.86749375880737,255.1471039307385L247.9888324418682,256.87560209485315L249.44975018592052,256.101255083444L250.0079081280003,257.68948647008403L250.8427182674588,258.22375641199557L252.63367722943656,259.0166274517485L254.66246001021352,260.71799998993015L256.68638924366803,259.6797297393446L257.33676458487406,261.11325474760486L258.18128181897737,262.0216742806372L259.7004421308989,262.2790456582693L259.89943757111865,261.631346720567L260.03533689614676,262.14665766321326L261.0982637597596,263.6888115743277L261.73893200632074,264.7101453425924L262.1611906233724,264.70125682174387L262.36989315823706,262.1332724782747L262.80185886993354,262.89798539368564L263.53959806294336,263.27669805637265L264.0831953630559,261.2355642372268L264.22394823540645,259.584879892461L265.5829414856876,261.112114864221L266.5051154769499,261.87285942678255L268.019422241549,263.2619848349522L268.69406531936716,262.374234620823L268.82511109707286,263.1274762655034L269.3444406605732,262.62031630062944L271.023768034135,263.7466843541386L271.2130563797099,264.86799520727305L272.86811601665954,264.85889235868035L273.3825920328374,265.8484399616661L273.60585520966936,267.2074031635238L273.770875818632,264.45528453485974L274.70275690453917,265.44081271271034L275.80451214673144,264.31452582289734L275.8433405253109,264.4307723267353L276.0471895128531,264.0523308409354L276.86258546302184,265.6488884495363L277.0567273559192,265.51469539481417L277.5954711087092,267.3477326606081L278.07597229363006,266.4731822882925L279.0078533795372,267.19496057790127L281.08517163353855,268.0358867878295L281.41521285146393,265.9430009385382L283.5896020519139,264.8342870361711L284.9437417548727,265.4339306975613L285.67662740056005,266.75986179114653L288.2344468394823,268.08007117035714L289.3022272504175,268.30489325861475L289.50122269063723,268.52874913039244L290.31176509348353,267.30349250897456L290.37000766135276,268.2521443610048L292.03962794026967,269.7981646481253L292.8259026065038,270.1367161358519L293.141383182462,271.3130733332003L293.2433076762331,272.00564532156784L293.5442276102239,271.380741188609L293.6849804825745,272.30951923031245L294.9614634283743,272.28142924324874L295.1653124159165,272.1345304770486L297.2717519538524,273.41308716836767L297.9900769575725,273.9749995597126L299.34907020785374,274.41620143163203L300.90220535103225,275.2100679103075L301.16429690644367,276.1186054005867L301.4797774824018,273.9606815687176L302.53785079869215,273.5758649001637L303.44061060066474,274.4843119196071L305.42085790821733,275.7407196866643L305.90135909313824,276.6407689337696L306.0518190601336,277.53710804181026L307.3380091005784,277.6129186027478L307.50302970954107,278.15445876965674L309.42988799654694,278.8101091821619L309.87641435021084,280.39227609962546L310.01231367523894,280.9242475031951L310.5607645226739,281.80142818447314L311.1723114853004,281.86573881510026L311.35674628355287,283.0841656185892L311.5072062505483,283.72134845523914L311.9343184149224,284.3559546577775L312.01682871940375,285.21782192193655L312.3808447685862,283.89621195650574L312.49247635700215,283.7255532941329L312.6429363239976,282.1828871895489L313.7252773769002,281.7885909340156L313.8223483233488,282.9925391231054L313.89029798586284,284.53331383195564L314.12326825733965,285.954243973918L315.1764880263076,287.02891105469376L315.77832789428925,288.32605176702623L315.8705452934155,288.2596385982551L315.9287878612847,289.32382835219653L316.0064446184436,290.38381823938664L316.3073645524345,291.1015281537605L318.7098704770388,290.91612673947486L318.92342655922585,286.1242212946602L320.0397424433854,287.29808588402733L320.09798501125465,287.346918877491L321.6074382285313,288.5143752054402L321.7336304589145,289.3421249845869L321.918065257167,289.4973085503459L322.3840058001205,290.5430656067899L322.748021849303,291.91848061432154L323.3255939806725,290.95595470619213L324.53898081128074,290.21898159534794L324.6263446630846,291.1462463211652L325.26215936232325,290.9639229394383L325.4174728766411,290.7822997431256L326.42215717238474,286.1898381257232L327.58700852976864,287.1215710273484L328.4024044799374,287.38988249869203L328.89746630682555,287.7669931799064L329.33913911316694,287.265323485344L329.4993061748072,288.18924886179065L329.8342009400551,288.8909468631709L330.3729446928452,285.9860877508328L330.5428188491303,286.80015416256305L331.25629030552795,286.7399014001205L333.0666634567954,287.87618349499184L333.76557427122583,288.46516788261425L333.86749876499687,287.3166529668121L334.9741075545116,288.3385716970812L334.9983752911238,286.3282423727515L335.21193137331085,287.2416933077517L335.2750274885025,287.61242561019594L336.36707563604983,288.7357905501843L336.7359452325548,287.5960183400345L336.7699200638118,287.9644086773744L337.0368651665456,288.65327193286294L337.36690638447106,289.7681264989557L337.7454830756208,291.19983875424356L337.9735997997752,291.9851994690886L338.2162771658968,293.08778332651923L338.70163189814014,291.84197990735885L340.3421308931225,292.94195756766186L340.9148494771696,293.4002471547722L341.0167739709406,294.9182281630659L341.4535932299596,295.90069546274634L342.3223782006751,296.56201909808465L343.22999154997007,293.20370713443197L344.49676740112506,293.9751071696946L344.66664155741023,294.6382747173663L344.83651571369535,294.77253809787805L347.2827035642016,295.43213670112294L347.6709873499962,296.2994129064012L347.85542214824864,296.3244449793174L348.879520633282,297.50168811357366L349.42311793339456,298.15161500842635L350.0103971594089,298.79921577541216L350.7481363524187,299.23580316192704L350.9762530765731,299.7750487972884L351.1218594962461,300.52053823373194L351.15583432750304,297.52121004140264L351.2577588212742,297.43939060954256L351.6994316276156,298.18733611439137L351.70913872226043,299.2432933699341L352.26244311701777,296.15865928900104L352.46629210455995,296.39020967388313L353.01959649931734,295.89882098728145L353.87382082806556,295.6152211667894L354.41741812817804,296.2587291120044L355.2036927944122,295.7694848880184L355.6939010739779,294.66608802911907L356.41222607769794,295.71938184430996L356.8587524313618,295.4379523396907L356.92184854655346,296.1801164123326L357.096576250161,296.1026230057416L357.28101104841346,297.2495003156409L357.38293554218455,294.7246267747316L358.1789173030636,295.6682375681468L358.5332262576012,294.37267593516583L358.800171360335,293.79213764636853L359.13021257826045,294.5315884624236L359.3583293024148,294.45841541939245L359.7126382569524,290.8456979549872L361.26577340013097,289.6697025722802L362.29957897980916,287.8923798118094L362.3044325271316,288.8419163405643L362.72669114418323,288.6810819713854L363.6051832095436,288.92290435112795L363.8187392917307,287.2561801313695L364.0905379417869,286.4976907123251L365.0903686902081,287.144101352906L365.78927950463844,287.5882304492505L366.15329555382095,287.4312919736288L366.25036650026954,287.47450123944895L366.7988173477045,288.61416401309026L368.8033323918693,288.55511790164445L369.05086330531344,287.80008190886656L370.0070121278327,288.3389766566337L370.70592294226304,286.6931903806936L371.38056602008123,287.03501349737127L371.64751112281505,288.1676109929316L371.8513601103572,288.4065683260322L372.0600626452219,288.1509366639475L372.64248832391377,289.0798821984729L372.6570489658811,290.30133422061795L373.0016508257738,291.2234927782236L373.05989339364305,292.240902726767L373.4578842740825,293.35314076360004L373.81219322862006,294.65786209345316L374.0451635000969,294.5868005013383L374.56449306359724,295.00522837351264L376.0933604701636,295.81323992180313L376.52047263453767,297.10674228685565L376.5253261818602,298.1034593619451L376.6660790542107,298.512480811387L376.91846351497725,298.2390956339691L378.49101284744546,298.45253138057564L380.00046606472216,298.17989061196005L381.86422823653635,298.6838729298094L382.95142283676137,299.67051119452697L383.04849378321006,300.46045330132847L387.0381096822499,300.7646320775191L387.2953476903389,301.45396296404294L387.63024245558677,298.7661529750676L388.4941738789798,299.1692108567895L389.0086498951577,298.89748644965107L392.70219940752924,299.972116145544L393.06621545671163,300.85129994972004L393.9932429952963,301.82356208911517L395.94436901891436,302.60113806070444L396.03658641804066,303.3762310160161L396.07056124929767,303.8621165478388L396.7888862530178,304.4419291702202L398.36628913280845,304.73378793602603L399.0749070418837,305.40578540614825L399.6039437000288,306.17081523468056L399.81264623489346,306.55318385980064L400.01649522243565,307.69399970270166L400.2591725885573,307.59810494465114L401.43373104058605,308.16577936148803L402.3025160113016,309.20491970981396L403.2246900025638,309.6734988648503L404.0595001420223,309.6683674784019L404.1080356152466,308.34239328793007L404.2342278456299,308.6227606217973L405.06903798508836,308.43152010358835L405.53983207536436,309.3694330328017L406.96192144083716,309.6467949623437L407.0978207658653,309.36020867705855L407.5734684034637,310.5744890319977L407.8598276954873,310.0056537390675L408.7286126662028,309.0643759951508L410.8544663934284,310.0885326923332L411.72810491146635,309.7091894648456L411.82032231059264,311.009663723252L412.97061302600923,310.5360704994573L413.2521187707103,308.1095889148659L413.98500441639766,309.223333527045L414.1160501941034,306.9902931005675L414.3344598236128,307.73290827988035L415.4556292550949,308.4732498629571L416.18851490078225,308.7484067616178L417.4213159206802,306.3405387146861L417.96976676811516,304.21719547598104L418.4696821423258,304.22321326700325L418.4793892369706,303.86039045952356L418.48424278429303,304.6040089982609L419.0424007263728,304.51721070796344L419.95486762299026,304.5225998806375L420.5712681329392,304.3443097553884L422.18749939130936,304.90046762312875L423.52222490497843,305.1800094877706L426.09460498586793,306.2826943946632L426.50230296095225,307.10767640318875L427.9923419889392,308.1129204374204L429.40472425976714,308.7500333463804L429.8755183500432,307.56148441110236L430.0259783170386,308.2895239989916L430.10848862152,308.8333757001407L431.41409285125445,309.7392676854837L431.4286534932217,309.82502799059006L431.99166498262394,308.3680217603006L432.02563981388096,308.8189213849489L433.10312731946107,308.7251395306535L433.18078407662,308.9935083355691L433.55936076776976,307.4534941917407L433.8020381338915,308.3558891613423L434.01074066875606,309.25561932868084L434.43299928580774,307.53936760998516L436.0832053754349,308.0788477669504L437.6217798766462,308.5268014025074L438.1702307240811,309.1531440129403L438.864287991189,308.0721038594986L439.80587617174103,309.1465239738309L440.12621029502156,309.3218755545044L440.13106384234396,310.1232586557323L440.1553315789562,309.0444749334042L440.1893064102132,308.5048441026671L442.5432768615932,309.1270251198039L442.66461554465405,302.9709231078496L442.8927322688084,298.97059824502753L444.3973319387626,299.9655690851517L445.47481944434276,300.51310752719644L447.22209648041854,298.83841368528516L447.43565256260564,299.12088201595543L447.4744809411851,296.2108364215797L448.6296252039241,296.40929632225954L448.66845358250356,297.13813485185585L449.40619277551343,298.1301043898876L450.89137825617786,296.99940411320097L451.0321311285284,297.6368141413782L451.6922135643793,297.6552708187193L452.84250427979595,297.1451999380316L453.8666027648292,298.39653269629184L454.60919550516155,297.6222328739729L456.7981453475788,297.55281476479337L457.23496460659777,298.2733743314471L459.030777115898,298.90421349959746L461.3847475672779,298.48215983891316L462.59813439788616,298.5863713447208L463.2339490971249,299.56460032871263L465.4180453922197,297.1333620690197L467.0828121238142,298.02531075615656L467.5390455721229,297.9556304254105L468.33502733300196,296.84079292839397L469.0776200733342,297.2086662185808L469.5969496368345,298.0972349488455L470.63560876383514,298.4620515391276L471.150084780013,298.9994410564407L473.1206249929208,299.795484864102L473.2031352974022,299.37631740502576L473.36815590636496,300.25678141104225L473.4749339474584,300.61586971820657L473.61568681980896,300.1098652258203L473.90204611183253,298.6556157748867L474.5281537164264,299.4480456113734L474.91158395489856,299.3764892706942L475.0523368272492,300.16615278688965L477.6732523813629,300.179395835256L478.89149275929356,300.7942514048853L479.4690648906631,301.66503014725737L479.8185202978783,301.5896225141406L480.9202755400705,300.4000229518471L481.30370577854274,301.09795198259695L481.5900650705663,299.5690665355241L482.2598546010621,298.8993617606591L483.06554345658594,296.3521764636412L483.4295595057684,294.15336785201083L484.10905613090904,294.7746527222665L485.0118159328816,295.8202443703675L485.6961661053446,296.9481082648358L486.0504750598822,297.3074125357699L487.6861205075421,297.0708754160387L488.21515716568734,295.73118810750776L488.23942490229945,296.1766610268938L488.6325622354166,296.536163208991L489.1033563256926,295.4549788569084L489.90419163389396,296.40752002006724L491.3020132627547,296.3429518743064L491.3456951886566,293.40649611574474L492.03975245576447,290.984368753079L492.0591666450542,292.1105901557261L492.4523039781713,292.72823340913834L492.7192490809051,293.84933427961437L493.12209350866704,294.63096193732406L493.4327205373027,295.24240320317L494.2529700347939,294.25670030611155L494.7528854090045,294.4482854691796L495.78183744136027,295.31002456731824L496.55840501294955,292.81893386709726L496.71371852726736,289.9160219992667L496.7379862638796,288.1915761979321L497.90283762126353,288.3099108863541L498.2328788391889,288.8453549730413L498.54835941514705,289.7964554731746L498.7570619500117,290.7450331797222L498.79103678126876,290.69176249811983L498.82501161252577,291.72035417580884L499.1453457358063,290.25199900441254L499.3831695546055,290.6981930227027L501.39253814609276,291.3922241406708L501.8342109524342,291.6697429349276L502.36810115790183,290.37201883637425L502.6932888285048,290.65093575483036L503.188350655393,291.1773230313718L503.4407351161595,291.6196626759084L504.129938835945,292.4738439294116L504.5376368110293,292.8305902538173L504.88709221824456,291.53707119090365L504.9696025227259,290.8237308024333L505.49863918087107,291.9235965999242L505.6685133371562,291.45750916457996L505.867508777376,292.06125854939154L507.20708783836744,292.58130246055526L507.8671702742184,292.7717141752853L508.36223210110654,293.53566728953837L508.50298497345705,292.65884557850876L508.6097630145506,292.7667892921475L509.1290925780509,293.61074182194534L509.1824815985977,293.7985549663503L509.27469899772393,294.4759661644007L510.35704005062644,295.3148639137638L511.22097147401956,295.743843795788L511.5413055973001,296.4161837120493L512.021806782221,297.3310680860518L512.0751958027677,298.16224544698395L512.1625596545715,298.8287000944661L512.2644841483426,298.1937219511734L513.1187084770908,298.777912225641L513.7739373656192,299.36061030180946L513.8079121968763,299.86077801434715L514.734939735461,299.4688821741809L515.3270725087978,297.9451298447732L515.496946665083,298.7700679057879L515.7784524097841,299.67370352732826L515.9143517348123,300.57504585724706L516.3220497098965,300.6674109203991L516.8365257260745,301.3237937637455L516.8850611992988,302.05906184367956L517.8654777584303,302.6315035429317L519.0691574943936,300.95066184756155L522.0880639289469,301.12237499302034L522.3986909575825,302.09666076391017L523.8304874177003,302.9882553332446L524.0440434998874,303.79742990865316L525.84470955651,303.0823260179215L526.3883068566225,304.13028726474425L526.4950848977161,304.5356427230327L526.931904156735,305.25973291838403L527.7715678435159,306.30152194699565L528.2229477445021,306.7819863629102L528.6888882874557,307.66004088487904L530.9749090763216,307.57952793409925L531.1787580638638,307.1806601180618L532.1640281703177,307.41942106640806L532.401851989117,308.21423204183554L532.6348222605938,308.2124550548621L532.7804286802667,307.65486362102354L532.8241106061686,308.2888137157231L534.0666187207114,306.4633446564662L535.7896280201751,307.01920156533174L537.3282025213864,307.6528547434254L537.4398341098024,308.60138797625325L537.5611727928632,308.67800250355606L538.0222597884944,309.22839863556163L538.1435984715552,309.6195664828007L538.5512964466395,309.6942539573303L538.624099656476,309.92640306881964L538.7211706029246,310.7093396089835L539.1385756726538,311.0968179792723L539.1434292199763,312.03390646957035L540.575225680094,312.1041667746392L542.783589711801,313.0381697860716L543.0311206252451,312.6357155995194L545.4384800971718,312.9400644681246L546.4188966563033,312.93019871089643L546.6664275697474,313.781792315463L547.4381415940143,313.61398506008067L547.4866770672386,314.07218865535515L548.4816542683374,314.6074260739645L549.3455856917304,314.36047578332983L549.408681806922,314.5823250888575L549.6707733623334,315.4274650058577L549.7484301194922,313.93286902229255L551.9276728672647,314.85579008455653L552.267421179835,315.0761682281768L552.2868353691248,315.76256622153335L552.6023159450829,315.5925721367226L552.6265836816951,316.1994786873824L552.9954532782,315.8737905719859L553.6070002408264,316.78953236348156L553.7428995658546,317.16067544032273L554.4175426436728,315.05309297919723L556.1502590377813,315.1945271343366L556.1551125851038,315.7222474242006L556.6161995807349,316.09416613701086L557.3539387737447,316.6196336155608L557.8247328640208,314.0572771161655L558.2664056703621,314.3541267197256L558.2858198596518,313.72557517196236L558.8876597276336,314.7156207233269L560.9989528128918,315.62636557385474L561.4746004504904,314.92006492918387L561.9308338987989,315.7523720715729L563.9450560376087,316.5059162852272L567.0270585873536,317.4111637551254L567.5852165294334,317.7774463458875L567.8812829161018,317.4531268566286L567.9880609571953,317.12957150505497L568.2550060599292,317.8782498639072L569.9100656968789,318.1662757906931L569.9974295486826,318.4536250520199L570.0653792111967,319.19857296277934L570.361445597865,319.17849948311493L570.9293106345897,319.2347492267902L571.2011092846459,319.138417213921L572.4096425679318,319.72787673653676L572.6668805760207,320.3159593675666L573.0211895305583,320.82659728826565L574.1860408879422,317.6870041997984L574.7344917353772,318.42925136361714L575.1907251836859,318.334643666787L576.1468740062052,317.70916323193575L576.4720616768082,316.7818547798633L577.0253660715655,316.9932496077721L577.2826040796544,313.1909869531249L578.4523089843608,314.0890884116337L579.3016797657866,313.0189773225061L579.5006752060063,313.5383296741193L579.6220138890671,314.1320040273274L580.2772427775956,313.2148676838718L582.422510694111,313.1294959423231L582.8690370477748,313.8734304858782L584.4027580016635,314.61565334841634L586.7518749057211,314.82924071513116L587.3731289629926,315.6441519371028L587.4362250781842,314.57774129556657L587.6400740657264,315.16662382816776L588.8971428222366,313.8771328545804L589.6445891098912,312.36549445427136L590.7269301627938,312.0570611393275L591.5617403022522,311.6743960409902L594.0855849099173,312.04148551181083L594.9252485966982,311.8838567209538L595.0854156583385,311.8761716860955L597.1239055337604,311.9432487945175L598.4683381420743,312.38365863857956L599.4730224378179,313.1963159052696L599.5992146682012,313.3357097913819L599.6137753101685,314.07122651828183L600.6378737952018,313.76196979615725L601.3173704203425,313.9746371316965L602.2589586008944,314.7821327197933L602.9141874894229,315.2159704210715L604.0499175628722,316.02042911458216L604.5935148629848,315.2633332498468L606.491251866056,314.9533038412873L607.3940116680285,314.12470955473833L607.5202038984118,313.4462465845346L608.0880689351364,314.3251519128779L608.7530049183098,313.20295899823003L609.8013711399552,313.8591785007689L610.8934192875028,314.0702292720041L611.737936521606,314.1329997561481L612.3834583154896,313.97405524829867L613.2668039281724,314.5535917734954L615.8100627251272,315.5744368794852L615.9508155974778,315.11857165560525L616.8487218521279,315.7688676601163L617.0816921236047,316.27045341671305L617.2661269218572,316.1086490093363L617.4748294567217,315.5059580777821L618.1009370613157,312.8467142167986L618.5474634149795,312.7641663702948L619.8627747393588,312.6818015138254L619.9598456858074,310.76556931186747L619.9792598750972,309.29348235583194L620.0811843688682,308.0444692676384L621.008211907453,308.4092477503526L621.6537337013366,309.2123283562868L622.7894637747859,309.42851476833044L624.7988323662731,310.08280323497087L625.716152810213,310.37038911596545L626.28887139426,310.8033597753849L626.4635990978676,307.5871337791507L626.5849377809284,308.02403241876704L628.1963154919762,308.31421722636543L629.0505398207243,309.25927457573704L629.2009997877198,310.0566805873629L630.885180708604,309.0336500616281L631.501581218553,309.61235521118635L631.647187638226,309.9718120589325L632.6712861232593,309.3138258300745L633.0595699090541,310.18136177139127L633.5594852832646,311.0470078092277L633.821576838676,311.5483190872442L636.2095221213131,312.48322526103686L636.578391717818,312.6920498841478L636.9472613143229,308.6310279070635L637.2142064170566,309.2073124910193L637.6510256760756,309.3486798294713L637.7529501698467,310.21210008209044L637.9276778734543,306.3810516175279" style="fill: none;" fill="none"></path></g></g></g></g><g opacity="0.2"><g><g><g><path stroke="rgb(255, 112, 67)" stroke-width="2px" d="M1.7877909641341132,489.78742127639885L1.8848619105827722,352.84190584158955L4.520338106663867,763.6784521460175L12.315135106491194,-1975.231856550169L12.37337767436039,215.89639040678017L12.664590513706367,-834.019227926758L17.547259120073917,763.6784521460175L17.610355235265548,307.1934006966531L17.911275169256392,854.9754624358903L18.396629901499686,398.490410986526L18.843156255163517,33.30236982703443L19.876961834841737,763.6784521460175L20.677797143043172,-103.64314560777493L20.842817752005892,261.54489555171665L21.40097569408568,-12.34613531790202L22.162982623707656,-194.94015589764774L22.585241240759323,170.24788526184375L22.847332796170704,-970.9647433615672L25.61870831727992,-57.994640462838476L25.953603082527795,124.5993801169073L26.30305848974297,809.3269572909538L34.71425599951928,672.3814418561446L34.8501553245474,78.95087497197089L34.96664046028579,718.029947001081L38.7087254458816,-651.4252073470122L39.50956075408304,33.30236982703443L39.708556194302794,261.54489555171665L40.11625416938716,626.7329367112081L40.26186058906015,170.24788526184375L40.392906366765835,672.3814418561446L40.50453795518179,352.84190584158955L40.65985146949965,489.78742127639885L41.49466160895812,-331.8856713324571L41.834409921528426,261.54489555171665L43.067210941426396,215.89639040678017L43.421519895964,-240.58866104258422L46.819003021667065,-240.58866104258422L49.73598496244928,78.95087497197089L49.96895523392606,718.029947001081L52.14819798169845,854.9754624358903L52.332632779950906,78.95087497197089L52.54618886213796,854.9754624358903L52.92476555328773,307.1934006966531L54.05078853209217,-331.8856713324571L55.196225700186346,398.490410986526L56.94350273626222,78.95087497197089L57.35120071134658,672.3814418561446L58.0015760525526,-12.34613531790202L58.13747537758072,261.54489555171665L58.49178433211832,-788.3707227818215L58.60826946785672,-377.5341764773935L59.36056930283383,78.95087497197089L59.58868602698817,170.24788526184375L60.18081880032499,124.5993801169073L60.54483484950747,444.13891613146245L61.23403856929294,124.5993801169073L61.32140242109674,-194.94015589764774L66.97578505173114,763.6784521460175L68.1357828617926,352.84190584158955L68.27168218682073,307.1934006966531L71.1983712222478,307.1934006966531L71.93125686793518,352.84190584158955L74.07652478445054,581.0844315662717L74.2318382987684,215.89639040678017L74.31434860324977,307.1934006966531L74.43083373898816,78.95087497197089L74.62497563188548,718.029947001081L77.61476078250418,718.029947001081L78.43015673267291,170.24788526184375L79.76002869901953,-12.34613531790202L80.32304018842176,352.84190584158955L80.36186856700122,489.78742127639885L81.7014476279927,444.13891613146245L82.07031722449763,261.54489555171665L83.41960338013399,78.95087497197089L83.44872466406858,170.24788526184375L83.59433108374157,718.029947001081L85.13775913227525,763.6784521460175L85.60369967522882,33.30236982703443L86.13758988069644,-240.58866104258422L86.41909562539755,581.0844315662717L87.02093549337924,307.1934006966531L87.23934512288872,215.89639040678017L87.58394698278146,215.89639040678017L88.67114158300645,672.3814418561446L93.13155157232232,672.3814418561446L93.52468890543939,352.84190584158955L94.1410894153884,809.3269572909538L104.3480994344649,-12.34613531790202L104.51797359075003,261.54489555171665L105.97403778747993,-1199.2072690862494L111.15277278051589,-149.2916507527113L112.2739422119979,352.84190584158955L112.34189187451197,809.3269572909538L112.53603376740928,444.13891613146245L112.8757820799796,33.30236982703443L112.94858528981608,489.78742127639885L115.86556723059829,398.490410986526L116.86054443169704,215.89639040678017L117.12263598710842,307.1934006966531L117.18087855497762,170.24788526184375L118.21953768197828,261.54489555171665L119.84062248767088,444.13891613146245L123.48563652681803,-103.64314560777493L123.5584397366545,124.5993801169073L123.922455785837,-742.7222176368851L126.456007488147,-377.5341764773935L127.26169634367088,307.1934006966531L127.46069178389062,-925.3162382166308L128.4896438162464,763.6784521460175L128.76629601362507,124.5993801169073L132.12495076074867,307.1934006966531L132.98888218414174,-57.994640462838476L133.04712475201094,535.4359264213352L134.38185026568001,352.84190584158955L134.6293811791241,672.3814418561446L136.9299626099573,672.3814418561446L137.15807933411165,78.95087497197089L137.24058963859304,946.2724727257632L138.30351650220584,-1016.6132485065037L138.36661261739746,124.5993801169073L139.43439302833272,763.6784521460175L139.594560089973,854.9754624358903L141.3903725992732,352.84190584158955L142.30769304321302,-1518.7468051008043L142.86099743797038,809.3269572909538L144.01614170070943,78.95087497197089L144.65680994727057,718.029947001081L147.2097758388703,946.2724727257632L147.28743259602925,352.84190584158955L147.4573067523144,307.1934006966531L147.56893834073034,626.7329367112081L147.7533731389828,170.24788526184375L150.14617196894227,261.54489555171665L151.62165035496187,33.30236982703443L151.6847464701535,215.89639040678017L151.68960001747593,672.3814418561446L152.0633231613033,78.95087497197089L152.59721336677092,626.7329367112081L154.51921810645433,809.3269572909538L155.9413074719272,215.89639040678017L156.43636929881535,170.24788526184375L156.73243568548378,124.5993801169073L159.64456407894355,-149.2916507527113L166.84722830543404,809.3269572909538L169.5312399747395,352.84190584158955L170.46797460796904,-240.58866104258422L172.51617157803574,-12.34613531790202L172.83650570131633,78.95087497197089L174.37022665520513,261.54489555171665L175.22445098395332,535.4359264213352L175.5884670331358,718.029947001081L176.5009339297532,170.24788526184375L178.68017667752557,352.84190584158955L178.68503022484805,809.3269572909538L178.7869547186191,-970.9647433615672L179.17038495709133,33.30236982703443L180.713813005625,215.89639040678017L180.87883361458773,124.5993801169073L181.07782905480747,626.7329367112081L187.3583192900357,672.3814418561446L187.65923922402655,215.89639040678017L187.72233533921818,581.0844315662717L190.36266508262173,-1564.3953102457408L190.4014934612012,261.54489555171665L191.08584363366424,718.029947001081L191.72165833290293,352.84190584158955L193.18257607695526,444.13891613146245L193.99311847980158,763.6784521460175L194.11445716286238,261.54489555171665L195.11428791128358,535.4359264213352L196.06558318648047,718.029947001081L196.2791392686675,307.1934006966531L196.8421507580697,763.6784521460175L196.856711400037,170.24788526184375L198.45838201643988,444.13891613146245L208.27710824972178,-240.58866104258422L208.4615430479742,124.5993801169073L209.37886349191402,307.1934006966531L209.44195960710567,-651.4252073470122L209.62154085803567,900.6239675808267L210.66505353235877,261.54489555171665L212.65015438723384,444.13891613146245L220.0518140539441,718.029947001081L220.57114361744442,33.30236982703443L220.71189648979498,261.54489555171665L220.79440679427637,170.24788526184375L220.81382098356607,-1473.098299955868L220.891477740725,170.24788526184375L221.03223061307554,444.13891613146245L228.72024957180935,-423.18268162232994L228.82217406558044,261.54489555171665L229.43372102820703,854.9754624358903L230.64710785881525,-194.94015589764774L230.9965632660304,261.54489555171665L231.17129096963802,900.6239675808267L231.49647864024104,672.3814418561446L231.7197418170729,124.5993801169073L232.53999131456408,581.0844315662717L233.54952915763013,215.89639040678017L233.84559554429856,-1107.9102587963764L235.09781075348624,-1244.8557742311857L236.3160511314169,124.5993801169073L237.50031667809057,352.84190584158955L238.15069201929657,535.4359264213352L238.4321977639977,444.13891613146245L240.3590560510036,124.5993801169073L243.77109981867395,718.029947001081L246.46481858262425,718.029947001081L246.52306115049342,215.89639040678017L246.6929353067786,-377.5341764773935L258.18128181897737,581.0844315662717L259.7004421308989,352.84190584158955L259.89943757111865,33.30236982703443L260.03533689614676,444.13891613146245L261.73893200632074,626.7329367112081L262.1611906233724,261.54489555171665L262.36989315823706,-651.4252073470122L268.82511109707286,535.4359264213352L269.3444406605732,78.95087497197089L271.023768034135,672.3814418561446L271.2130563797099,672.3814418561446L272.86811601665954,261.54489555171665L273.3825920328374,626.7329367112081L275.80451214673144,-149.2916507527113L275.8433405253109,307.1934006966531L276.0471895128531,124.5993801169073L276.86258546302184,854.9754624358903L277.0567273559192,215.89639040678017L277.5954711087092,946.2724727257632L288.2344468394823,763.6784521460175L289.3022272504175,352.84190584158955L289.50122269063723,352.84190584158955L290.31176509348353,-194.94015589764774L293.2433076762331,535.4359264213352L293.5442276102239,33.30236982703443L293.6849804825745,626.7329367112081L294.9614634283743,261.54489555171665L295.1653124159165,215.89639040678017L297.2717519538524,763.6784521460175L301.4797774824018,-560.1281970571393L302.53785079869215,124.5993801169073L303.44061060066474,626.7329367112081L306.0518190601336,626.7329367112081L307.3380091005784,307.1934006966531L307.50302970954107,489.78742127639885L310.5607645226739,626.7329367112081L311.1723114853004,307.1934006966531L311.35674628355287,763.6784521460175L312.3808447685862,-240.58866104258422L312.49247635700215,215.89639040678017L312.6429363239976,-331.8856713324571L313.7252773769002,124.5993801169073L313.8223483233488,763.6784521460175L315.77832789428925,809.3269572909538L315.8705452934155,261.54489555171665L315.9287878612847,718.029947001081L316.3073645524345,581.0844315662717L318.7098704770388,215.89639040678017L318.92342655922585,-1655.6923205356138L320.0397424433854,763.6784521460175L320.09798501125465,307.1934006966531L321.6074382285313,763.6784521460175L321.7336304589145,626.7329367112081L321.918065257167,352.84190584158955L322.3840058001205,718.029947001081L324.6263446630846,672.3814418561446L325.26215936232325,215.89639040678017L325.4174728766411,215.89639040678017L326.42215717238474,-1610.0438153906773L328.89746630682555,444.13891613146245L329.33913911316694,78.95087497197089L329.4993061748072,672.3814418561446L330.5428188491303,626.7329367112081L331.25629030552795,261.54489555171665L333.0666634567954,763.6784521460175L344.66664155741023,581.0844315662717L344.83651571369535,352.84190584158955L347.2827035642016,581.0844315662717L347.6709873499962,672.3814418561446L347.85542214824864,307.1934006966531L348.879520633282,809.3269572909538L351.15583432750304,-1016.6132485065037L351.2577588212742,261.54489555171665L351.6994316276156,626.7329367112081L352.46629210455995,398.490410986526L353.01959649931734,78.95087497197089L353.87382082806556,170.24788526184375L354.41741812817804,581.0844315662717L355.2036927944122,78.95087497197089L355.6939010739779,-194.94015589764774L356.41222607769794,763.6784521460175L356.8587524313618,170.24788526184375L356.92184854655346,626.7329367112081L357.096576250161,261.54489555171665L357.28101104841346,809.3269572909538L358.5332262576012,-286.23716618752064L358.800171360335,33.30236982703443L359.13021257826045,626.7329367112081L359.3583293024148,261.54489555171665L359.7126382569524,-1336.1527845210585L362.3044325271316,718.029947001081L362.72669114418323,215.89639040678017L363.6051832095436,398.490410986526L365.78927950463844,489.78742127639885L366.15329555382095,215.89639040678017L366.25036650026954,307.1934006966531L366.7988173477045,809.3269572909538L368.8033323918693,261.54489555171665L369.05086330531344,-57.994640462838476L371.8513601103572,398.490410986526L372.0600626452219,170.24788526184375L372.64248832391377,718.029947001081L373.81219322862006,900.6239675808267L374.0451635000969,261.54489555171665L374.56449306359724,489.78742127639885L376.6660790542107,489.78742127639885L376.91846351497725,170.24788526184375L378.49101284744546,398.490410986526L380.00046606472216,170.24788526184375L381.86422823653635,535.4359264213352L388.4941738789798,489.78742127639885L389.0086498951577,170.24788526184375L392.70219940752924,809.3269572909538L400.01649522243565,854.9754624358903L400.2591725885573,261.54489555171665L401.43373104058605,581.0844315662717L403.2246900025638,535.4359264213352L404.0595001420223,307.1934006966531L404.1080356152466,-331.8856713324571L404.2342278456299,444.13891613146245L405.06903798508836,215.89639040678017L405.53983207536436,763.6784521460175L406.96192144083716,444.13891613146245L407.0978207658653,170.24788526184375L407.5734684034637,900.6239675808267L407.8598276954873,33.30236982703443L408.7286126662028,-149.2916507527113L410.8544663934284,809.3269572909538L411.72810491146635,124.5993801169073L411.82032231059264,946.2724727257632L412.97061302600923,78.95087497197089L413.2521187707103,-879.6677330716944L417.96976676811516,-742.7222176368851L418.4696821423258,307.1934006966531L418.4793892369706,124.5993801169073L418.48424278429303,672.3814418561446L419.0424007263728,261.54489555171665L419.95486762299026,307.1934006966531L420.5712681329392,215.89639040678017L422.18749939130936,581.0844315662717L431.41409285125445,763.6784521460175L431.4286534932217,352.84190584158955L431.99166498262394,-423.18268162232994L432.02563981388096,535.4359264213352L433.10312731946107,261.54489555171665L433.18078407662,444.13891613146245L440.1553315789562,-240.58866104258422L440.1893064102132,33.30236982703443L442.5432768615932,626.7329367112081L451.0321311285284,626.7329367112081L451.6922135643793,307.1934006966531L452.84250427979595,33.30236982703443L453.8666027648292,946.2724727257632L454.60919550516155,-103.64314560777493L456.7981453475788,261.54489555171665L457.23496460659777,672.3814418561446L459.030777115898,626.7329367112081L461.3847475672779,78.95087497197089L462.59813439788616,352.84190584158955L463.2339490971249,809.3269572909538L467.0828121238142,763.6784521460175L467.5390455721229,261.54489555171665L468.33502733300196,-286.23716618752064L473.1206249929208,718.029947001081L473.2031352974022,78.95087497197089L473.36815590636496,763.6784521460175L473.4749339474584,489.78742127639885L473.61568681980896,33.30236982703443L473.90204611183253,-468.8311867672664L474.5281537164264,718.029947001081L474.91158395489856,261.54489555171665L475.0523368272492,718.029947001081L477.6732523813629,307.1934006966531L478.89149275929356,626.7329367112081L479.4690648906631,763.6784521460175L479.8185202978783,261.54489555171665L480.9202755400705,-331.8856713324571L486.0504750598822,489.78742127639885L487.6861205075421,170.24788526184375L488.21515716568734,-423.18268162232994L489.90419163389396,809.3269572909538L491.3020132627547,261.54489555171665L491.3456951886566,-1290.504279376122L496.7379862638796,-651.4252073470122L497.90283762126353,352.84190584158955L498.2328788391889,581.0844315662717L498.7570619500117,809.3269572909538L498.79103678126876,261.54489555171665L498.82501161252577,854.9754624358903L505.49863918087107,900.6239675808267L505.6685133371562,33.30236982703443L505.867508777376,626.7329367112081L508.50298497345705,-194.94015589764774L508.6097630145506,352.84190584158955L509.1290925780509,763.6784521460175L513.8079121968763,581.0844315662717L514.734939735461,78.95087497197089L515.3270725087978,-560.1281970571393L515.9143517348123,809.3269572909538L516.3220497098965,352.84190584158955L516.8365257260745,672.3814418561446L528.6888882874557,809.3269572909538L530.9749090763216,261.54489555171665L531.1787580638638,78.95087497197089L532.1640281703177,444.13891613146245L532.401851989117,763.6784521460175L532.6348222605938,307.1934006966531L532.7804286802667,-12.34613531790202L537.4398341098024,854.9754624358903L537.5611727928632,352.84190584158955L538.0222597884944,626.7329367112081L538.1435984715552,535.4359264213352L538.5512964466395,352.84190584158955L538.624099656476,444.13891613146245L539.1434292199763,854.9754624358903L540.575225680094,352.84190584158955L542.783589711801,854.9754624358903L543.0311206252451,78.95087497197089L545.4384800971718,489.78742127639885L546.4188966563033,307.1934006966531L546.6664275697474,809.3269572909538L547.4381415940143,215.89639040678017L547.4866770672386,581.0844315662717L548.4816542683374,626.7329367112081L549.3455856917304,170.24788526184375L549.408681806922,444.13891613146245L552.2868353691248,718.029947001081L552.6023159450829,215.89639040678017L552.6265836816951,672.3814418561446L552.9954532782,124.5993801169073L553.6070002408264,854.9754624358903L567.5852165294334,535.4359264213352L567.8812829161018,124.5993801169073L567.9880609571953,124.5993801169073L568.2550060599292,763.6784521460175L570.0653792111967,763.6784521460175L570.361445597865,307.1934006966531L570.9293106345897,352.84190584158955L571.2011092846459,261.54489555171665L572.4096425679318,672.3814418561446L574.7344917353772,763.6784521460175L575.1907251836859,261.54489555171665L576.1468740062052,-57.994640462838476L580.2772427775956,-240.58866104258422L582.422510694111,261.54489555171665L582.8690370477748,763.6784521460175L589.6445891098912,-605.7767022020757L590.7269301627938,124.5993801169073L591.5617403022522,78.95087497197089L594.0855849099173,535.4359264213352L594.9252485966982,215.89639040678017L595.0854156583385,307.1934006966531L597.1239055337604,352.84190584158955L598.4683381420743,581.0844315662717L599.6137753101685,763.6784521460175L600.6378737952018,124.5993801169073L601.3173704203425,444.13891613146245L604.5935148629848,-149.2916507527113L606.491251866056,124.5993801169073L607.3940116680285,-194.94015589764774L610.8934192875028,444.13891613146245L611.737936521606,352.84190584158955L612.3834583154896,215.89639040678017L613.2668039281724,672.3814418561446L615.8100627251272,946.2724727257632L615.9508155974778,33.30236982703443L616.8487218521279,718.029947001081L617.0816921236047,626.7329367112081L617.2661269218572,215.89639040678017L617.4748294567217,-57.994640462838476L618.1009370613157,-1336.1527845210585L618.5474634149795,261.54489555171665L619.8627747393588,261.54489555171665L619.9598456858074,-879.6677330716944" style="fill: none;" fill="none"></path></g></g></g></g></g></g><g transform="translate(30, 377)" clip-path="url(#clip_1)"><clipPath id="clip_1"><rect width="1425" height="23"></rect></clipPath><g><g><line x1="89.43800205995085" y1="0" x2="89.43800205995085" y2="5" style="visibility: inherit;" fill="rgb(0, 0, 0)" stroke="rgb(204, 204, 204)" stroke-width="1px"></line><line x1="186.50894850860996" y1="0" x2="186.50894850860996" y2="5" style="visibility: inherit;" fill="rgb(0, 0, 0)" stroke="rgb(204, 204, 204)" stroke-width="1px"></line><line x1="283.57989495726906" y1="0" x2="283.57989495726906" y2="5" style="visibility: inherit;" fill="rgb(0, 0, 0)" stroke="rgb(204, 204, 204)" stroke-width="1px"></line><line x1="380.6508414059282" y1="0" x2="380.6508414059282" y2="5" style="visibility: inherit;" fill="rgb(0, 0, 0)" stroke="rgb(204, 204, 204)" stroke-width="1px"></line><line x1="477.72178785458726" y1="0" x2="477.72178785458726" y2="5" style="visibility: inherit;" fill="rgb(0, 0, 0)" stroke="rgb(204, 204, 204)" stroke-width="1px"></line><line x1="574.7927343032464" y1="0" x2="574.7927343032464" y2="5" style="visibility: inherit;" fill="rgb(0, 0, 0)" stroke="rgb(204, 204, 204)" stroke-width="1px"></line><line x1="671.8636807519055" y1="0" x2="671.8636807519055" y2="5" style="visibility: inherit;" fill="rgb(0, 0, 0)" stroke="rgb(204, 204, 204)" stroke-width="1px"></line><line x1="768.9346272005647" y1="0" x2="768.9346272005647" y2="5" style="visibility: inherit;" fill="rgb(0, 0, 0)" stroke="rgb(204, 204, 204)" stroke-width="1px"></line><line x1="866.0055736492238" y1="0" x2="866.0055736492238" y2="5" style="visibility: inherit;" fill="rgb(0, 0, 0)" stroke="rgb(204, 204, 204)" stroke-width="1px"></line><line x1="963.076520097883" y1="0" x2="963.076520097883" y2="5" style="visibility: inherit;" fill="rgb(0, 0, 0)" stroke="rgb(204, 204, 204)" stroke-width="1px"></line><line x1="1060.147466546542" y1="0" x2="1060.147466546542" y2="5" style="visibility: inherit;" fill="rgb(0, 0, 0)" stroke="rgb(204, 204, 204)" stroke-width="1px"></line><line x1="1157.2184129952009" y1="0" x2="1157.2184129952009" y2="5" style="visibility: inherit;" fill="rgb(0, 0, 0)" stroke="rgb(204, 204, 204)" stroke-width="1px"></line><line x1="1254.2893594438601" y1="0" x2="1254.2893594438601" y2="5" style="visibility: inherit;" fill="rgb(0, 0, 0)" stroke="rgb(204, 204, 204)" stroke-width="1px"></line><line x1="1351.3603058925191" y1="0" x2="1351.3603058925191" y2="5" style="visibility: inherit;" fill="rgb(0, 0, 0)" stroke="rgb(204, 204, 204)" stroke-width="1px"></line></g><g transform="translate(0, 8)"><text x="89.43800205995085" y="0" dx="0em" dy="0.95em" style="text-anchor: middle; visibility: inherit; font-family: Roboto, sans-serif; font-size: 12px; font-weight: 200;" fill="rgb(33, 33, 33)" stroke="none" stroke-width="1px">20k</text><text x="186.50894850860996" y="0" dx="0em" dy="0.95em" style="text-anchor: middle; visibility: inherit; font-family: Roboto, sans-serif; font-size: 12px; font-weight: 200;" fill="rgb(33, 33, 33)" stroke="none" stroke-width="1px">40k</text><text x="283.57989495726906" y="0" dx="0em" dy="0.95em" style="text-anchor: middle; visibility: inherit; font-family: Roboto, sans-serif; font-size: 12px; font-weight: 200;" fill="rgb(33, 33, 33)" stroke="none" stroke-width="1px">60k</text><text x="380.6508414059282" y="0" dx="0em" dy="0.95em" style="text-anchor: middle; visibility: inherit; font-family: Roboto, sans-serif; font-size: 12px; font-weight: 200;" fill="rgb(33, 33, 33)" stroke="none" stroke-width="1px">80k</text><text x="477.72178785458726" y="0" dx="0em" dy="0.95em" style="text-anchor: middle; visibility: inherit; font-family: Roboto, sans-serif; font-size: 12px; font-weight: 200;" fill="rgb(33, 33, 33)" stroke="none" stroke-width="1px">100k</text><text x="574.7927343032464" y="0" dx="0em" dy="0.95em" style="text-anchor: middle; visibility: inherit; font-family: Roboto, sans-serif; font-size: 12px; font-weight: 200;" fill="rgb(33, 33, 33)" stroke="none" stroke-width="1px">120k</text><text x="671.8636807519055" y="0" dx="0em" dy="0.95em" style="text-anchor: middle; visibility: inherit; font-family: Roboto, sans-serif; font-size: 12px; font-weight: 200;" fill="rgb(33, 33, 33)" stroke="none" stroke-width="1px">140k</text><text x="768.9346272005647" y="0" dx="0em" dy="0.95em" style="text-anchor: middle; visibility: inherit; font-family: Roboto, sans-serif; font-size: 12px; font-weight: 200;" fill="rgb(33, 33, 33)" stroke="none" stroke-width="1px">160k</text><text x="866.0055736492238" y="0" dx="0em" dy="0.95em" style="text-anchor: middle; visibility: inherit; font-family: Roboto, sans-serif; font-size: 12px; font-weight: 200;" fill="rgb(33, 33, 33)" stroke="none" stroke-width="1px">180k</text><text x="963.076520097883" y="0" dx="0em" dy="0.95em" style="text-anchor: middle; visibility: inherit; font-family: Roboto, sans-serif; font-size: 12px; font-weight: 200;" fill="rgb(33, 33, 33)" stroke="none" stroke-width="1px">200k</text><text x="1060.147466546542" y="0" dx="0em" dy="0.95em" style="text-anchor: middle; visibility: inherit; font-family: Roboto, sans-serif; font-size: 12px; font-weight: 200;" fill="rgb(33, 33, 33)" stroke="none" stroke-width="1px">220k</text><text x="1157.2184129952009" y="0" dx="0em" dy="0.95em" style="text-anchor: middle; visibility: inherit; font-family: Roboto, sans-serif; font-size: 12px; font-weight: 200;" fill="rgb(33, 33, 33)" stroke="none" stroke-width="1px">240k</text><text x="1254.2893594438601" y="0" dx="0em" dy="0.95em" style="text-anchor: middle; visibility: inherit; font-family: Roboto, sans-serif; font-size: 12px; font-weight: 200;" fill="rgb(33, 33, 33)" stroke="none" stroke-width="1px">260k</text><text x="1351.3603058925191" y="0" dx="0em" dy="0.95em" style="text-anchor: middle; visibility: inherit; font-family: Roboto, sans-serif; font-size: 12px; font-weight: 200;" fill="rgb(33, 33, 33)" stroke="none" stroke-width="1px">280k</text></g><line x1="0" y1="0" x2="1425.21875" y2="0" fill="rgb(0, 0, 0)" stroke="rgb(204, 204, 204)" stroke-width="1px"></line></g></g></g></g></svg>