<?xml version="1.0" encoding="UTF-8" standalone="no"?>
<svg
   viewBox="0 0 1456 400"
   version="1.1"
   id="svg2542"
   sodipodi:docname="32_1nn_none_step.svg"
   xml:space="preserve"
   inkscape:export-filename="../fc69c98a/32_1nn_108_none.png"
   inkscape:export-xdpi="96"
   inkscape:export-ydpi="96"
   inkscape:version="1.2.1 (0f2f062aeb, 2022-09-21, custom)"
   xmlns:inkscape="http://www.inkscape.org/namespaces/inkscape"
   xmlns:sodipodi="http://sodipodi.sourceforge.net/DTD/sodipodi-0.dtd"
   xmlns="http://www.w3.org/2000/svg"
   xmlns:svg="http://www.w3.org/2000/svg"><defs
     id="defs2546"><clipPath
       clipPathUnits="userSpaceOnUse"
       id="clipPath4603"><rect
         style="fill:#0000ff;fill-rule:evenodd"
         id="rect4605"
         width="609.15582"
         height="398.81827"
         x="5.5008397"
         y="0.25928861" /></clipPath><clipPath
       clipPathUnits="userSpaceOnUse"
       id="clipPath4613"><rect
         style="fill:#0000ff;fill-rule:evenodd"
         id="rect4615"
         width="622.56775"
         height="404.40463"
         x="386.22134"
         y="-2.37062" /></clipPath><clipPath
       clipPathUnits="userSpaceOnUse"
       id="clipPath5063"><rect
         style="fill:#0000ff;fill-rule:evenodd"
         id="rect5065"
         width="653.60815"
         height="417.70096"
         x="15.588161"
         y="-6.4551635" /></clipPath></defs><sodipodi:namedview
     id="namedview2544"
     pagecolor="#505050"
     bordercolor="#ffffff"
     borderopacity="1"
     inkscape:showpageshadow="0"
     inkscape:pageopacity="0"
     inkscape:pagecheckerboard="1"
     inkscape:deskcolor="#505050"
     showgrid="false"
     inkscape:zoom="0.71477391"
     inkscape:cx="770.87313"
     inkscape:cy="343.46525"
     inkscape:window-width="1878"
     inkscape:window-height="1016"
     inkscape:window-x="42"
     inkscape:window-y="27"
     inkscape:window-maximized="1"
     inkscape:current-layer="svg2542" /><rect
     style="fill:#ffffff;fill-opacity:1;fill-rule:evenodd;stroke-width:1.02915"
     id="rect4235"
     width="1418.1698"
     height="526.49976"
     x="42.921566"
     y="557.63165" /><g
     id="g2540"
     clip-path="url(#clipPath4603)"
     transform="translate(67.298528,36.266019)"><g
       id="g2538"><g
         id="g2406"><g
           id="g2404"><g
             id="g2382"><line
               x1="30.78125"
               y1="352.34491"
               x2="25.78125"
               y2="352.34491"
               style="visibility:inherit"
               fill="#000000"
               stroke="#cccccc"
               stroke-width="1px"
               id="line2366" /><line
               x1="30.78125"
               y1="306.1257"
               x2="25.78125"
               y2="306.1257"
               style="visibility:inherit"
               fill="#000000"
               stroke="#cccccc"
               stroke-width="1px"
               id="line2368" /><line
               x1="30.78125"
               y1="259.90649"
               x2="25.78125"
               y2="259.90649"
               style="visibility:inherit"
               fill="#000000"
               stroke="#cccccc"
               stroke-width="1px"
               id="line2370" /><line
               x1="30.78125"
               y1="213.68727"
               x2="25.78125"
               y2="213.68727"
               style="visibility:inherit"
               fill="#000000"
               stroke="#cccccc"
               stroke-width="1px"
               id="line2372" /><line
               x1="30.78125"
               y1="167.46806"
               x2="25.78125"
               y2="167.46806"
               style="visibility:inherit"
               fill="#000000"
               stroke="#cccccc"
               stroke-width="1px"
               id="line2374" /><line
               x1="30.78125"
               y1="121.24886"
               x2="25.78125"
               y2="121.24886"
               style="visibility:inherit"
               fill="#000000"
               stroke="#cccccc"
               stroke-width="1px"
               id="line2376" /><line
               x1="30.78125"
               y1="75.029648"
               x2="25.78125"
               y2="75.029648"
               style="visibility:inherit"
               fill="#000000"
               stroke="#cccccc"
               stroke-width="1px"
               id="line2378" /><line
               x1="30.78125"
               y1="28.810436"
               x2="25.78125"
               y2="28.810436"
               style="visibility:inherit"
               fill="#000000"
               stroke="#cccccc"
               stroke-width="1px"
               id="line2380" /></g><g
             transform="translate(20.78125)"
             id="g2400"><text
               x="0"
               y="352.34491"
               dx="0em"
               dy="0.30000001em"
               style="font-weight:200;font-size:12px;font-family:Roboto, sans-serif;text-anchor:end;visibility:inherit"
               fill="#212121"
               stroke="none"
               stroke-width="1px"
               id="text2384">14</text><text
               x="0"
               y="306.1257"
               dx="0em"
               dy="0.30000001em"
               style="font-weight:200;font-size:12px;font-family:Roboto, sans-serif;text-anchor:end;visibility:inherit"
               fill="#212121"
               stroke="none"
               stroke-width="1px"
               id="text2386">15</text><text
               x="0"
               y="259.90649"
               dx="0em"
               dy="0.30000001em"
               style="font-weight:200;font-size:12px;font-family:Roboto, sans-serif;text-anchor:end;visibility:inherit"
               fill="#212121"
               stroke="none"
               stroke-width="1px"
               id="text2388">16</text><text
               x="0"
               y="213.68727"
               dx="0em"
               dy="0.30000001em"
               style="font-weight:200;font-size:12px;font-family:Roboto, sans-serif;text-anchor:end;visibility:inherit"
               fill="#212121"
               stroke="none"
               stroke-width="1px"
               id="text2390">17</text><text
               x="0"
               y="167.46806"
               dx="0em"
               dy="0.30000001em"
               style="font-weight:200;font-size:12px;font-family:Roboto, sans-serif;text-anchor:end;visibility:inherit"
               fill="#212121"
               stroke="none"
               stroke-width="1px"
               id="text2392">18</text><text
               x="0"
               y="121.24886"
               dx="0em"
               dy="0.30000001em"
               style="font-weight:200;font-size:12px;font-family:Roboto, sans-serif;text-anchor:end;visibility:inherit"
               fill="#212121"
               stroke="none"
               stroke-width="1px"
               id="text2394">19</text><text
               x="0"
               y="75.029648"
               dx="0em"
               dy="0.30000001em"
               style="font-weight:200;font-size:12px;font-family:Roboto, sans-serif;text-anchor:end;visibility:inherit"
               fill="#212121"
               stroke="none"
               stroke-width="1px"
               id="text2396">20</text><text
               x="0"
               y="28.810436"
               dx="0em"
               dy="0.30000001em"
               style="font-weight:200;font-size:12px;font-family:Roboto, sans-serif;text-anchor:end;visibility:inherit"
               fill="#212121"
               stroke="none"
               stroke-width="1px"
               id="text2398">21</text></g><line
             x1="30.78125"
             y1="0"
             x2="30.78125"
             y2="377"
             fill="#000000"
             stroke="#cccccc"
             stroke-width="1px"
             id="line2402" /></g></g><g
         transform="translate(30)"
         clip-path="url(#clip_0)"
         id="g2487"><clipPath
           id="clip_0"><rect
             width="1425"
             height="377"
             id="rect2408"
             x="0"
             y="0" /></clipPath><g
           id="g2451"><g
             id="g2449"><g
               id="g2429"><line
                 x1="2.9346037"
                 y1="0"
                 x2="2.9346037"
                 y2="377"
                 fill="#000000"
                 stroke="#424242"
                 stroke-width="1px"
                 opacity="0.25"
                 id="line2411" /><line
                 x1="177.66269"
                 y1="0"
                 x2="177.66269"
                 y2="377"
                 fill="#000000"
                 stroke="#424242"
                 stroke-width="1px"
                 opacity="0.25"
                 id="line2413" /><line
                 x1="352.39075"
                 y1="0"
                 x2="352.39075"
                 y2="377"
                 fill="#000000"
                 stroke="#424242"
                 stroke-width="1px"
                 opacity="0.25"
                 id="line2415" /><line
                 x1="527.11884"
                 y1="0"
                 x2="527.11884"
                 y2="377"
                 fill="#000000"
                 stroke="#424242"
                 stroke-width="1px"
                 opacity="0.25"
                 id="line2417" /><line
                 x1="701.84692"
                 y1="0"
                 x2="701.84692"
                 y2="377"
                 fill="#000000"
                 stroke="#424242"
                 stroke-width="1px"
                 opacity="0.25"
                 id="line2419" /><line
                 x1="876.57501"
                 y1="0"
                 x2="876.57501"
                 y2="377"
                 fill="#000000"
                 stroke="#424242"
                 stroke-width="1px"
                 opacity="0.25"
                 id="line2421" /><line
                 x1="1051.3031"
                 y1="0"
                 x2="1051.3031"
                 y2="377"
                 fill="#000000"
                 stroke="#424242"
                 stroke-width="1px"
                 opacity="0.25"
                 id="line2423" /><line
                 x1="1226.0311"
                 y1="0"
                 x2="1226.0311"
                 y2="377"
                 fill="#000000"
                 stroke="#424242"
                 stroke-width="1px"
                 opacity="0.25"
                 id="line2425" /><line
                 x1="1400.7593"
                 y1="0"
                 x2="1400.7593"
                 y2="377"
                 fill="#000000"
                 stroke="#424242"
                 stroke-width="1px"
                 opacity="0.25"
                 id="line2427" /></g><g
               id="g2447"><line
                 x1="0"
                 y1="352.34491"
                 x2="1425.2188"
                 y2="352.34491"
                 fill="#000000"
                 stroke="#424242"
                 stroke-width="1px"
                 opacity="0.25"
                 id="line2431" /><line
                 x1="0"
                 y1="306.1257"
                 x2="1425.2188"
                 y2="306.1257"
                 fill="#000000"
                 stroke="#424242"
                 stroke-width="1px"
                 opacity="0.25"
                 id="line2433" /><line
                 x1="0"
                 y1="259.90649"
                 x2="1425.2188"
                 y2="259.90649"
                 fill="#000000"
                 stroke="#424242"
                 stroke-width="1px"
                 opacity="0.25"
                 id="line2435" /><line
                 x1="0"
                 y1="213.68727"
                 x2="1425.2188"
                 y2="213.68727"
                 fill="#000000"
                 stroke="#424242"
                 stroke-width="1px"
                 opacity="0.25"
                 id="line2437" /><line
                 x1="0"
                 y1="167.46806"
                 x2="1425.2188"
                 y2="167.46806"
                 fill="#000000"
                 stroke="#424242"
                 stroke-width="1px"
                 opacity="0.25"
                 id="line2439" /><line
                 x1="0"
                 y1="121.24886"
                 x2="1425.2188"
                 y2="121.24886"
                 fill="#000000"
                 stroke="#424242"
                 stroke-width="1px"
                 opacity="0.25"
                 id="line2441" /><line
                 x1="0"
                 y1="75.029648"
                 x2="1425.2188"
                 y2="75.029648"
                 fill="#000000"
                 stroke="#424242"
                 stroke-width="1px"
                 opacity="0.25"
                 id="line2443" /><line
                 x1="0"
                 y1="28.810436"
                 x2="1425.2188"
                 y2="28.810436"
                 fill="#000000"
                 stroke="#424242"
                 stroke-width="1px"
                 opacity="0.25"
                 id="line2445" /></g></g></g><g
           id="g2457"><g
             id="g2455"><line
               x1="0"
               y1="999.41388"
               x2="1425.2188"
               y2="999.41388"
               fill="#000000"
               stroke="#999999"
               stroke-width="1.5px"
               id="line2453" /></g></g><g
           id="g2463"><g
             id="g2461"><line
               x1="2.9346037"
               y1="0"
               x2="2.9346037"
               y2="377"
               fill="#000000"
               stroke="#999999"
               stroke-width="1.5px"
               id="line2459" /></g></g><g
           id="g2485"><g
             id="g2473"><g
               id="g2471"><g
                 id="g2469"><g
                   id="g2467"><path
                     stroke="#0077bb"
                     stroke-width="2px"
                     d="m 10.187566,444.01615 0.66222,-164.619 0.214915,-13.25166 0.207927,-50.55669 0.454293,-99.82325 0.716385,-5.8377 0.03495,-34.212242 0.387897,-0.04067 0.880629,33.629012 2.986103,15.3617 0.204432,-23.50239 0.532921,-67.947081 0.169486,38.011934 0.566119,2.198834 1.366373,31.236183 0.05766,34.35032 0.08038,1.10815 0.284806,6.2286 0.307522,-41.06251 0.340719,29.64955 0.62378,22.9835 0.232388,10.9066 0.410611,4.35744 0.193948,12.63205 0.452546,18.79866 1.032643,15.03809 0.162497,10.28314 0.04892,-44.95997 0.265587,0.76961 3.242953,7.97679 1.231833,-3.0256 0.365181,12.07204 1.121755,-5.35058 0.03145,5.87435 0.580097,14.19282 0.0629,6.21288 0.615043,11.08047 0.138035,4.57175 0.290049,10.29552 0.394885,8.90913 0.269081,12.34159 0.04892,-29.95253 0.61679,10.40269 0.730364,-4.30897 0.214915,-29.63457 0.642999,6.83659 1.700105,-18.85531 0.221904,9.32142 0.499723,-38.54951 0.0297,-21.92227 0.377413,1.02039 0.629021,9.57417 1.144469,10.03368 0.344214,10.47167 1.036138,10.88949 0.279565,-29.08542 0.0332,8.68481 0.0664,6.28688 0.37916,8.91281 0.35994,11.4259 0.358192,0.16615 0.05417,6.22775 1.004686,-13.89529 0.863157,-4.98366 0.02271,-17.80223 0.676197,3.77115 0.176476,-38.62162 0.0035,6.01692 0.08736,-0.29411 0.445557,7.6196 0.386149,6.22728 0.300532,-24.80124 0.221905,3.38324 1.930745,6.78173 0.0332,1.45968 2.17886,-3.11004 0.480502,3.68958 1.097292,1.94141 0.07863,-5.232 0.585339,7.36338 1.193393,-1.3883 1.188151,7.13998 0.169486,1.72871 0.373918,5.3329 0.646494,-5.07903 2.708285,3.69372 0.10309,6.14016 0.791518,2.51534 0.221904,0.97934 0.515448,-3.45153 0.178223,-19.40248 1.736797,-8.91935 1.133985,6.50065 1.479947,5.90231 0.04718,5.321 0.01398,4.29261 0.124057,-4.51574 0.543404,4.21871 0.30228,-4.88484 0.246366,-9.26859 0.450799,-8.6564 0.461282,6.45014 0.71988,6.77085 1.319197,4.92145 0.07513,-9.74342 0.651735,-5.74648 0.118815,4.89768 0.06465,-4.3909 0.06465,5.64496 0.05242,6.37351 0.05766,6.26717 1.499167,0.89375 1.320944,2.48803 0.857915,-1.5441 0.228894,1.2538 2.226035,-12.92005 0.688429,-3.73939 1.151458,-2.51839 0.496228,3.28866 0.127551,-0.57955 0.277818,4.35592 0.980224,-13.01846 3.616872,-13.9417 0.110078,4.44534 0.101343,2.16867 0.629021,-15.42302 0.581844,0.42649 0.304027,-3.90976 0.05591,2.95651 0.08038,5.04984 0.148519,5.68483 1.023906,4.90149 0.611549,-10.17385 0.9313,2.45025 0.007,5.17192 0.115321,2.0201 0.242872,4.71305 0.618537,-16.97902 0.449052,5.75046 0.318005,5.67315 0.817727,0.62244 0.428084,3.91043 1.341912,2.2208 0.8352,4.14553 0.124057,1.82583 0.255103,2.12398 0.0297,2.0967 0.651736,-1.4276 0.0297,-16.26612 0.283059,-4.11908 0.351204,2.494 0.470018,4.63758 1.873085,3.96242 0.03145,3.9137 1.04138,2.64416 1.783968,3.52321 0.30752,4.68881 0.0192,1.02803 0.0524,-1.67285 0.53467,0.42677 2.61393,-4.60187 0.13279,1.03658 0.82123,3.36333 0.76705,2.45193 0.12755,3.29151 0.0647,-2.7892 0.81424,3.25416 0.24986,4.07164 0.76531,2.04252 0.22365,0.89212 1.43801,-3.32454 0.23763,-0.7764 0.27607,3.39669 0.97848,2.53071 1.65293,3.05289 0.45254,4.11391 0.8684,4.61394 0.21666,-2.20724 0.66746,-4.87927 0.0856,3.75687 0.2918,2.6493 1.06759,3.68431 0.8352,-0.0565 0.72162,-0.31915 0.60456,0.47008 0.5766,3.07289 0.0542,1.74363 0.0332,2.50098 0.37042,-2.66808 0.69542,2.22314 0.86141,3.22028 0.0315,-1.88616 0.69891,-2.87775 0.43508,2.17986 0.45429,-2.84852 0.80375,-0.32817 0.12405,1.90843 0.41062,2.137 0.12405,0.39433 1.06934,3.32993 1.44325,3.78589 0.70416,-6.45028 0.5137,2.07491 0.11532,0.61049 0.0367,2.04357 0.18347,-1.07994 0.0804,2.73509 0.11183,3.6571 0.95925,2.91585 0.0507,2.41932 0.74435,3.333 0.0262,2.83673 0.37566,-3.68647 0.35819,-2.72876 0.89985,1.89979 0.10135,3.71717 0.65173,-7.27846 0.17997,1.43059 0.49623,2.7776 0.78453,1.85035 0.40187,-14.57969 0.35994,0.55389 2.29418,1.21847 0.0786,1.65251 0.24986,0.30974 0.10134,0.0865 0.23938,3.38223 0.0874,1.38307 0.8055,0.28077 0.71813,1.79963 0.92257,2.2176 1.75776,-9.23418 1.44151,-0.34519 0.0524,-0.77065 0.29529,2.22299 0.8317,-4.59872 0.19919,1.15869 0.89985,2.83797 0.55564,3.23565 0.26733,-1.19196 0.11008,-6.8215 1.07108,1.14185 0.56438,-0.31904 0.36343,1.75026 0.11008,0.50064 0.24986,-4.63462 0.44556,3.37917 0.0769,2.12964 0.53641,1.50356 0.325,0.68201 0.58533,3.09819 1.61799,-0.54568 1.65991,0.0598 0.13979,1.258 0.009,2.04486 0.18347,-0.74902 0.73735,-2.52359 0.27782,-0.73016 1.65642,2.22303 0.643,0.44351 0.0454,1.61168 0.13629,-4.43344 0.23413,-5.17663 0.38266,-0.30405 0.12231,1.62581 1.13223,0.0767 0.0315,0.84233 0.0978,1.79094 1.6407,-6.59753 3.55047,-0.66736 0.15551,1.41835 0.0227,0.46524 0.35644,2.71805 0.53816,2.69872 1.23184,2.11898 0.0542,0.42734 1.31046,1.91021 0.84569,-5.13989 2.92844,-1.04228 0.12056,-3.79607 0.009,1.73597 0.24637,0.80905 0.0926,-3.93994 0.0594,2.99946 0.0891,1.89069 0.16424,2.42029 1.1899,-0.66155 0.35994,1.50047 0.1922,0.59395 0.63776,2.37756 0.20443,-1.91642 0.42983,2.53998 0.0821,0.21893 0.28131,0.74768 1.83464,2.68138 0.20443,-0.49977 1.60051,2.83336 0.19395,2.46522 0.12056,0.18343 0.18172,2.44163 0.24462,-2.25393 1.21261,-0.68371 0.31801,-10.677 0.52942,2.11276 1.43976,0.89911 0.29005,1.74824 0.0315,1.56657 0.002,1.21649 0.16425,0.36075 0.7356,2.05 0.64649,0.51874 0.70765,2.53457 1.06584,-4.3617 0.29005,-0.48485 0.22191,0.35285 2.06004,1.18317 0.0699,1.50798 0.61505,0.3392 2.36581,-3.29757 2.46367,1.99589 0.5469,1.81932 0.3215,1.64428 0.65173,1.79782 0.37392,-4.24843 0.12755,-0.48051 0.79851,1.95683 0.50322,1.94508 0.61854,0.31856 0.39663,0.47774 0.028,1.27833 0.27782,2.23246 0.27258,1.73957 0.6395,0.29378 0.40013,-0.66262 0.62553,-0.34128 0.24287,0.92742 0.45254,0.76406 0.13455,0.75961 0.40362,-0.34517 1.45548,1.0682 2.05655,1.68781 0.87364,0.11737 1.28251,1.05091 0.0262,-0.66378 0.0175,1.81951 0.62203,1.65454 0.24637,1.64515 0.72337,1.9436 0.63077,1.165 1.04313,0.39259 1.43801,0.69602 2.49162,1.30198 0.49798,-1.59548 0.45429,1.7523 0.0978,-8.25127 0.83694,1.31234 1.81368,0.70215 0.41411,0.99907 0.16249,1.29369 1.13748,-0.36033 0.11532,0.0898 1.07458,0.98363 0.44381,1.42445 0.13978,1.71352 0.81249,0.96391 2.0251,1.84516 0.10134,-0.67086 0.0769,-0.0789 0.0245,1.82961 0.17822,-3.45258 0.20793,1.38841 0.87015,1.8185 0.10134,1.66335 0.45604,1.21897 0.77929,-0.96078 0.59582,1.79128 0.41935,0.19489 0.14677,1.34561 1.77174,-5.70091 0.14677,1.78353 0.0157,-0.65775 0.0804,-7.36411 0.1293,-4.04941 0.35994,-0.47435 0.18172,0.66307 0.13629,-4.57878 0.26384,1.23746 0.33547,0.24416 0.74435,0.94647 0.64998,2.06505 0.1328,1.63417 0.65523,0.92664 0.0909,-1.45072 0.42983,0.92449 0.75657,1.75391 2.71003,-1.02949 0.18521,-0.47053 0.25161,0.91359 0.0647,-2.12482 0.802,0.91358 0.68669,0.63434 0.19919,1.45374 1.46422,0.89931 0.23588,0.62179 0.91557,1.16388 0.014,-7.00301 2.3501,0.49773 0.0384,-0.18215 0.21316,1.17105 0.29879,-1.26412 0.318,0.0891 0.20094,0.62652 0.12056,1.96552 0.68494,1.68819 0.25161,-1.52849 1.79795,0.61383 0.60805,1.54323 0.26209,0.73826 0.0437,0.0713 1.79445,1.66027 1.35589,1.12366 0.50497,0.32666 0.14327,1.77388 0.0996,-0.60074 1.34191,-1.25404 0.55389,-0.98622 0.5766,0.97946 0.53292,1.36641 0.25685,0.83901 0.12406,-1.89541 0.95926,0.83894 0.003,0.96464 0.56437,1.60681 1.04662,-0.0787 0.40712,1.33908 1.34017,1.84749 0.41934,1.19705 0.4508,1.70431 0.57311,0.54506 0.0594,1.18118 0.0681,0.41088 0.42808,-0.48188 0.0315,-1.49611 0.0105,-0.60159 0.56088,-0.21909 0.42284,1.04577 1.07283,0.53643 0.0943,1.41569 1.16893,0.40354 0.71813,0.52726 0.24113,0.65024 2.05131,-2.47985 0.16075,-2.59379 0.13803,-1.08644 0.0507,1.15847 0.27957,1.40187 0.5102,-1.20892 0.67271,-4.79454 1.18465,-1.31243 0.15376,1.6551 0.24637,-0.56974 0.002,1.2777 0.0699,1.1494 0.50322,1.38963 0.30927,-0.32979 0.95576,1.01569 0.0611,0.0354 0.34596,1.74032 0.12581,1.61131 0.41236,1.36167 0.19569,-1.43157 0.0996,1.47845 0.15201,1.35138 0.30403,-0.58404 0.0227,0.74298 0.27957,1.5814 0.2883,1.57476 0.47176,1.08882 1.66516,0.12709 0.0419,0.007 0.2586,1.55756 0.11532,0.24121 0.61504,-0.35424 0.20618,-1.18373 0.10309,0.12489 1.22135,0.12437 0.13104,0.36016 0.69018,-0.34913 0.94702,-5.05905 0.25336,1.66496 0.45604,1.18847 0.0332,0.94915 2.06878,0.59411 0.40013,1.40986 0.13803,0.35383 0.28131,0.8185 0.0192,1.28059 0.2289,-0.35098 0.20618,1.39038 0.5766,0.80569 0.0909,0.91811 0.22365,0.45255 0.39663,1.60374 0.0297,-4.38933 0.007,1.03111 0.0384,-1.61307 0.29529,-0.46052 1.26328,1.14357 0.1957,1.48188 1.80668,1.59016 0.32325,-1.72044 1.49218,0.44806 0.46827,-1.59868 0.34421,1.2437 0.25685,0.55916 0.60806,-2.83651 0.0245,-2.82546 0.2918,-0.6715 0.3512,1.58366 1.10952,1.57753 0.70765,-1.12388 0.31975,0.45047 0.0507,-1.67897 0.0594,-1.11339 0.11882,-1.89079 0.44905,-1.32601 0.34596,1.3515 0.3844,0.90156 0.27083,-1.54473 0.16949,-0.31913 0.27607,1.12154 0.43857,0.56443 0.0629,-0.21065 1.60575,0.89282 0.14852,-3.73537 0.82646,0.3473 0.24287,1.22449 0.18871,0.78126 1.04837,-0.20725 1.31395,1.32457 0.0874,1.53805 3.4666,-1.08517 0.0192,-2.06138 0.4211,-0.74853 0.60106,1.20941 0.1293,-0.74759 0.0437,1.31339 0.4508,0.76765 1.85212,-4.2049 1.14621,1.20519 0.16425,-2.78595 0.0489,-4.28225 4.9186,-2.86959 0.18172,-3.28841 0.42109,1.54664 0.20443,0.57767 0.15551,1.32385 0.42808,1.53258 1.28251,0.6741 0.58359,1.41702 1.26328,-3.47974 0.17124,1.41807 0.58009,0.7766 0.71464,0.77381 0.22016,0.77104 0.60106,1.08524 1.11127,0.87034 0.2621,-1.24043 1.13223,0.44797 0.0472,-0.70989 0.55214,-0.0775 0.53118,0.23733 0.95401,-1.33423 0.89286,0.8667 0.46478,-1.22535 0.67794,0.13509 0.45779,-3.40776 0.9977,1.49487 0.21841,-0.79675 0.58534,0.76299 1.16718,1.07133 0.64999,1.27469 1.35065,1.47708 0.77055,-6.58419 0.21142,-0.0625 0.9313,1.48314 0.20268,-1.30036 0.48575,0.65689 0.99595,-1.29575 1.15495,1.0668 0.3844,0.96075 0.16774,1.162 0.16425,0.1365 0.002,1.25836 0.0996,1.05025 0.19569,0.74132 0.21667,1.34877 1.12699,-2.41278 0.17298,-3.52022 0.33199,-0.46937 0.73385,-0.16425 0.75832,-4.50914 0.59757,1.15852 0.69193,0.65055 0.23763,0.84975 0.31451,-5.2885 0.0786,1.25926 0.23064,1.1547 0.23937,-0.15211 0.52069,1.55027 1.51664,-1.15471 1.29299,0.74679 0.22365,0.54479 0.20793,1.14086 0.0384,0.24132 1.32269,1.33409 0.32325,-0.15984 0.0245,0.63419 0.98197,1.32563 0.55389,0.82647 0.39314,0.92261 0.0297,1.41327 0.26384,0.61966 0.20968,-0.17046 0.15725,-0.36671 0.0315,0.22422 0.0996,1.00893 0.0105,0.61338 0.0192,1.39507 0.11357,-0.17505 0.22016,0.80293 0.0926,1.19087 0.57136,1.28455 0.44031,0.79335 0.16774,0.40156 0.32849,-0.86332 0.18172,0.49875 0.39314,0.98208 0.159,1.07582 0.26034,0.008 2.92495,0.68453 0.60631,1.06861 0.92606,1.25813 0.81073,0.67602 1.11652,0.57764 0.74084,-0.9625 0.23239,0.19303 1.14797,0.95992 0.003,1.24439 0.44905,-2.30157 0.39663,0.38326 0.57311,-5e-5 0.028,1.3359 0.0804,-1.71863 0.17997,0.85774 1.60925,0.75995 0.0577,-0.9528 1.17941,-2.27872 1.42404,0.47815 0.67095,-0.18638 0.35994,0.76042 0.0349,0.94711 0.26908,1.03861 0.0699,-0.56813 0.11707,1.12972 0.31451,-0.003 0.33373,-0.66153 0.22365,1.2192 0.23064,1.21547 2.01462,1.02427 0.13978,1.20844 0.40712,0.0821 0.29529,0.17536 1.18291,1.20177 0.8352,-2.8122 0.11532,0.27088 0.34596,0.82851 1.04837,-0.75465 0.2883,-4.37491 0.014,0.83463 2.23477,0.18323 0.0122,-2.9659 0.79851,0.37346 0.8981,0.18749 0.0594,0.7409 0.17123,8e-4 0.43507,-1.01279 0.31102,0.18692 2.48813,0.002 0.27607,-0.64066 0.26209,0.18726 0.31801,0.92022 0.22015,1.10068 0.79851,-6.8e-4 0.11008,0.91352 0.39663,0.45417 0.5172,-0.73331 0.1293,-1.82499 0.64998,0.63912 0.29704,0.54626 0.31801,0.72644 0.87364,0.36111 0.19744,1.35789 1.67389,1.35392 0.0367,0.2635 0.57485,-0.0991 0.48575,0.80487 1.26852,-1.27388 1.50441,1.34541 0.26209,0.80087 0.85093,-4.24266 0.0926,-2.61154 0.53991,0.54081 0.21491,1.16761 0.0839,0.62616 0.17473,-0.18203 0.0909,0.26607 0.8981,0.62302 1.06584,0.53189 0.4508,0.44111 1.14097,-2.68147 0.17473,-0.80276 0.1922,-1.5126 0.0437,1.1597 0.26559,1.3341 0.61504,-1.15522 0.32325,-0.53113 0.0419,-1.23846 1.27376,0.62405 0.002,0.88762 0.95052,1.32692 0.36518,-1.237 0.34946,0.44231 1.11651,1.14605 0.021,-0.1778 0.0437,0.61436 0.89111,0.0853 2.95466,1.05095 0.67445,-0.96968 0.4176,-0.61638 0.25335,0.61129 0.27957,0.69708 0.23588,0.95737 2.83758,-0.26796 0.44381,1.04162 0.009,0.7772 0.25336,-2.53481 0.11182,0.60508 0.23064,1.03815 0.46303,-2.52643 0.49099,0.51835 0.43158,0.17005 0.25859,0.60279 0.82647,0.42801 0.59058,-0.17861 0.1258,1.29095 1.88357,-1.82086 0.28131,-2.16094 0.0105,0.0859 1.51489,-2.75616 1.44151,0.7791 0.3512,0.86295 0.94353,-0.0842 0.0577,0.86002 0.11357,0.68619 0.0192,0.85569 0.25336,1.19578 1.1864,0.59384 0.57661,0.33588 0.36343,1.1888 0.003,1.27092 0.93829,0.8413 1.11651,0.92421 0.0856,1.00682 0.2289,-2.3118 0.12406,-0.0969 0.95576,1.17663 0.48399,0.495 0.34946,-0.0995 1.8626,0.40878 0.22715,-0.0999 0.12406,0.15395 0.11007,1.16705 0.28656,0.91079 0.9977,-3.13894 0.56961,-1.10864 0.11183,0.57789 1.55857,0.7446 0.91907,0.82667 1.97617,1.07641 1.36114,-0.185 0.0157,-0.18451 0.28481,-1.10548 0.99071,0.73884 0.61853,0.0678 1.42578,-0.18304 0.0245,0.40193 0.72337,0.73459 0.5137,0.39923 0.14153,0.73137 0.32849,1.14562 0.0402,-0.60378 0.97149,1.14281 0.47351,1.22288 0.70415,0.97081 1.51664,-0.10937 0.0944,1.1334 0.51894,0.96494 0.40013,-3.25534 1.52887,-2.0074 0.13628,1.21805 0.36693,-0.43521 0.62204,0.143 2.00413,0.9664 0.18696,0.47005 0.32149,0.88009 0.48051,0.79565 1.75601,0.62938 0.8387,0.62777 1.06235,-2.57156 0.27257,1.20376 0.0245,0.30016 0.035,0.95383 1.42054,-1.99125 0.0681,0.70916 0.23763,-1.00655 0.16599,0.21928 1.85037,0.70768 0.23589,-0.51554 0.68318,0.78762 0.005,0.37912 0.19919,-0.27178 1.03613,-1.16409 0.13105,1.19131 0.0856,0.94515 0.98022,0.94278 0.16075,-0.35457 0.1258,0.85946 0.91907,0.2916 1.36114,0.0486 0.63775,-1.32332 2.01462,0.21203 2.088,-1.31941 0.0594,1.17982 0.13454,0.53325 0.85791,-0.11124 1.00993,1.01375 1.29124,1.01124 0.32325,-0.19453 0.0349,0.84802 0.0577,-0.11528 1.30173,0.84551 0.24287,-0.9162 0.34247,-0.27455 0.43856,1.16372 0.15027,-0.35549 1.63546,0.84163 0.42633,0.83957 0.58185,-0.1181 0.31276,0.75753 0.99944,0.11953 0.0489,0.35762 0.66746,0.992 1.40307,0.43414 0.53641,0.75025 0.18172,-2.65866 0.98197,0.91081 0.0437,0.59211 0.59408,0.74881 0.82646,-0.0431 0.92781,1.14131 0.52418,0.66516 0.18696,0.58472 0.71813,0.74088 0.56263,-0.0482 1.27901,0.10926 0.29878,1.13105 0.39489,0.89265 1.20213,-1.15075 0.88063,-2.24637 0.35469,0.97343 0.0629,-4.27808 0.75307,-1.37107 0.12581,-0.42896 1.0938,1.05755 0.10483,0.66438 0.24986,0.89703 0.30403,-0.66553 0.21492,0.19369 1.7036,0.89446 0.68493,0.97021 2.54928,0.0342 0.014,0.50066 0.0926,-1.44305 0.15376,1.0451 0.96275,0.49946 2.61568,-2.06063 0.89635,-1.28087 1.61274,1.12271 0.20094,0.73316 1.36463,0.96343 0.88412,0.72933 0.22889,0.49593 0.10135,0.7263 0.56961,1.11024 0.25685,1.03057 0.71289,0.64305 0.75657,0.64155 0.57136,-0.97529 0.41935,-0.35806 0.1957,0.10369 0.56437,0.18022 0.0804,1.10041 5.29776,0.63785 0.9942,0.32991 0.13629,-0.35994 0.21492,0.78862 0.20967,-0.13078 0.0245,-0.0541 0.45604,1.01517 0.0769,-0.81874 0.0454,0.78473 0.22016,0.78293 0.77754,0.78113 0.31626,-0.13408 0.0839,0.39871 1.13223,0.3978 0.53991,0.92868 0.54865,0.62287 1.03614,0.31796 0.0105,-0.74431 1.43277,0.84868 0.007,-0.44062 0.0839,0.61989 0.63601,0.0134 0.0489,0.4669 0.0315,0.76798 0.65523,0.61527 0.0559,-3.53529 0.95926,-0.73779 0.18521,-1.33888 0.16249,0.0195 0.0489,0.54618 0.0227,-0.58308 0.63776,0.54556 0.30053,-2.15955 0.11532,0.84774 0.36169,1.07087 0.58709,0.54371 0.0821,0.46756 0.29704,0.99063 0.69891,0.68911 0.54865,0.538 0.45079,-0.21056 1.18815,0.76088 0.51021,0.53525 0.0874,-0.28652 0.34597,0.75785 0.35295,0.97967 0.14327,0.2329 0.0245,-0.1397 0.29004,0.45557 0.59233,0.82618 0.30228,-0.28983 0.39314,0.008 0.0227,0.67543 1.98492,0.007 0.24636,0.15483 0.0367,-0.51202 0.9942,0.74729 0.5434,-4.94972 0.81598,0.53135 0.55564,0.82569 0.0681,0.30704 0.1328,1.04427 0.5731,-0.50667 0.26559,-2.05328 0.9977,0.0873 2.07751,0.82321 0.18871,0.74785 0.52943,0.30505 0.51719,-0.063 0.81948,0.81839 0.18696,-0.0641 0.32848,0.009 0.84045,-0.064 0.58359,-0.50345 0.18521,0.59601 0.96799,0.74108 0.46653,0.81261 0.16424,0.0799"
                     style="fill:none"
                     fill="none"
                     id="path2465" /></g></g></g></g><g
             opacity="0.2"
             id="g2483"><g
               id="g2481"><g
                 id="g2479"><g
                   id="g2477"><path
                     stroke="#0077bb"
                     stroke-width="2px"
                     d="m 6.6073879,491.00254 1.4292757,-184.87684 0.2778177,46.21921 1.2423166,-970.60342 0.4752601,1109.26105 0.155508,-138.65763 0.66222,-1710.11081 0.214915,1479.01476 0.207927,-508.41132 0.454293,-785.72654 0.716385,1201.699435 0.03495,-462.192105 0.387897,508.411316 0.880629,600.849734 3.892942,184.87685 0.566119,-739.50737 1.366373,693.28815 0.05766,138.65764 0.08038,-785.72658 0.284806,138.65763 0.307522,-1294.1379 1.196887,1479.01474 0.410611,-184.87684 0.193948,277.31526 1.69661,-1987.42606 0.265587,1617.67238 3.242953,277.31526 1.231833,-415.972894 0.365181,600.849734 4.169012,92.43842 0.730364,-739.507365 0.214915,-1340.357135 3.094434,231.0961 0.377413,1294.13788 0.629021,508.41131 3.643081,231.09606 0.358192,-739.50737 0.05417,415.97289 2.746725,-46.21921 0.08736,-462.1921 0.445557,600.84973 2.839331,-46.21921 0.0332,-415.97289 2.17886,-369.75369 0.480502,554.63053 1.097292,-138.65763 0.07863,-600.84974 0.585339,1063.04184 1.193393,-739.507365 1.188151,739.507365 0.169486,-462.1921 0.373918,323.53447 4.249387,-231.09605 0.221904,-138.65763 0.515448,-415.9729 9.842433,1016.82264 1.499167,-600.84974 1.320944,184.87684 0.857915,-462.192105 0.228894,323.534475 2.226035,-1663.8916 2.336115,1894.98765 0.127551,-462.192104 0.277818,600.849734 5.437538,-2495.83738 0.581844,1987.42607 0.304027,-554.63053 4.602338,1294.1379 0.817727,-693.28816 0.428084,462.1921 9.409101,184.87685 0.0192,-554.63053 0.0524,-415.9729 0.53467,323.53448 2.61393,-785.72658 0.13279,878.165 0.82123,369.75368 2.78866,-184.87684 0.22365,-184.87684 1.43801,-693.28816 0.23763,415.972895 0.27607,693.288155 6.28148,92.43842 0.8352,-647.06894 0.72162,-46.21921 0.60456,138.65763 0.5766,462.1921 3.63435,-1063.04184 0.80375,462.19211 0.12405,415.97289 0.41062,46.21921 0.12405,-323.53447 1.06934,554.63052 2.66111,-231.09605 0.11532,-277.31526 0.0367,277.31526 6.40553,-3374.00236 0.35994,3096.6871 2.29418,138.65763 0.0786,92.43842 0.24986,-277.31526 0.10134,-46.21921 0.23938,693.28816 0.0874,-415.9729 0.8055,-231.09605 0.71813,323.53447 2.68033,-2357.17976 1.44151,1894.98766 0.0524,-92.438425 0.29529,647.068945 3.93487,-231.09605 0.56438,-323.53447 0.36343,462.1921 0.11008,-277.31526 0.24986,-1155.48027 1.05885,1386.57632 0.325,-184.87684 0.58533,554.63053 1.61799,-831.945794 1.65991,138.657634 0.13979,277.31526 0.009,184.87684 0.18347,-647.068945 0.73735,-415.972895 0.27782,415.972895 1.65642,693.288155 0.643,-415.97289 0.0454,277.31526 0.37042,-1617.67236 0.38266,1155.48026 0.12231,462.1921 1.13223,-369.75368 0.0315,184.87684 1.73855,-1802.54922 3.55047,1432.795535 0.15551,508.411315 0.0227,-231.09605 0.35644,554.63053 1.77,-138.65764 0.0542,-415.97289 1.31046,369.75368 4.55516,138.65763 1.1899,-785.726575 0.35994,554.630525 0.1922,-231.09605 0.63776,462.1921 0.63426,46.21922 0.0821,-600.84974 0.28131,138.65763 1.83464,508.41132 0.20443,-831.945794 1.60051,878.165004 0.19395,-92.43842 0.12056,-600.84974 0.18172,600.84974 0.24462,-1247.91869 1.21261,415.972895 0.31801,-2680.714235 2.29243,3189.12555 0.16425,-231.09605 0.7356,462.1921 0.64649,-415.97289 0.70765,554.63053 1.06584,-1894.98764 0.29005,1063.041846 0.22191,231.096054 2.06004,231.09605 0.0699,92.43842 0.61505,-323.53447 2.36581,-1016.82263 4.35772,-277.31527 0.12755,1063.041846 0.79851,693.288154 h 0.50322 l 0.61854,-462.1921 0.39663,46.21921 0.028,231.09605 0.5504,138.65763 0.6395,-415.97289 0.40013,-277.315265 0.62553,92.438425 0.24287,369.75368 0.58709,-46.21921 0.40362,-323.53447 1.45548,415.97289 2.05655,184.87684 0.87364,-462.1921 1.28251,277.31526 0.0262,-508.411315 0.0175,739.507365 2.22254,-184.87684 1.04313,-231.09605 1.43801,92.43842 6.76896,184.87684 1.13748,-508.41131 0.11532,138.65763 1.07458,277.31526 3.42118,277.31526 0.10134,-785.726575 0.0769,184.876845 0.0245,600.84973 h 3.18879 l 0.41935,-508.41131 0.14677,369.75368 1.91851,138.65763 0.0157,-785.726575 0.0804,-2172.302935 0.1293,1063.0419 0.35994,1155.480246 0.18172,369.753684 0.40013,184.87684 0.33547,-323.53447 0.74435,231.09605 5.4253,-647.06895 0.18521,184.876846 0.25161,462.192104 6.73228,-138.65763 0.0384,-231.09605 0.21316,462.1921 0.29879,-831.94579 0.318,462.19211 0.20094,184.87684 3.7252,46.21921 0.0437,-231.09605 1.79445,554.63052 1.35589,-184.87684 0.50497,-277.31526 0.14327,508.41132 0.0996,-831.945795 1.34191,-231.096055 3.57144,1016.82263 1.04662,-600.84973 0.40712,508.41131 2.91097,-323.53447 0.42808,-323.534474 0.0315,-369.753686 0.0105,323.534475 0.56088,138.657635 0.42284,462.1921 8.49702,231.09606 0.24637,-831.945795 0.002,693.288155 0.57311,46.21921 0.30927,-647.06894 0.95576,508.41131 0.0611,-369.75368 0.34596,647.06895 0.98547,-138.65764 0.30403,-739.507365 0.0227,508.411315 1.03963,138.65763 1.66516,-369.75368 0.0419,-46.21921 0.2586,600.84974 0.11532,-508.41132 0.61504,-231.09605 0.20618,-323.53448 0.10309,508.41132 h 1.22135 l 0.13104,92.43842 0.69018,-277.31526 0.94702,-1848.76846 3.65007,2495.8374 0.2289,-647.06894 0.20618,693.28815 1.36288,-1201.69947 0.29529,462.192106 1.26328,647.068944 9.97872,-1109.26105 0.16949,508.41132 0.27607,600.84973 0.43857,-231.09605 0.0629,-323.53447 1.60575,462.1921 1.40656,-46.21921 1.04837,-415.97289 1.31395,647.06894 22.70941,-878.164996 0.55214,277.315266 0.53118,138.65763 0.95401,-693.28816 1.35764,46.21921 0.67794,600.84974 0.45779,-1571.4532 5.73982,-1432.7955 0.21142,2911.81028 0.9313,693.28816 3.39147,-138.65764 0.16425,-462.1921 0.002,508.41131 1.81193,-2172.30291 0.33199,1386.576335 0.73385,138.657635 0.75832,-1987.42607 2.15091,2588.2758 0.23937,-600.84973 0.52069,785.72658 3.24121,-184.87685 0.0384,-415.97289 1.32269,508.41132 0.32325,-693.28816 0.0245,369.75368 h 2.22254 l 0.20968,-369.75368 0.15725,-92.438424 0.0315,277.315264 0.0996,369.75368 0.0297,184.87685 0.11357,-739.50737 0.22016,462.1921 2.33437,138.65763 0.26034,-508.41131 2.92495,323.53447 4.20046,-785.72658 0.23239,554.63053 1.14797,369.75368 0.84917,-277.31526 0.57311,-184.87684 0.028,647.06895 4.5307,-415.9729 0.67095,-323.53447 0.35994,462.1921 0.49099,184.87684 0.31451,-554.63052 0.33373,-323.534476 2.60869,924.384216 0.40712,-554.63053 0.29529,46.21921 1.18291,508.41132 2.64713,-184.87685 2.23477,-323.53447 0.0122,-1571.45311 0.79851,1663.89153 0.8981,-92.43842 0.0594,277.31526 0.17123,-369.75368 0.43507,-508.41132 0.31102,600.84974 2.48813,-92.43842 0.27607,-323.534476 0.26209,415.972896 0.31801,369.75368 0.22015,92.43842 0.79851,-554.63052 0.11008,462.1921 5.08983,-323.53447 0.57485,-184.87684 0.48575,462.1921 4.81725,-92.43842 0.17473,-415.97289 0.0909,231.09605 9.26932,462.19211 0.021,-693.28816 0.0437,415.97289 0.89111,-277.31526 2.95466,508.41131 1.86085,-46.21921 2.83758,-647.06894 0.44381,693.28815 1.55858,-277.31526 0.43158,-184.87684 0.25859,231.09605 0.82647,-92.43842 0.59058,-323.53447 0.1258,785.72658 2.16488,-1848.76843 0.0105,1201.69948 1.51489,-1525.2339 1.79271,1941.20679 0.94353,-508.41131 0.0577,508.41131 4.8854,-1710.11079 0.12406,1201.69948 0.95576,693.28816 0.48399,-369.75369 0.34946,-323.53447 1.8626,277.31526 0.22715,-277.31526 0.12406,138.65763 0.11007,554.63053 6.41951,-46.21921 1.36114,-693.28816 h 0.0157 l 0.28481,-508.41132 0.99071,1016.82263 0.61853,-369.75368 1.42578,-138.65763 0.0245,323.53447 3.89643,323.53447 1.51664,-600.84973 0.0944,693.28816 2.58422,46.21921 0.36693,-924.384215 0.62204,323.534475 2.00413,462.1921 9.64499,-323.53447 0.19919,-369.75368 1.03613,-508.41132 1.19689,1201.69947 0.16075,-739.507364 0.1258,693.288154 0.91907,-323.53447 1.36114,-138.65763 0.63775,-785.72658 4.29657,1063.04184 0.85791,-369.75368 1.00993,647.06895 h 1.29124 l 0.32325,-693.28816 0.0349,600.84973 0.0577,-554.63052 1.30173,554.63052 0.24287,-1016.82263 0.34247,369.75369 0.43856,831.94579 0.15027,-878.165004 1.63546,693.288154 h 0.42633 l 0.58185,-554.63052 0.31276,508.41131 0.99944,-369.75368 0.0489,138.65763 4.40839,231.09605 0.82646,-462.1921 0.92781,693.28816 1.42927,-231.09606 0.56263,-462.1921 1.27901,92.43842 0.29878,600.84974 3.64832,-1479.01474 0.12581,554.630525 1.0938,878.165005 3.26217,-46.21921 2.54928,-554.63053 0.014,277.31526 11.9811,-878.165 0.41935,369.753686 0.1957,277.315264 0.56437,46.21921 6.37233,92.43842 0.13629,-415.972894 0.21492,693.288154 0.20967,-554.63052 0.0245,46.21921 0.45604,647.06895 1.12001,-138.65764 0.31626,-554.63052 0.0839,323.53447 4.70018,277.31526 0.007,-785.726575 0.0839,647.068945 0.63601,-369.75368 0.0489,277.31526 1.88707,-1109.26105 0.16249,831.94579 0.0489,323.53447 h 3.65182 l 0.45079,-462.1921 1.18815,600.84973 0.51021,-138.65763 0.0874,-508.41131 0.34597,647.06894 0.49622,-323.53447 0.0245,-231.09605 0.29004,369.75368 0.59233,231.09605 0.30228,-693.28815 0.39314,184.87684 0.0227,415.97289 1.98492,-415.97289 0.24636,92.43842 3.98555,-1386.57632 0.9977,1340.35711 2.07751,462.1921 0.71814,-323.53447 0.51719,-231.09605 0.81948,554.63052 0.18696,-554.63052 0.32848,46.21921 0.84045,-46.21921 0.58359,-277.315265 1.61973,831.945785 0.16424,-462.1921"
                     style="fill:none"
                     fill="none"
                     id="path2475" /></g></g></g></g></g></g><g
         transform="translate(30,377)"
         clip-path="url(#clip_1)"
         id="g2536"><clipPath
           id="clip_1"><rect
             width="1425"
             height="23"
             id="rect2489"
             x="0"
             y="0" /></clipPath><g
           id="g2534"><g
             id="g2510"><line
               x1="2.9346037"
               y1="0"
               x2="2.9346037"
               y2="5"
               style="visibility:inherit"
               fill="#000000"
               stroke="#cccccc"
               stroke-width="1px"
               id="line2492" /><line
               x1="177.66269"
               y1="0"
               x2="177.66269"
               y2="5"
               style="visibility:inherit"
               fill="#000000"
               stroke="#cccccc"
               stroke-width="1px"
               id="line2494" /><line
               x1="352.39075"
               y1="0"
               x2="352.39075"
               y2="5"
               style="visibility:inherit"
               fill="#000000"
               stroke="#cccccc"
               stroke-width="1px"
               id="line2496" /><line
               x1="527.11884"
               y1="0"
               x2="527.11884"
               y2="5"
               style="visibility:inherit"
               fill="#000000"
               stroke="#cccccc"
               stroke-width="1px"
               id="line2498" /><line
               x1="701.84692"
               y1="0"
               x2="701.84692"
               y2="5"
               style="visibility:inherit"
               fill="#000000"
               stroke="#cccccc"
               stroke-width="1px"
               id="line2500" /><line
               x1="876.57501"
               y1="0"
               x2="876.57501"
               y2="5"
               style="visibility:inherit"
               fill="#000000"
               stroke="#cccccc"
               stroke-width="1px"
               id="line2502" /><line
               x1="1051.3031"
               y1="0"
               x2="1051.3031"
               y2="5"
               style="visibility:inherit"
               fill="#000000"
               stroke="#cccccc"
               stroke-width="1px"
               id="line2504" /><line
               x1="1226.0311"
               y1="0"
               x2="1226.0311"
               y2="5"
               style="visibility:inherit"
               fill="#000000"
               stroke="#cccccc"
               stroke-width="1px"
               id="line2506" /><line
               x1="1400.7593"
               y1="0"
               x2="1400.7593"
               y2="5"
               style="visibility:inherit"
               fill="#000000"
               stroke="#cccccc"
               stroke-width="1px"
               id="line2508" /></g><g
             transform="translate(0,8)"
             id="g2530"><text
               x="2.9346037"
               y="0"
               dx="0em"
               dy="0.94999999em"
               style="font-weight:200;font-size:12px;font-family:Roboto, sans-serif;text-anchor:middle;visibility:inherit"
               fill="#212121"
               stroke="none"
               stroke-width="1px"
               id="text2512">0</text><text
               x="177.66269"
               y="0"
               dx="0em"
               dy="0.94999999em"
               style="font-weight:200;font-size:12px;font-family:Roboto, sans-serif;text-anchor:middle;visibility:inherit"
               fill="#212121"
               stroke="none"
               stroke-width="1px"
               id="text2514">100k</text><text
               x="352.39075"
               y="0"
               dx="0em"
               dy="0.94999999em"
               style="font-weight:200;font-size:12px;font-family:Roboto, sans-serif;text-anchor:middle;visibility:inherit"
               fill="#212121"
               stroke="none"
               stroke-width="1px"
               id="text2516">200k</text><text
               x="527.11884"
               y="0"
               dx="0em"
               dy="0.94999999em"
               style="font-weight:200;font-size:12px;font-family:Roboto, sans-serif;text-anchor:middle;visibility:inherit"
               fill="#212121"
               stroke="none"
               stroke-width="1px"
               id="text2518">300k</text><text
               x="701.84692"
               y="0"
               dx="0em"
               dy="0.94999999em"
               style="font-weight:200;font-size:12px;font-family:Roboto, sans-serif;text-anchor:middle;visibility:inherit"
               fill="#212121"
               stroke="none"
               stroke-width="1px"
               id="text2520">400k</text><text
               x="876.57501"
               y="0"
               dx="0em"
               dy="0.94999999em"
               style="font-weight:200;font-size:12px;font-family:Roboto, sans-serif;text-anchor:middle;visibility:inherit"
               fill="#212121"
               stroke="none"
               stroke-width="1px"
               id="text2522">500k</text><text
               x="1051.3031"
               y="0"
               dx="0em"
               dy="0.94999999em"
               style="font-weight:200;font-size:12px;font-family:Roboto, sans-serif;text-anchor:middle;visibility:inherit"
               fill="#212121"
               stroke="none"
               stroke-width="1px"
               id="text2524">600k</text><text
               x="1226.0311"
               y="0"
               dx="0em"
               dy="0.94999999em"
               style="font-weight:200;font-size:12px;font-family:Roboto, sans-serif;text-anchor:middle;visibility:inherit"
               fill="#212121"
               stroke="none"
               stroke-width="1px"
               id="text2526">700k</text><text
               x="1400.7593"
               y="0"
               dx="0em"
               dy="0.94999999em"
               style="font-weight:200;font-size:12px;font-family:Roboto, sans-serif;text-anchor:middle;visibility:inherit"
               fill="#212121"
               stroke="none"
               stroke-width="1px"
               id="text2528">800k</text></g><line
             x1="0"
             y1="0"
             x2="1425.2188"
             y2="0"
             fill="#000000"
             stroke="#cccccc"
             stroke-width="1px"
             id="line2532" /></g></g></g></g><rect
     style="fill:none;fill-opacity:1;fill-rule:evenodd;stroke:#000000;stroke-width:1.02785;stroke-dasharray:none;stroke-opacity:1"
     id="rect4621-7"
     width="614.52826"
     height="375.67966"
     x="773.8255"
     y="37.341442" /><rect
     style="fill:none;fill-rule:evenodd;stroke:#000000;stroke-width:1.0093;stroke-dasharray:none;stroke-opacity:1"
     id="rect4621"
     width="589.65106"
     height="377.53021"
     x="93.047562"
     y="35.30542" /><g
     id="g4875"
     transform="translate(718.35349,36.67835)"
     clip-path="url(#clipPath5063)"><g
       id="g4755"><g
         id="g4753"><g
           id="g4725"><line
             x1="60"
             y1="368.28711"
             x2="55"
             y2="368.28711"
             style="visibility:inherit"
             fill="#000000"
             stroke="#cccccc"
             stroke-width="1px"
             id="line4703" /><line
             x1="60"
             y1="332.55896"
             x2="55"
             y2="332.55896"
             style="visibility:inherit"
             fill="#000000"
             stroke="#cccccc"
             stroke-width="1px"
             id="line4705" /><line
             x1="60"
             y1="296.83081"
             x2="55"
             y2="296.83081"
             style="visibility:inherit"
             fill="#000000"
             stroke="#cccccc"
             stroke-width="1px"
             id="line4707" /><line
             x1="60"
             y1="261.10266"
             x2="55"
             y2="261.10266"
             style="visibility:inherit"
             fill="#000000"
             stroke="#cccccc"
             stroke-width="1px"
             id="line4709" /><line
             x1="60"
             y1="225.37451"
             x2="55"
             y2="225.37451"
             style="visibility:inherit"
             fill="#000000"
             stroke="#cccccc"
             stroke-width="1px"
             id="line4711" /><line
             x1="60"
             y1="189.64638"
             x2="55"
             y2="189.64638"
             style="visibility:inherit"
             fill="#000000"
             stroke="#cccccc"
             stroke-width="1px"
             id="line4713" /><line
             x1="60"
             y1="153.91823"
             x2="55"
             y2="153.91823"
             style="visibility:inherit"
             fill="#000000"
             stroke="#cccccc"
             stroke-width="1px"
             id="line4715" /><line
             x1="60"
             y1="118.19009"
             x2="55"
             y2="118.19009"
             style="visibility:inherit"
             fill="#000000"
             stroke="#cccccc"
             stroke-width="1px"
             id="line4717" /><line
             x1="60"
             y1="82.461937"
             x2="55"
             y2="82.461937"
             style="visibility:inherit"
             fill="#000000"
             stroke="#cccccc"
             stroke-width="1px"
             id="line4719" /><line
             x1="60"
             y1="46.733795"
             x2="55"
             y2="46.733795"
             style="visibility:inherit"
             fill="#000000"
             stroke="#cccccc"
             stroke-width="1px"
             id="line4721" /><line
             x1="60"
             y1="11.00565"
             x2="55"
             y2="11.00565"
             style="visibility:inherit"
             fill="#000000"
             stroke="#cccccc"
             stroke-width="1px"
             id="line4723" /></g><g
           transform="translate(50)"
           id="g4749"><text
             x="0"
             y="368.28711"
             dx="0em"
             dy="0.30000001em"
             style="font-weight:200;font-size:12px;font-family:Roboto, sans-serif;text-anchor:end;visibility:inherit"
             fill="#212121"
             stroke="none"
             stroke-width="1px"
             id="text4727">0.06</text><text
             x="0"
             y="332.55896"
             dx="0em"
             dy="0.30000001em"
             style="font-weight:200;font-size:12px;font-family:Roboto, sans-serif;text-anchor:end;visibility:inherit"
             fill="#212121"
             stroke="none"
             stroke-width="1px"
             id="text4729">0.061</text><text
             x="0"
             y="296.83081"
             dx="0em"
             dy="0.30000001em"
             style="font-weight:200;font-size:12px;font-family:Roboto, sans-serif;text-anchor:end;visibility:inherit"
             fill="#212121"
             stroke="none"
             stroke-width="1px"
             id="text4731">0.062</text><text
             x="0"
             y="261.10266"
             dx="0em"
             dy="0.30000001em"
             style="font-weight:200;font-size:12px;font-family:Roboto, sans-serif;text-anchor:end;visibility:inherit"
             fill="#212121"
             stroke="none"
             stroke-width="1px"
             id="text4733">0.063</text><text
             x="0"
             y="225.37451"
             dx="0em"
             dy="0.30000001em"
             style="font-weight:200;font-size:12px;font-family:Roboto, sans-serif;text-anchor:end;visibility:inherit"
             fill="#212121"
             stroke="none"
             stroke-width="1px"
             id="text4735">0.064</text><text
             x="0"
             y="189.64638"
             dx="0em"
             dy="0.30000001em"
             style="font-weight:200;font-size:12px;font-family:Roboto, sans-serif;text-anchor:end;visibility:inherit"
             fill="#212121"
             stroke="none"
             stroke-width="1px"
             id="text4737">0.065</text><text
             x="0"
             y="153.91823"
             dx="0em"
             dy="0.30000001em"
             style="font-weight:200;font-size:12px;font-family:Roboto, sans-serif;text-anchor:end;visibility:inherit"
             fill="#212121"
             stroke="none"
             stroke-width="1px"
             id="text4739">0.066</text><text
             x="0"
             y="118.19009"
             dx="0em"
             dy="0.30000001em"
             style="font-weight:200;font-size:12px;font-family:Roboto, sans-serif;text-anchor:end;visibility:inherit"
             fill="#212121"
             stroke="none"
             stroke-width="1px"
             id="text4741">0.067</text><text
             x="0"
             y="82.461937"
             dx="0em"
             dy="0.30000001em"
             style="font-weight:200;font-size:12px;font-family:Roboto, sans-serif;text-anchor:end;visibility:inherit"
             fill="#212121"
             stroke="none"
             stroke-width="1px"
             id="text4743">0.068</text><text
             x="0"
             y="46.733795"
             dx="0em"
             dy="0.30000001em"
             style="font-weight:200;font-size:12px;font-family:Roboto, sans-serif;text-anchor:end;visibility:inherit"
             fill="#212121"
             stroke="none"
             stroke-width="1px"
             id="text4745">0.069</text><text
             x="0"
             y="11.00565"
             dx="0em"
             dy="0.30000001em"
             style="font-weight:200;font-size:12px;font-family:Roboto, sans-serif;text-anchor:end;visibility:inherit"
             fill="#212121"
             stroke="none"
             stroke-width="1px"
             id="text4747">0.07</text></g><line
           x1="60"
           y1="0"
           x2="60"
           y2="377"
           fill="#000000"
           stroke="#cccccc"
           stroke-width="1px"
           id="line4751" /></g></g><g
       transform="translate(60)"
       clip-path="url(#clip_0-35)"
       id="g4832"><clipPath
         id="clip_0-35"><rect
           width="1396"
           height="377"
           id="rect4757"
           x="0"
           y="0" /></clipPath><g
         id="g4802"><g
           id="g4800"><g
             id="g4774"><line
               x1="181.40332"
               y1="0"
               x2="181.40332"
               y2="377"
               fill="#000000"
               stroke="#424242"
               stroke-width="1px"
               opacity="0.25"
               id="line4760" /><line
               x1="363.3136"
               y1="0"
               x2="363.3136"
               y2="377"
               fill="#000000"
               stroke="#424242"
               stroke-width="1px"
               opacity="0.25"
               id="line4762" /><line
               x1="545.22388"
               y1="0"
               x2="545.22388"
               y2="377"
               fill="#000000"
               stroke="#424242"
               stroke-width="1px"
               opacity="0.25"
               id="line4764" /><line
               x1="727.13416"
               y1="0"
               x2="727.13416"
               y2="377"
               fill="#000000"
               stroke="#424242"
               stroke-width="1px"
               opacity="0.25"
               id="line4766" /><line
               x1="909.04443"
               y1="0"
               x2="909.04443"
               y2="377"
               fill="#000000"
               stroke="#424242"
               stroke-width="1px"
               opacity="0.25"
               id="line4768" /><line
               x1="1090.9547"
               y1="0"
               x2="1090.9547"
               y2="377"
               fill="#000000"
               stroke="#424242"
               stroke-width="1px"
               opacity="0.25"
               id="line4770" /><line
               x1="1272.865"
               y1="0"
               x2="1272.865"
               y2="377"
               fill="#000000"
               stroke="#424242"
               stroke-width="1px"
               opacity="0.25"
               id="line4772" /></g><g
             id="g4798"><line
               x1="0"
               y1="368.28711"
               x2="1396"
               y2="368.28711"
               fill="#000000"
               stroke="#424242"
               stroke-width="1px"
               opacity="0.25"
               id="line4776" /><line
               x1="0"
               y1="332.55896"
               x2="1396"
               y2="332.55896"
               fill="#000000"
               stroke="#424242"
               stroke-width="1px"
               opacity="0.25"
               id="line4778" /><line
               x1="0"
               y1="296.83081"
               x2="1396"
               y2="296.83081"
               fill="#000000"
               stroke="#424242"
               stroke-width="1px"
               opacity="0.25"
               id="line4780" /><line
               x1="0"
               y1="261.10266"
               x2="1396"
               y2="261.10266"
               fill="#000000"
               stroke="#424242"
               stroke-width="1px"
               opacity="0.25"
               id="line4782" /><line
               x1="0"
               y1="225.37451"
               x2="1396"
               y2="225.37451"
               fill="#000000"
               stroke="#424242"
               stroke-width="1px"
               opacity="0.25"
               id="line4784" /><line
               x1="0"
               y1="189.64638"
               x2="1396"
               y2="189.64638"
               fill="#000000"
               stroke="#424242"
               stroke-width="1px"
               opacity="0.25"
               id="line4786" /><line
               x1="0"
               y1="153.91823"
               x2="1396"
               y2="153.91823"
               fill="#000000"
               stroke="#424242"
               stroke-width="1px"
               opacity="0.25"
               id="line4788" /><line
               x1="0"
               y1="118.19009"
               x2="1396"
               y2="118.19009"
               fill="#000000"
               stroke="#424242"
               stroke-width="1px"
               opacity="0.25"
               id="line4790" /><line
               x1="0"
               y1="82.461937"
               x2="1396"
               y2="82.461937"
               fill="#000000"
               stroke="#424242"
               stroke-width="1px"
               opacity="0.25"
               id="line4792" /><line
               x1="0"
               y1="46.733795"
               x2="1396"
               y2="46.733795"
               fill="#000000"
               stroke="#424242"
               stroke-width="1px"
               opacity="0.25"
               id="line4794" /><line
               x1="0"
               y1="11.00565"
               x2="1396"
               y2="11.00565"
               fill="#000000"
               stroke="#424242"
               stroke-width="1px"
               opacity="0.25"
               id="line4796" /></g></g></g><g
         id="g4808"><g
           id="g4806"><line
             x1="0"
             y1="2511.9758"
             x2="1396"
             y2="2511.9758"
             fill="#000000"
             stroke="#999999"
             stroke-width="1.5px"
             id="line4804" /></g></g><g
         id="g4814"><g
           id="g4812"><line
             x1="-0.50694925"
             y1="0"
             x2="-0.50694925"
             y2="377"
             fill="#000000"
             stroke="#999999"
             stroke-width="1.5px"
             id="line4810" /></g></g><g
         id="g4830"><g
           id="g4828"><g
             id="g4826"><g
               id="g4824"><g
                 id="g4818"><path
                   stroke="#0077bb"
                   stroke-width="2px"
                   d="m 0.84100587,297.82881 0.0764023,1.79921 0.0236483,-2.22965 1.20060773,20.2813 1.1751405,-25.57792 1.488026,28.74591 0.2892373,14.58272 1.2933821,0.34579 0.4947959,-0.18301 0.1619002,-1.85565 0.6894399,2.06554 0.2237496,-0.43882 0.2164733,2.46111 0.4729668,14.08959 0.745832,-9.43703 0.036382,-0.17768 0.4038408,-5.24405 0.9168284,-13.26838 3.108846,-2.09097 0.212835,-3.12952 0.554827,0.71021 0.176452,-0.28031 0.58939,0.2059 1.422538,9.14022 0.06003,-1.31287 0.08368,0.23385 0.296514,2.21901 0.320162,-1.21026 0.354725,-0.88856 0.64942,-0.86088 0.24194,-0.25555 0.42749,0.84464 0.20192,0.18102 0.471148,-0.7934 1.075089,-0.72019 0.169177,-0.95325 0.05093,-0.0941 0.276503,3.11888 3.376255,3.52949 1.282468,-4.74294 0.380192,0.0724 1.167864,3.92 0.03274,-0.0157 0.603942,4.55327 0.06549,-0.0239 0.640324,4.38104 0.143709,1.51851 0.301971,1.0399 0.411117,-0.57712 0.280142,1.96013 0.05093,0.16877 0.642143,3.21884 0.760385,1.08581 0.22375,1.09193 0.66943,-2.36581 1.769987,-4.9688 0.231026,2.41545 0.520263,-0.0841 0.03092,0.20736 0.392926,1.1095 0.654877,-2.66821 1.191512,0.10262 0.358364,-2.24682 1.078727,-0.88097 0.291057,0.14268 0.03456,0.14255 0.06913,0.34472 0.394745,-0.0781 0.374735,-0.95045 0.372916,0.31797 0.05639,0.37733 1.045985,1.17858 0.898636,6.4205 0.02365,0.49233 0.703992,0.67001 0.18373,0.14109 0.0036,0.0435 0.09096,0.67481 0.463871,-1.87429 0.402022,-0.38598 0.312886,0.10142 0.231026,-0.47103 2.010108,-1.48218 0.03456,-0.53265 2.268421,5.41601 0.500254,0.43616 1.142396,-3.97097 0.08186,0.37919 0.609399,-0.73123 1.242447,-0.0791 1.23699,2.0867 0.176453,-0.48474 0.389288,-0.0964 0.673068,-1.16115 2.819609,2.44141 0.107328,-0.48301 0.824053,1.4706 0.231026,-0.11154 0.536635,-1.6174 0.185549,-0.30599 1.808188,-0.54224 1.180598,0.32728 1.54078,-0.51029 0.04912,0.0381 0.01455,-0.12151 0.129157,-0.0582 0.565741,0.18567 0.314704,-1.21558 0.256494,0.81549 0.469328,0.21935 0.480244,-0.72299 0.74947,-0.79805 1.373422,1.07543 0.07822,-0.0536 0.678525,1.73559 0.123699,0.39437 0.06731,-0.0446 0.06731,-0.25488 0.05457,-0.3406 0.06003,0.15959 1.56079,1.02179 1.375242,1.43173 0.89318,0.0342 0.238302,0.12857 2.317537,-0.77689 0.716726,1.17951 1.198789,1.10365 0.516625,0.0756 0.132795,-0.0503 0.289237,0.49007 1.020517,-0.48288 3.765542,0.1303 0.114604,-0.24277 0.105508,-0.10275 0.654877,-0.43376 0.605761,0.99863 0.316524,-0.0669 0.05821,-0.25754 0.08368,0.13176 0.154624,-0.50098 1.065994,1.36399 0.636686,-0.53971 0.969582,-0.37707 0.0073,-0.0458 0.120061,-0.0612 0.252855,0.36655 0.643963,0.82627 0.467509,0.0197 0.331077,-0.71966 0.85134,-1.11442 0.44568,-0.45959 1.397071,-0.84624 0.869531,0.52933 0.129156,0.0579 0.265589,0.906 0.03092,-0.34592 0.678525,-1.18111 0.03092,0.23611 0.294695,0.29947 0.365639,0.87978 0.489339,-0.009 1.950078,-0.63022 0.03274,0.0152 1.084185,-0.68226 1.857301,-1.55857 0.32016,0.17422 0.02,-0.046 0.0546,-0.0458 0.55664,-0.25981 2.72138,-0.97587 0.13825,-0.16451 0.85498,-0.23372 0.79859,-0.224 0.13279,-0.0288 0.0673,0.0206 0.8477,0.20816 0.26013,0.12418 0.79677,0.63794 0.23284,-0.42591 1.49713,-0.45413 0.24739,0.4504 0.28742,-0.3197 1.0187,-0.35817 1.72087,0.0768 0.47115,-0.67747 0.90409,-1.06837 0.22557,0.0104 0.6949,-0.7174 0.0891,-0.14095 0.30379,-0.17595 1.11148,-1.01048 0.86953,0.60626 0.75129,0.0926 0.62941,0.0623 0.6003,0.90733 0.0564,0.0867 0.0346,-0.24357 0.38564,-0.009 0.72401,0.16224 0.89682,0.18448 0.0327,-0.16278 0.72764,-0.60386 0.45296,-0.64233 0.47296,-0.46957 0.83679,-0.43856 0.12916,-0.24876 0.42749,0.12218 0.12915,-0.36535 1.11329,-0.95804 1.50258,0.018 0.7331,-0.75919 0.53482,-0.30266 0.12006,-0.21562 0.0382,0.0932 0.191,0.35031 0.0837,0.40981 0.11643,-0.12365 0.99868,-0.0825 0.0528,0.13257 0.77494,-0.022 0.0273,-0.0795 0.39111,-0.42845 0.37292,-0.17489 0.93683,-0.29907 0.10551,-0.0627 0.67853,-0.10474 0.18736,0.15945 0.51663,-0.0141 0.81678,-0.89415 0.41839,-0.1158 0.37473,-0.76025 2.38849,0.44455 0.0819,-0.0202 0.26013,-0.26088 0.10551,-0.22546 0.24921,-0.68 0.091,0.2851 0.8386,-0.61784 0.74766,-0.64619 0.96048,-0.60626 1.83002,-0.38905 1.50076,-0.82321 0.0546,0.11154 0.30743,0.0551 0.86589,-0.59814 0.20738,-0.12644 0.93684,0.27085 0.57847,-0.21615 0.27833,0.111 0.1146,-0.26712 1.11511,-0.29042 0.58757,-0.63528 0.37837,-0.41526 0.11461,-0.0349 0.26013,0.0182 0.46387,-0.11513 0.08,0.0881 0.55847,-0.19752 0.33835,-0.32928 0.6094,-1.32752 1.68449,0.1713 1.72814,-0.73137 0.14553,-0.0386 0.009,0.0109 0.191,-0.12817 0.76767,-0.83439 0.28923,-0.3732 1.72451,-0.52894 0.66943,-0.27125 0.0473,0.0296 0.14189,-0.24357 0.24376,-0.0917 0.39838,0.0563 0.12734,-0.22308 1.17878,0.14069 0.0327,0.0884 0.10187,-0.20484 1.70814,0.19778 3.69642,-0.23492 0.1619,0.23412 0.0236,0.19126 0.3711,0.0209 0.56028,-0.70901 1.28247,-1.26163 0.0564,0.14787 1.36433,-0.50484 0.88045,0.0996 3.04881,-1.25339 0.12552,-0.0208 0.009,-0.0161 0.25649,-0.51416 0.0964,0.0997 0.0618,-0.2091 0.0928,-0.0232 0.17099,0.20311 1.23881,0.74868 0.37474,0.1858 0.2001,-0.0178 0.66397,-0.1178 0.21284,0.10076 0.44749,0.0136 0.0855,0.0406 0.29288,-0.42392 1.91006,0.47583 0.21283,-0.1508 1.6663,-0.32063 0.20192,-0.15413 0.12552,-0.1866 0.18918,-0.3213 0.25468,-0.24157 1.26246,-0.0371 0.33107,0.22427 0.55119,-0.31744 1.49894,-0.42005 0.30197,-0.24144 0.0327,0.0273 0.002,-0.008 0.17099,-0.0491 0.76584,-0.15799 0.67307,0.50032 0.73674,-0.16797 1.10965,0.0202 0.30197,-0.0651 0.23103,-0.11459 2.14472,-0.12618 0.0728,-0.0273 0.64033,-0.35098 2.46306,-0.38945 2.56494,-0.63754 0.56938,-0.2019 0.33471,-0.28217 0.67853,-0.22307 0.38929,-0.0892 0.13279,-0.0687 0.83133,-0.42418 0.5239,-0.32875 0.64396,-0.75027 0.41294,-0.18221 0.0291,-0.11487 0.28923,-0.2031 0.28378,-0.25369 0.66579,-0.31318 0.41658,-0.28323 0.65124,-0.51535 0.25285,0.0156 0.47115,-0.2477 0.14007,-0.0813 0.42021,0.11127 1.51532,-1.45689 2.14108,-1.23874 0.90955,-0.10301 1.33522,-0.92211 0.0273,-0.0317 0.0182,-0.0646 0.6476,-0.58336 0.2565,0.12564 0.7531,-0.19126 0.6567,0.56793 1.086,-1.36066 1.49713,0.1717 2.59404,-1.20946 0.51844,-0.0197 0.47297,-0.73523 0.10187,0.20404 0.87135,-0.39317 1.88823,-0.75973 0.43112,-0.6744 0.16918,0.18474 1.18424,-0.73776 0.12006,-0.0312 1.11875,-0.22959 0.46205,-0.002 0.14553,-0.0136 0.84588,-0.51562 2.10834,-0.70448 0.10551,-0.19233 0.08,-0.15333 0.0255,-0.0993 0.18555,0.0128 0.21648,0.006 0.90591,-0.9426 0.10551,-0.0674 0.47478,0.24304 0.81132,-0.41886 0.62032,-0.11885 0.43658,0.13735 0.15281,-0.0153 1.84457,-1.13639 0.1528,-0.23505 0.0164,-0.0327 0.0837,-0.13989 0.13462,0.0373 0.37473,-0.18714 0.18919,-0.29148 0.14189,0.10701 0.27468,-0.0558 0.34927,0.14614 0.77494,-0.40834 0.6767,-0.44588 0.13826,-0.19219 0.68216,-0.32583 0.0946,0.0353 0.4475,-0.2489 0.78767,-0.5803 2.82143,-1.67863 0.19283,0.11925 0.26195,-0.13163 0.0673,0.10714 0.83497,-0.68385 0.71491,0.22334 0.20738,0.0476 1.5244,-0.28536 0.24558,-0.25275 0.95321,0.24597 0.0146,0.074 2.44669,-0.0334 0.04,0.0117 0.22193,-0.20537 0.31107,0.11726 0.33107,-0.33288 0.2092,-0.33088 0.12552,0.022 0.71309,-0.43416 0.26195,-0.1291 1.87185,-0.45906 0.63305,-0.0958 0.27287,-0.26433 0.0455,-0.0184 1.86821,-0.53026 1.41163,-0.21695 0.52572,-0.5473 0.14916,-0.001 0.10369,0.1528 1.39707,-0.8875 0.57666,-0.44694 0.6003,-0.0351 0.55483,-0.59947 0.26741,-0.2445 0.12915,0.0504 0.99869,-0.46345 0.004,-0.015 0.58757,-0.34046 1.08964,-0.38984 0.42385,-0.24237 1.39526,-0.79287 0.43658,-0.0464 0.46933,-0.39716 0.59666,-0.3937 0.0618,0.0948 0.071,-0.23505 0.44568,-0.0551 0.0327,-0.007 0.0109,0.0701 0.58393,-0.60905 0.44022,-0.0949 1.11693,-0.93355 0.0982,0.0441 1.21698,-0.42831 0.74765,-0.62396 0.25104,-0.18634 2.13563,-1.2265 0.16735,-0.14494 0.14371,-0.16318 0.0528,-0.0154 0.29105,-0.25142 0.53118,-0.017 0.70036,-0.20364 1.23335,-0.0945 0.16008,-0.17929 0.25649,-0.23944 0.002,-0.009 0.0728,-0.0804 0.5239,-0.0534 0.32198,-0.28749 0.99505,-0.4138 0.0637,0.002 0.36018,-0.31611 0.13097,-0.20816 0.42931,0.0414 0.20374,0.0374 0.10369,0.0337 0.15826,0.22946 0.31653,-0.0952 0.0236,0.0128 0.29106,-0.30506 0.30015,0.0202 0.49116,-0.0228 1.73361,-0.25462 0.0436,-0.0796 0.26923,-0.0209 0.12006,-0.0744 0.64033,-0.32595 0.21465,0.007 0.10733,-0.15173 1.27155,0.0474 0.13643,-0.0877 0.71855,-0.40129 0.98595,-0.47103 0.26377,-0.16558 0.47479,-0.34884 0.0346,-0.026 2.15382,-0.87378 0.41657,-0.44775 0.14371,-0.15545 0.29288,-0.11127 0.02,-0.0111 0.2383,0.0847 0.21465,-0.28549 0.60031,-0.0548 0.0946,0.016 0.23285,0.0423 0.41293,-0.25369 0.0309,0.005 0.007,-0.016 0.04,-0.0261 0.30742,-0.22014 1.31521,-0.49406 0.20374,-0.12937 1.88096,-0.87871 0.33653,-0.30347 1.55351,-0.71872 0.48752,-0.30986 0.35837,0.0405 0.26741,-0.0359 0.63304,-0.17968 0.0255,0.0466 0.30379,-0.43922 0.36564,-0.4906 1.15513,-0.36096 0.73674,-0.50391 0.33289,0.005 0.0528,-0.12697 0.0619,0.0642 0.1237,0.0841 0.4675,-0.16691 0.36019,-0.18074 0.4002,0.23478 0.28196,0.0423 0.17645,-0.0117 0.28742,-0.22174 0.4566,0.16638 0.0655,-0.0596 1.67176,-0.15919 0.15462,0.1158 0.86044,-0.36655 0.25285,-0.17782 0.19647,0.0399 1.09146,-0.30719 1.36796,0.13256 0.091,-0.0325 3.6091,-1.6781 0.02,0.005 0.4384,-0.35138 0.62577,-0.14561 0.13462,-0.12245 0.0455,-0.0538 0.46932,-0.19379 1.92825,-0.79273 1.19333,-0.33221 0.171,-0.0144 0.0509,-0.003 5.12077,-1.81439 0.18919,-0.11473 0.4384,-0.36575 0.21283,-0.21402 0.1619,-0.0277 0.44569,-0.3378 1.33522,-0.19698 0.60758,-0.41074 1.31521,-0.58909 0.17827,-0.13922 0.60394,-0.33914 0.74402,-0.39556 0.2292,-0.10036 0.62577,-0.21242 1.15695,-0.29361 0.27287,-0.009 1.17878,-0.71793 0.0491,0.0285 0.57484,0.11793 0.55301,0.12085 0.99323,-0.40914 0.92956,-0.31491 0.48388,-0.25661 0.70581,-0.10755 0.47661,-0.12032 1.0387,-0.17063 0.22739,0.002 0.6094,-0.16185 1.21516,-0.65271 0.67671,-0.2851 1.40616,-0.42724 0.80223,-0.47968 0.22011,-0.0956 0.96958,-0.79805 0.21102,-0.0423 0.50571,0.11739 1.03689,-0.33114 1.20242,-0.38013 0.40021,-0.0737 0.17463,-0.27098 0.171,-0.0466 0.002,-0.009 0.10368,-0.11979 0.20374,-0.004 0.22557,-0.0972 1.17332,-0.60107 0.18009,0.12005 0.34563,0.0743 0.76403,0.0181 0.78949,-0.45013 0.62213,-0.19433 0.72037,-0.27364 0.24739,-0.19486 0.32744,-0.23691 0.0819,0.0309 0.24012,0.17435 0.24922,0.12299 0.54209,-0.0876 1.57898,0.0106 1.34614,-0.25103 0.23285,-0.078 0.21647,-0.0389 0.04,-0.0351 1.37706,-0.27126 0.33653,-0.0551 0.0255,-0.0437 1.02234,-0.23664 0.57665,-0.27285 0.4093,0.17356 0.0309,0.003 0.27468,-0.27951 0.21829,-0.078 0.16372,-0.0823 0.0328,-0.0101 0.10368,-0.0863 0.0109,0.008 0.02,0.0445 0.11824,-0.10595 0.22921,-0.23585 0.0964,-0.0918 0.59485,-0.18287 0.45841,-0.0389 0.17463,0.27126 0.342,-0.18634 0.18918,-0.10382 0.4093,-0.38492 0.16554,0.115 0.27105,-0.12005 3.04517,-0.94154 0.63123,-0.47542 0.96413,-0.24091 0.84406,-0.15812 1.16241,-0.42911 0.7713,-0.6165 0.24194,-0.11926 1.19515,-0.90293 0.004,-0.002 0.46751,-0.39716 0.41293,0.004 0.59667,-0.42405 0.0291,0.017 0.0837,-0.0612 0.18737,0.10967 1.67539,-0.44162 0.06,0.0799 1.2279,-0.43017 1.48257,-0.29361 0.69853,-0.0772 0.37474,-0.32369 0.0364,-0.0487 0.28014,-0.14161 0.0728,-0.0205 0.12188,-0.0863 0.32744,-0.0924 0.34745,-0.33115 0.23285,0.0248 0.24012,-0.0157 2.09742,-1.57907 0.14553,-0.0216 0.42385,-0.34446 0.30743,-0.0269 1.23153,-0.70702 0.86954,-0.16291 0.12006,-0.0855 0.36018,-0.0823 1.09146,-0.19565 0.30015,-0.10941 0.0146,-0.0445 2.32664,-0.71819 0.0127,0.01 0.83133,-0.3969 0.93502,-0.52813 0.0619,0.0689 0.17827,-0.0964 0.45296,-0.10142 0.3238,-0.17276 2.5904,-1.41563 0.28742,0.0389 0.27286,-0.18235 0.33108,-0.002 0.22921,0.004 0.83133,-0.30452 0.1146,-0.18182 0.41294,-0.0418 0.53845,0.0918 0.13462,0.0413 0.6767,-0.30613 0.30925,-0.12351 0.33108,-0.15626 0.90955,-0.29574 0.20556,-0.01 1.7427,-1.15768 0.0382,-0.0847 0.59848,-0.19007 0.50571,-0.0157 1.32067,-0.63568 1.56625,-0.59335 0.27286,-0.29361 0.88591,-0.45386 0.0964,-0.0599 0.5621,-0.0431 0.22375,0.0682 0.0873,-0.0197 0.18191,-0.0916 0.0946,0.1299 0.93502,0.13177 1.10965,-0.39451 0.46933,-0.37453 1.18788,-0.30453 0.18191,-0.0924 0.2001,-0.0937 0.0455,0.0224 0.2765,-0.0146 0.64032,-0.054 0.33654,-0.0974 0.0437,0.0397 1.32612,-0.49752 0.002,-0.006 0.98959,-0.49725 0.3802,-0.0575 0.36382,-0.29734 1.1624,-0.10994 0.0218,0.0165 0.0455,0.049 0.92774,-0.23718 3.0761,-1.52822 0.70218,-0.35857 0.43476,-0.1488 0.26377,-0.0679 0.29106,-0.2087 0.24558,-0.17729 2.95422,-1.06584 0.46205,-0.33514 0.009,-0.0144 0.26377,0.0152 0.11642,0.006 0.24012,0.11101 0.48207,-0.29335 0.51116,-0.31172 0.44932,-0.25954 0.26923,-0.22147 0.86043,-0.44854 0.61486,-0.25821 0.13098,0.006 1.96099,-0.69637 0.29288,0.028 0.0109,-0.0101 1.57716,-0.3788 1.50076,0.32529 0.36564,-0.0796 0.98232,-0.35457 0.06,-0.0886 0.11824,0.0221 0.02,0.0112 0.26377,-0.007 1.23517,-0.66815 0.6003,-0.23372 0.37838,-0.31385 0.004,-0.0173 0.97685,-0.47968 1.16241,-0.81137 0.0891,0.0322 0.2383,-0.0567 0.12916,-0.14348 0.99504,-0.2449 0.5039,-0.22653 0.36382,-0.18607 1.93916,-0.9599 0.23648,-0.20311 0.12916,-0.0117 0.1146,-0.0274 0.29834,0.0114 1.0387,-0.54464 0.59303,-0.14587 0.11642,-0.10329 1.62264,-0.85661 0.95685,-0.29761 2.05741,-0.67427 1.41708,-0.54171 0.0164,-0.0319 0.29651,0.0181 1.03143,0.0583 0.64397,-0.2055 1.48438,-0.66788 0.0255,0.0341 0.75311,-0.24091 0.53482,-0.27285 0.14734,-0.11979 0.342,-0.0162 0.0418,-0.0152 1.01143,-0.47702 0.49297,-0.16557 0.7331,-0.19459 1.57898,-0.62503 0.0982,-0.0429 0.54028,-0.27125 0.41657,-0.14933 1.59172,-0.31012 0.14189,-0.099 0.38201,0.13097 0.6476,-0.18767 2.08651,-0.7307 0.19464,0.0301 0.33472,-0.0713 0.50025,0.0612 1.8282,-0.18287 0.87317,-0.26247 1.10601,-0.18155 0.28378,0.0197 0.0255,-0.0122 0.0364,-0.006 1.47893,-0.48262 0.0709,0.0306 0.2474,-0.0319 0.17281,0.0186 1.92643,-0.51722 0.24558,-0.0189 0.71127,-0.41287 0.005,2.7e-4 0.20737,0.26672 1.07873,-0.58403 0.13644,-0.0679 0.0891,-0.008 1.02052,-0.5465 0.16736,-0.0373 0.13097,-0.0522 0.95685,-0.58296 1.41708,-0.44162 0.66397,-0.27418 2.09743,-0.45466 2.17383,-0.34606 0.0619,-0.0524 0.14007,-0.0817 0.89318,-0.14827 1.05144,-0.48847 1.34431,-0.41873 0.33654,0.0897 0.0364,0.0865 0.06,0.0157 1.35523,-0.25422 0.25286,-0.016 0.35654,-0.14561 0.4566,-0.13629 0.15644,-0.0562 1.70268,-0.39397 0.44386,-0.16264 0.60576,-0.31438 0.32562,-0.12538 1.04053,-0.26353 0.0509,0.0458 0.6949,-0.32396 1.46074,-0.43177 0.55846,0.0285 0.18919,0.0397 1.02234,-0.39237 0.0455,-0.0189 0.6185,0.11606 0.86043,-0.15599 0.96595,-0.57897 0.54573,-0.60959 0.19464,0.14295 0.74765,-0.3394 0.58576,-0.24543 1.33158,-0.60427 0.31106,-0.10967 0.41112,-0.27578 1.25154,-0.50763 0.91683,-0.0679 0.36928,-0.0389 0.0655,-0.0351 0.78403,-0.28323 0.13098,-0.058 1.13876,-0.16264 0.10914,0.0452 0.26013,-0.0873 0.31653,-0.0516 0.22375,-0.11181 1.77362,-0.46238 0.71309,-0.0769 2.65407,-1.41696 0.0145,-0.009 0.0964,-0.0434 0.16008,0.14002 1.00232,-0.37667 2.7232,-0.79273 0.9332,-0.37214 1.67903,-1.03098 0.2092,-0.0269 1.42072,-0.34313 0.92046,-0.3567 0.23831,-0.16531 0.1055,-0.0671 0.59303,-0.34792 0.26741,-0.0586 0.74219,-0.0767 0.78767,-0.64526 0.59485,-0.0918 0.43659,-0.25874 0.20374,0.0351 0.58757,-0.17409 0.0837,-0.0466 5.51552,-1.38768 1.03507,-0.32848 0.14189,-0.004 0.22375,-0.19885 0.2183,-0.12325 0.0255,-0.0234 0.47479,-0.0511 0.08,-0.0117 0.0473,-0.01 0.2292,0.0141 0.8095,0.0375 0.32926,-0.20258 0.0873,-0.0602 1.17878,-0.1677 0.5621,-0.24863 0.5712,-0.42165 1.07873,-0.0524 0.0109,0.0226 1.49166,-0.13363 0.007,-0.009 0.0873,0.004 0.66215,-0.21375 0.0509,-0.0551 0.0327,-0.0208 0.68216,-0.11047 0.0582,0.004 0.99869,-0.0413 0.19283,0.0202 0.16917,-0.15093 0.0509,-0.0303 0.0236,0.008 0.66397,-0.29894 0.31289,-0.0144 0.12006,-0.009 0.37655,-0.23478 0.61122,-0.10408 0.0855,-0.0144 0.30924,-0.16584 0.72765,-0.21668 0.57119,-0.27605 0.46933,-0.32396 1.23699,-0.65164 0.53118,-0.2095 0.091,-0.0945 0.36019,-0.0413 0.36746,-0.17276 0.14916,0.0327 0.0255,-0.007 0.30197,-0.15014 0.61668,-0.19299 0.3147,0.0237 0.4093,-0.14002 0.0236,-0.01 2.0665,-0.49459 0.25649,-0.11899 0.0382,0.0721 1.03507,-0.30612 0.56574,-0.0961 0.84952,-0.0194 0.57848,-0.12298 0.0709,-0.0141 0.13826,0.004 0.59666,-0.0248 0.27651,-0.0852 1.0387,-0.11766 2.16292,-0.76398 0.19646,-0.0777 0.55119,0.0327 0.53845,-0.0378 0.85316,-0.28989 0.19465,-0.0588 0.34199,-0.17622 0.87498,-0.0128 0.60759,-0.0503 0.19282,-0.15785 1.00778,-0.19353 0.4857,0.0253 0.171,-0.10701"
                   style="fill:none"
                   fill="none"
                   id="path4816" /></g><g
                 id="g4822"><path
                   stroke="#cc3311"
                   stroke-width="2px"
                   d="m 0.61543712,279.1926 0.18009118,15.23823 0.0782214,66.09978 0.5984848,-85.28662 0.00546,-0.75945 0.2583126,-20.10148 0.3019711,12.85883 0.2692272,-6.08682 0.1655383,20.788 1.6644791,8.92713 0.050935,-1.03803 0.1273372,-3.46986 0.083679,-1.30822 0.4493184,5.79135 0.049116,2.90885 0.3383531,-13.90405 0.3147048,1.96199 0.032744,-0.88856 2.0737772,29.03873 0.4020217,0.46757 0.2091968,4.03286 0.3456295,4.70354 0.7840333,-0.85089 0.2019204,-4.44094 0.2601317,6.4736 0.2983331,1.77433 0.46569,7.08892 0.318343,-0.68772 0.127338,0.49419 0.116422,4.2968 0.267408,-1.87389 0.152805,-0.60639 0.136433,-0.28749 0.452956,0.51096 2.563116,-5.11095 0.249217,1.58093 0.280142,-4.0644 0.260132,1.78271 0.130975,-2.11333 0.280142,5.01406 0.165538,-3.47678 0.307429,3.166 0.774937,-5.87693 0.30561,-0.76944 0.05639,0.34379 0.496615,-0.28775 0.212835,-0.19686 0.654877,3.68162 0.305609,0.10794 1.19697,10.0377 0.01091,-0.73111 0.08732,-0.12005 0.232845,-3.07789 0.900456,1.67224 0.685802,3.427 0.762204,-0.28429 0.08186,0.32755 0.196463,-1.07317 0.452956,1.87495 0.127338,0.32636 0.214654,-0.50298 0.420212,-2.79585 0.574837,0.89695 1.116929,-0.99983 0.08186,1.33643 1.679031,5.16273 0.160081,-1.66253 0.383831,-0.7496 0.01455,-0.18567 1.067813,1.04548 0.211016,0.42631 0.416575,-2.93254 0.0018,-0.0345 0.867712,-0.65298 0.209197,1.21744 0.658515,-0.1106 0.229207,-2.30579 0.531178,0.30533 1.724509,1.23834 0.896818,-2.80357 0.298333,-0.0681 0.01819,-0.093 0.858616,-0.32636 0.44568,-0.24143 0.431128,-1.08874 0.511168,-2.46684 0.110965,0.70808 0.140071,0.49073 2.379386,0.26088 0.414756,1.9532 0.07822,-0.34765 0.1619,-0.60559 1.369785,1.8997 0.925923,-1.59464 1.020517,0.31304 0.420212,-0.60466 0.534817,0.87805 0.582112,-0.41487 0.56756,-0.18407 0.218293,1.08488 0.140071,-0.39836 0.52754,0.75186 0.362001,-0.23944 3.34533,-1.84766 2.337547,0.75639 1.01324,-0.002 0.834968,0.45134 1.580801,0.99078 0.642143,1.6206 0.02729,0.003 0.947753,0.5807 0.247398,-0.8662 0.01637,0.0459 0.36564,0.42352 1.056898,-2.11879 0.885903,-0.51508 0.340172,-0.47609 2.370291,2.40174 0.429309,1.59931 0.278322,1.45302 0.149167,-0.13336 0.358363,-0.60999 0.462052,0.0162 0.01455,0.0132 0.241941,-0.063 0.594846,-0.67041 0.434766,-1.46674 0.252855,-0.0591 0.376554,-0.14242 0.422032,0.83852 0.278323,0.69104 0.671249,1.09034 0.220111,0.35111 0.03638,0.19845 0.03638,0.11193 0.574837,0.3048 0.05094,-0.0482 0.367458,0.15199 0.194644,0.14814 0.403841,-0.78794 0.738556,-1.63191 0.909551,1.94123 1.644469,2.28036 1.409805,2.16471 0.503891,-0.19007 0.260132,-0.14441 0.04184,0.31957 0.03638,-0.0571 0.240122,0.59934 0.145528,-0.11939 0.280142,-0.3587 0.48752,0.27778 0.502072,-0.66842 0.109146,0.10155 0.07276,-0.50138 0.845883,-0.5079 0.893179,-1.30009 0.214655,0.28443 0.18191,0.74947 0.60758,-2.18453 0.07822,0.16597 0.22193,-0.26606 0.753109,1.35693 0.156442,-0.007 0.489339,0.35271 1.064175,1.25591 0.432947,0.21256 1.067813,-0.74162 0.105508,0.12497 0.225569,0.75174 0.507529,0.78248 0.840426,0.26154 0.765842,-0.23465 1.951897,0.60373 0.216474,-0.23372 0.920466,-0.59814 0.03456,0.13962 0.05093,0.19672 1.277011,1.41642 0.147347,0.28962 0.862255,-0.98412 0.776756,0.95338 1.39889,0.56074 1.109653,0.92343 0.362002,-0.34113 0.101869,0.31571 0.103689,0.31118 1.100557,0.14827 0.625772,0.30746 0.165538,0.41992 0.565741,-0.13536 0.183729,-0.24197 1.133294,1.24912 0.0491,0.0784 0.23648,0.11034 0.69126,0.16491 1.36251,1.71137 0.10915,0.0382 0.10187,-0.20936 0.58393,-0.0719 0.95139,-0.0374 0.44932,0.75014 0.08,-0.0318 0.0145,0.031 0.0291,-0.0393 0.94411,0.002 0.43477,-0.5099 0.1619,-0.48421 2.3903,0.066 0.21101,0.0124 0.39839,0.54397 0.04,0.11527 0.65851,0.0989 0.65306,-1.23448 1.69177,2.25135 1.41708,0.6205 0.63304,0.58789 0.34563,-0.0102 1.37888,-0.1902 0.58576,0.43523 0.59848,0.34686 0.3329,-1.25991 1.91369,1.74159 1.70086,1.29131 0.3711,-0.19352 0.15644,0.41633 0.25286,0.40555 0.18555,-0.0338 0.3529,0.37986 0.47115,0.49566 0.06,-0.009 0.15281,-0.27778 0.48024,-0.68319 0.0982,-0.30799 0.0855,0.13563 0.0891,0.10675 0.10005,0.0455 1.44255,1.04815 0.48752,0.55009 0.16918,-0.44135 0.17645,-0.7138 0.71309,0.62143 0.32198,-0.34286 0.0728,-0.11925 0.12006,-0.0837 0.29105,-0.12631 0.0127,0.044 0.13279,0.28696 0.1237,0.0262 0.87681,0.4134 0.64578,0.0898 0.86589,0.12937 1.17878,-0.0486 0.50571,-0.27245 0.10551,-0.39224 1.66812,1.13306 0.0746,-0.14108 0.38747,0.0125 0.37837,-0.63833 0.3238,-0.37986 1.13694,0.21601 0.18737,0.12418 0.0509,0.0395 0.7422,0.96496 0.24921,0.0692 0.18919,-0.2252 0.15281,-0.19312 0.11096,0.0949 0.30197,-0.34578 0.11097,-0.0238 0.78039,0.37174 1.02961,0.0958 0.41294,0.0379 0.0691,0.11007 0.60394,0.0858 2.26478,0.89029 0.13098,-0.26473 2.60495,0.45146 0.42749,0.55542 0.12734,0.0327 1.0096,0.75706 0.0837,-0.18434 0.16554,0.29335 0.57483,0.47636 0.17464,0.0865 0.16917,0.13163 0.87681,-0.30506 1.83912,0.0402 0.38201,-0.22547 0.0237,-0.0612 2.09742,-1.31102 1.257,0.93888 0.7713,-0.10103 0.0236,-0.14494 0.34017,-0.44787 1.96281,0.75333 0.43841,-0.34472 0.27286,0.33035 0.38019,0.46051 0.171,0.12365 0.10005,0.003 0.15281,-0.28443 0.10732,0.0228 0.26013,-0.29601 1.58262,0.15839 0.16372,0.10688 0.60576,0.21735 0.70218,0.21002 0.83497,0.30187 0.0218,0.12351 1.17515,0.52854 0.0382,-0.0873 0.31106,0.8099 0.80041,0.0783 3.42173,0.59256 0.0109,0.0306 0.21465,-0.2831 0.362,-0.1114 0.0509,0.0216 0.19282,-0.15133 0.0218,-0.0374 0.71673,0.0582 0.26377,-0.18168 0.85316,0.33115 0.46387,-0.0767 0.32925,0.12658 0.56938,0.30346 0.56029,-0.10102 0.0309,-0.0516 0.0964,0.20324 0.22557,-0.0615 0.06,-0.23558 0.20738,-0.0741 0.0964,0.17995 0.38383,0.0279 0.533,0.0823 0.10915,0.0777 0.58211,0.15559 0.10915,-0.1086 0.22557,-0.16238 0.69307,-0.38545 0.86772,-0.84171 0.98595,0.58682 0.40748,0.29681 0.86771,0.37787 0.40566,-0.27871 0.57847,0.29761 0.91865,0.40847 2.23568,1.26377 1.20243,0.38451 1.42253,0.31079 0.0582,-0.0725 2.49035,-0.44029 0.091,-0.2642 0.30197,-0.0982 3.17616,0.92516 0.98049,-0.16052 0.12006,0.0237 0.11461,-0.24889 1.10237,-0.63634 1.29339,-0.10355 0.17827,-0.23478 0.44022,0.31863 1.70268,-0.85967 0.0327,0.0909 0.0509,0.0693 0.0982,0.14495 0.24376,-0.22747 0.29288,-0.2433 0.0564,-0.0772 0.70217,0.0733 0.36018,0.24597 0.30561,0.224 0.31289,-0.11659 0.34199,0.2248 0.8186,0.0688 0.14553,-0.10927 0.0582,-0.0918 0.13643,0.12817 0.22739,-0.16664 0.22011,0.29388 0.38383,-0.16876 0.10915,-0.33049 0.90591,0.0162 0.25649,-0.023 0.10733,0.26992 0.37837,0.1713 1.31158,-0.0886 0.44386,-0.69277 0.34745,-0.13576 0.86771,0.0918 0.5621,-0.19539 0.3329,-0.0809 0.32562,-0.003 0.38928,-0.53838 0.26741,0.1741 0.724,-0.21389 0.24558,-0.0257 0.11461,-0.005 0.17099,0.14308 1.4662,-0.42032 0.0237,-0.0962 0.56938,-0.0217 0.67125,0.12485 1.35341,0.2465 0.59666,0.53851 0.0637,-0.0309 0.0364,-0.05 0.25832,0.0764 0.0418,-0.0422 1.35523,0.31438 0.26195,0.28842 0.002,0.0206 0.13279,-0.16371 0.38201,-0.10302 0.38929,-0.28496 0.22193,-0.0909 1.80091,0.28283 0.41112,0.009 0.29833,0.02 0.71855,-0.0248 0.39656,0.0797 0.35837,0.27977 0.54027,0.25621 0.34017,-0.34365 0.32562,-0.0111 0.34745,0.0101 0.23285,0.21416 0.45841,-0.0161 0.78949,0.5835 0.0855,-0.21335 0.34745,0.49845 0.0655,-0.13097 0.52209,0.28936 0.31652,-0.006 2.56857,0.5441 0.36746,-0.40502 0.40021,0.15347 0.16008,-0.14681 0.48388,-0.53492 0.0491,-0.0321 0.41476,-0.26633 0.0709,-0.17089 0.85862,0.39663 0.18919,0.0474 0.7622,-0.23359 0.52754,-0.53319 0.34927,0.12898 0.17463,-0.0386 0.33472,0.22147 0.50025,-0.16118 0.16008,-0.0454 0.74947,0.35058 1.46984,0.54291 0.62395,-0.18101 0.44386,0.51056 0.0855,-0.0367 0.33289,-0.14654 0.11461,-0.0164 0.70581,0.0381 0.29469,-0.17343 0.28378,0.12392 0.071,0.15359 1.18969,0.16744 0.56211,-0.25209 1.26245,0.3185 0.42385,-0.20364 0.32562,-0.0669 0.18737,-0.0761 0.0364,-0.0566 0.14735,-0.17955 0.38929,-0.16864 2.41213,0.23412 0.60212,-0.0825 0.24922,0.24543 0.78221,-0.27511 1.31521,-0.22626 0.25468,-0.28177 0.0873,0.25648 0.42022,0.13749 0.3147,-0.13483 0.0528,-0.016 0.54937,0.1677 0.0164,0.098 0.22557,-0.0775 1.41344,-0.24597 1.68085,-0.3772 0.45478,-0.0375 0.45477,0.15919 0.84407,-0.10449 0.60758,0.33621 1.52986,-0.16877 0.67307,-0.42991 0.55301,-0.0299 0.13097,0.0402 0.1237,0.0469 0.58575,0.43763 0.74401,-0.15479 0.18373,0.16278 0.37656,0.0735 0.9623,0.22361 0.44205,0.13363 1.15331,-0.32662 1.76816,0.33181 0.41112,-0.0292 1.42436,-0.60759 0.59666,-0.11673 0.30925,-0.28123 1.61718,0.15612 1.00961,-0.13429 0.1055,0.0289 0.11461,0.0808 0.93502,-0.0992 0.42203,0.17609 0.27468,-0.002 0.10551,0.0379 0.43841,0.23305 0.2383,0.076 0.39838,-0.15985 0.4566,0.0319 0.009,-0.0381 0.0746,0.15878 0.11461,-0.0181 0.39111,-0.21349 0.37473,-0.183 3.87287,0.12817 0.44568,-0.0116 0.7713,-0.36882 0.02,-0.0437 0.0782,0.12405 0.23467,-0.27405 0.1055,0.20031 0.18373,-0.0583 1.05872,0.63927 0.88954,-0.23412 0.53846,-0.0285 0.46932,0.18154 0.15827,-0.21535 0.15826,-0.0735 1.34795,-0.27804 0.72037,0.28763 0.96412,-0.0584 0.14007,0.14813 0.0437,-0.0104 2.31572,0.35085 0.17827,0.14082 0.0273,0.0715 0.80404,-0.18447 0.0964,0.17089 0.0364,-0.0355 0.0528,-0.006 1.81728,-0.12218 1.24245,0.21455 0.0437,0.009 1.4189,0.10448 0.18009,-0.008 0.76584,0.80125 0.14917,-0.11233 0.22011,0.0857 0.0364,-0.0598 0.65124,-0.16664 0.0346,0.0411 0.0746,-0.0512 1.41708,-0.23665 0.62213,0.39357 0.14007,0.28243 0.46933,-0.23518 0.28742,0.0635 0.47115,-0.0667 0.15462,-0.033 1.06236,0.51735 2.16291,-0.29947 1.26064,-0.40063 0.9623,-0.13536 0.0673,0.17849 0.52572,-0.12591 0.007,0.0132 0.80222,0.52933 0.0437,-0.025 0.20192,-0.0906 1.2188,0.40555 1.86458,0.0471 0.16554,0.0918 0.71309,-0.18447 0.0146,0.002 1.32249,0.33128 0.0691,-0.12565 0.10369,-0.0121 0.48206,0.0273 0.21102,-0.11859 0.18009,-0.15772 0.39839,0.0486 0.5621,0.0642 0.41839,0.0519 0.37838,-0.0704 0.66761,-0.0391 0.0236,0.0238 1.62446,-0.0952 0.0437,0.15226 1.36615,-0.46025 0.0819,-0.11979 0.13279,-0.0118 0.48752,0.2783 0.41658,-0.20244 0.091,0.0116 0.46205,-0.0277 0.06,0.059 0.25104,0.0138 0.44022,-0.13562 0.0418,0.0756 0.10187,-0.15826 1.38434,0.22507 1.15149,-0.11886 0.0218,0.0153 0.16008,0.0363 1.0951,0.42551 1.29338,0.17622 0.6185,-0.25422 0.48752,-0.0234 0.007,-0.0109 0.12734,0.2501 2.83962,0.41393 0.49298,-0.0134 0.0255,0.089 0.009,-0.0232 0.0982,-0.11047 0.51117,-0.0526 0.76948,-0.14069 0.8859,0.29095 0.0819,0.0823 0.25468,0.20084 0.48024,0.0707 0.55846,-0.0382 0.76039,-0.0888 0.36928,-0.0768 0.009,-0.0188 4.20031,-0.0547 0.16008,-0.0534 0.51299,-0.0932 1.57898,0.47064 0.17463,-0.14481 0.2474,-0.0752 0.24194,0.2449 0.11279,0.007 0.1146,0.0821 0.12006,-0.16357 0.13643,-0.0185 0.10187,0.0381 1.13149,-0.30319 1.13512,-0.21416 2.61587,-0.10195 0.0309,-0.0403 0.16372,-0.0813 0.06,-0.009 0.28014,0.28709 2.2757,0.0884 0.22557,0.2043 0.7713,-0.0659 0.55664,0.056 0.36928,-0.20444 0.50571,0.16184 1.62628,-0.2972 2.34119,-0.19047 0.70763,-0.25022 0.87498,-0.16171 0.58939,0.14521 0.0618,-0.0723 0.82588,0.0385 0.0509,-0.0543 1.37524,-0.091 0.26559,-0.16837 0.0127,0.0118 0.59484,0.0579 0.25831,0.15493 0.75129,0.21668 0.51663,0.0477 0.40748,-0.0908 1.20061,0.15519 1.02597,0.0803 0.10187,0.0228 0.55483,-0.16624 0.72036,-0.29748 1.13148,-0.16304 0.0437,-0.0189 0.98777,-0.18434 0.27287,0.0914 0.18191,-0.1323 1.67903,0.53319 0.13098,-0.0236 2.83598,0.29534 0.64396,-0.0687 0.004,0.004 0.41657,-0.0512 0.0182,0.0169 2.17747,0.40941 0.31289,-0.10022 0.50934,0.10341 1.89915,-0.33687 1.50076,0.19912 0.64396,0.21282 0.33835,0.34579 0.26559,0.0671 0.43841,-0.0192 0.48752,0.0393 0.95502,-0.48182 0.40566,-0.0929 0.59121,-0.1693 0.44204,-0.0566 0.0982,0.0419 0.74037,0.19552 0.26741,0.005 0.34927,0.19791 0.21283,0.0378 0.47661,0.22693 0.81677,-0.0492 0.72219,-0.21695 1.29884,-0.056 0.553,-0.23664 0.26377,-0.26087 0.18191,-0.0346 0.94048,-0.4154 0.55301,0.0407 0.18009,0.0333 0.36564,-0.16078 1.13694,-0.002 0.08,-0.0823 0.74947,0.17409 0.82405,0.23945 0.27287,-0.12352 1.35705,-0.35124 1.20788,0.0216 0.63123,-0.0491 0.42931,-0.20285 0.23648,-0.13762 0.23285,-0.0166 0.16917,0.17303 1.3898,0.0945 0.0528,0.0713 0.14917,0.10861 0.6476,-0.17037 0.02,-0.053 0.18919,0.006 0.0364,-0.0655 1.31885,0.0876 0.38383,0.35643 0.0236,-0.0212 0.44932,-0.054 1.02961,-0.0844 0.14916,-0.003 0.28378,0.0604 0.47479,-0.35138 0.14917,-0.0576 0.0709,-0.0495 0.90773,-0.0464 0.98414,0.13496 1.41162,0.0789 0.99505,-0.31957 0.24558,0.0603 0.005,0.0112 0.191,-0.022 0.2947,-0.11074 0.70945,0.0932 0.49843,0.16584 0.0655,-0.005 0.0891,0.0417 0.40566,0.0172 0.10914,-0.0433 0.0346,0.0427 0.17464,0.0861 1.44437,0.0796 0.13097,-0.0639 0.51845,0.19405 0.29651,-0.0583 1.10238,0.15532 0.0873,-0.1086 0.14553,-0.0825 0.0182,-0.0343 0.0164,-0.0136 0.0582,0.0973 1.25154,0.0329 0.41293,-0.0132 0.60577,0.0867 0.009,-0.022 0.66034,0.0952 0.32743,-0.0106 0.0491,-0.041 0.24558,-0.0671 0.0327,0.0303 0.58212,-0.21988 0.82951,-0.0104 0.90045,-0.02 0.53846,-0.12285 1.62446,-0.47928 1.92824,0.0512 0.75857,-0.13243 0.2092,-0.10275 1.12966,0.24809 0.06,-0.0475 0.21647,-0.13377 0.3711,-0.12258 0.68216,-0.0775 0.59667,0.11965 0.0982,-0.0777 0.16554,0.0288 1.42072,0.0797 0.27104,0.0278 1.54442,0.53293 0.61122,0.20137 0.65852,-0.11353 0.12188,0.0209 0.25103,-0.0598 0.34927,-0.28496 1.34796,0.32222 0.11278,0.0423 0.67671,0.14734 1.97918,0.15586 0.38747,0.0675 0.27468,-0.18434 0.58575,0.10847 1.02052,0.0661 0.4184,0.0423 0.27468,-0.0606 0.04,-0.0367 0.29288,0.0236 0.28378,-0.0771 0.0164,0.0188 0.0491,4e-4 1.43164,0.27165 0.26377,-0.0724 0.45659,-0.18514 0.87681,0.16624 1.32249,-0.18474 0.0564,0.0417 1.15513,-0.27006 0.44022,-0.15998 0.30197,0.005 0.0673,0.0591 0.18737,0.11407 0.81132,-0.18355 0.36018,0.18049 0.0327,0.002 0.12006,-0.0345 0.79313,-0.064 0.71309,0.14893 0.25286,0.15945 0.0855,-0.0349 0.36564,0.0538 1.41527,0.14761 0.0582,-0.01 1.06781,-0.0104 0.31289,-0.0138 0.0528,0.0466 0.20738,0.13736 0.0291,0.0481 0.36746,0.0201 0.38747,0.20616 0.80586,0.23958 0.14735,-0.0926 0.42385,-0.24157 0.77676,0.0769 0.73674,0.20231 0.18554,0.054 0.5803,0.111 0.7331,0.1347 0.37473,0.078 0.6185,0.0753 0.51116,-0.004 0.15099,-0.0567 0.36018,-0.10701 0.94775,0.091 0.75675,0.0882 1.80637,-0.23079 0.48024,-0.0808 0.55301,0.29362 0.18191,0.24889 0.39838,0.005 0.93139,-0.0216 0.0564,0.0472 0.63668,0.21521 0.12552,-0.0661 0.13825,-0.0542 0.0891,0.004 0.20556,0.0603 0.78403,-0.0974 0.50571,-0.0136 0.39657,0.14201 0.17281,0.0357 0.004,0.002 0.98595,-0.0761 0.52572,0.0858 0.71127,-0.0524 0.23285,-0.013 1.56443,0.25222 0.51662,0.16677 0.29288,0.035 1.05326,-0.0901 0.0582,0.008 0.0637,-0.0323 0.13461,-0.025 0.16554,-0.0805 0.28378,-10e-4 0.20556,-0.0643 1.52441,0.0599 0.1619,0.0648 0.02,-0.0262 0.0218,0.0192 0.70763,-0.10661 0.0946,0.0434 0.8477,-0.0308 0.0145,-0.001 0.0346,0.007 0.0327,0.051 0.14189,0.14428 0.0819,-0.002 0.005,-0.002 0.12006,-0.0313 0.32744,0.0819 0.6858,-0.002 2.6377,0.0137 0.22557,-0.0954 0.11824,-0.017 0.87863,-0.12271 1.38979,-0.15293 0.25649,-0.0592 2.49217,0.14947 0.70582,-0.0106 0.35472,0.13177 1.08782,-0.0737 0.30016,-0.0849 1.2861,0.28389 0.41658,-0.0444 0.4857,-0.0747 0.46751,0.2457 1.64265,0.0276 0.17099,-0.0636 0.5239,-0.0724 1.5426,-0.22852 0.14917,0.0415 2.57221,-0.39383 0.009,-0.0201 0.54573,-0.12565 0.91864,-0.0749 0.68399,0.11859 1.11874,0.19206 0.25468,-0.0478 0.191,0.13656 0.14008,0.0213 0.69125,-0.003 1.29157,-0.0952 0.11642,-0.0426 0.0891,0.0568 0.0691,-0.10595 0.11097,-0.0218 0.35108,-0.115 0.007,0.0217 0.70036,-0.21947 0.84952,-0.0498 0.24921,-0.0498 0.0346,-0.0342 0.90409,0.0238 0.42203,-0.01 0.74765,0.25381 0.80405,-0.0817 0.0709,0.0574 0.31834,0.0281 0.0509,-0.007 0.73492,-0.0302 1.00778,0.15746 0.4093,0.044 0.41657,-0.0297 0.0455,0.0341 1.35341,-0.0713 0.0236,0.0353 0.2947,0.095 0.56574,0.0616 1.45528,0.0689 0.39656,-0.0669 1.07873,0.10208 0.0145,-0.0202 0.071,-0.0212 0.27468,0.0659 0.16554,0.12525 0.5712,0.10421 0.002,-0.004 0.0709,0.0291 1.12785,0.27924 0.24194,0.0498 0.41657,0.17196 1.15695,-0.006 1.34432,0.0444 0.51117,0.0112 0.12006,-0.0361 1.06053,0.19778 0.22557,0.1347 0.1619,0.10435 0.51299,0.0473 1.5517,-0.16305 0.25649,-0.10089 0.18737,-10e-4 1.11329,-0.19393"
                   style="fill:none"
                   fill="none"
                   id="path4820" /></g></g></g></g></g></g><g
       transform="translate(60,377)"
       clip-path="url(#clip_1-62)"
       id="g4873"><clipPath
         id="clip_1-62"><rect
           width="1396"
           height="23"
           id="rect4834"
           x="0"
           y="0" /></clipPath><g
         id="g4871"><g
           id="g4851"><line
             x1="181.40332"
             y1="0"
             x2="181.40332"
             y2="5"
             style="visibility:inherit"
             fill="#000000"
             stroke="#cccccc"
             stroke-width="1px"
             id="line4837" /><line
             x1="363.3136"
             y1="0"
             x2="363.3136"
             y2="5"
             style="visibility:inherit"
             fill="#000000"
             stroke="#cccccc"
             stroke-width="1px"
             id="line4839" /><line
             x1="545.22388"
             y1="0"
             x2="545.22388"
             y2="5"
             style="visibility:inherit"
             fill="#000000"
             stroke="#cccccc"
             stroke-width="1px"
             id="line4841" /><line
             x1="727.13416"
             y1="0"
             x2="727.13416"
             y2="5"
             style="visibility:inherit"
             fill="#000000"
             stroke="#cccccc"
             stroke-width="1px"
             id="line4843" /><line
             x1="909.04443"
             y1="0"
             x2="909.04443"
             y2="5"
             style="visibility:inherit"
             fill="#000000"
             stroke="#cccccc"
             stroke-width="1px"
             id="line4845" /><line
             x1="1090.9547"
             y1="0"
             x2="1090.9547"
             y2="5"
             style="visibility:inherit"
             fill="#000000"
             stroke="#cccccc"
             stroke-width="1px"
             id="line4847" /><line
             x1="1272.865"
             y1="0"
             x2="1272.865"
             y2="5"
             style="visibility:inherit"
             fill="#000000"
             stroke="#cccccc"
             stroke-width="1px"
             id="line4849" /></g><g
           transform="translate(0,8)"
           id="g4867"><text
             x="181.40332"
             y="0"
             dx="0em"
             dy="0.94999999em"
             style="font-weight:200;font-size:12px;font-family:Roboto, sans-serif;text-anchor:middle;visibility:inherit"
             fill="#212121"
             stroke="none"
             stroke-width="1px"
             id="text4853">100k</text><text
             x="363.3136"
             y="0"
             dx="0em"
             dy="0.94999999em"
             style="font-weight:200;font-size:12px;font-family:Roboto, sans-serif;text-anchor:middle;visibility:inherit"
             fill="#212121"
             stroke="none"
             stroke-width="1px"
             id="text4855">200k</text><text
             x="545.22388"
             y="0"
             dx="0em"
             dy="0.94999999em"
             style="font-weight:200;font-size:12px;font-family:Roboto, sans-serif;text-anchor:middle;visibility:inherit"
             fill="#212121"
             stroke="none"
             stroke-width="1px"
             id="text4857">300k</text><text
             x="727.13416"
             y="0"
             dx="0em"
             dy="0.94999999em"
             style="font-weight:200;font-size:12px;font-family:Roboto, sans-serif;text-anchor:middle;visibility:inherit"
             fill="#212121"
             stroke="none"
             stroke-width="1px"
             id="text4859">400k</text><text
             x="909.04443"
             y="0"
             dx="0em"
             dy="0.94999999em"
             style="font-weight:200;font-size:12px;font-family:Roboto, sans-serif;text-anchor:middle;visibility:inherit"
             fill="#212121"
             stroke="none"
             stroke-width="1px"
             id="text4861">500k</text><text
             x="1090.9547"
             y="0"
             dx="0em"
             dy="0.94999999em"
             style="font-weight:200;font-size:12px;font-family:Roboto, sans-serif;text-anchor:middle;visibility:inherit"
             fill="#212121"
             stroke="none"
             stroke-width="1px"
             id="text4863">600k</text><text
             x="1272.865"
             y="0"
             dx="0em"
             dy="0.94999999em"
             style="font-weight:200;font-size:12px;font-family:Roboto, sans-serif;text-anchor:middle;visibility:inherit"
             fill="#212121"
             stroke="none"
             stroke-width="1px"
             id="text4865">700k</text></g><line
           x1="0"
           y1="0"
           x2="1396"
           y2="0"
           fill="#000000"
           stroke="#cccccc"
           stroke-width="1px"
           id="line4869" /></g></g></g><text
     xml:space="preserve"
     style="font-size:24px;font-family:serif;-inkscape-font-specification:serif;fill:#000000;fill-opacity:1;stroke:none;stroke-width:1;stroke-linecap:round;stroke-linejoin:round;stroke-dasharray:none;stroke-opacity:1"
     x="91.054451"
     y="25.888088"
     id="text5125"><tspan
       sodipodi:role="line"
       id="tspan5123"
       x="91.054451"
       y="25.888088">Average number of step per each episode</tspan></text><text
     xml:space="preserve"
     style="font-size:24px;font-family:serif;-inkscape-font-specification:serif;white-space:pre;inline-size:663.259;fill:#000000;fill-opacity:1;stroke:none;stroke-width:1;stroke-linecap:round;stroke-linejoin:round;stroke-dasharray:none;stroke-opacity:1"
     x="773.73181"
     y="29.921888"
     id="text5125-9"
     transform="translate(-22.976459,-0.76988397)"><tspan
       x="773.73181"
       y="29.921888"
       id="tspan8109">Total number of done / total number of training steps</tspan></text><text
     xml:space="preserve"
     style="font-size:24px;font-family:serif;-inkscape-font-specification:serif;fill:#cc3311;fill-opacity:1;stroke:none;stroke-width:1;stroke-linecap:round;stroke-linejoin:round;stroke-dasharray:none;stroke-opacity:1"
     x="1172.4108"
     y="387.87589"
     id="text5470"><tspan
       sodipodi:role="line"
       id="tspan5468"
       x="1172.4108"
       y="387.87589">Monte Carlo</tspan></text><text
     xml:space="preserve"
     style="font-size:24px;font-family:serif;-inkscape-font-specification:serif;fill:#0077bb;fill-opacity:1;stroke:none;stroke-width:1;stroke-linecap:round;stroke-linejoin:round;stroke-dasharray:none;stroke-opacity:1"
     x="961.42834"
     y="234.18079"
     id="text5470-2"><tspan
       sodipodi:role="line"
       id="tspan5468-7"
       x="961.42834"
       y="234.18079">Policy-based Monte Carlo</tspan></text></svg>
