<svg viewBox="0 0 1456 400" xmlns="http://www.w3.org/2000/svg"><g><g><g><g><g><line x1="60" y1="368.2870966312189" x2="55" y2="368.2870966312189" style="visibility: inherit;" fill="rgb(0, 0, 0)" stroke="rgb(204, 204, 204)" stroke-width="1px"></line><line x1="60" y1="332.55895191875385" x2="55" y2="332.55895191875385" style="visibility: inherit;" fill="rgb(0, 0, 0)" stroke="rgb(204, 204, 204)" stroke-width="1px"></line><line x1="60" y1="296.8308072062888" x2="55" y2="296.8308072062888" style="visibility: inherit;" fill="rgb(0, 0, 0)" stroke="rgb(204, 204, 204)" stroke-width="1px"></line><line x1="60" y1="261.10266249382374" x2="55" y2="261.10266249382374" style="visibility: inherit;" fill="rgb(0, 0, 0)" stroke="rgb(204, 204, 204)" stroke-width="1px"></line><line x1="60" y1="225.3745177813587" x2="55" y2="225.3745177813587" style="visibility: inherit;" fill="rgb(0, 0, 0)" stroke="rgb(204, 204, 204)" stroke-width="1px"></line><line x1="60" y1="189.6463730688937" x2="55" y2="189.6463730688937" style="visibility: inherit;" fill="rgb(0, 0, 0)" stroke="rgb(204, 204, 204)" stroke-width="1px"></line><line x1="60" y1="153.9182283564286" x2="55" y2="153.9182283564286" style="visibility: inherit;" fill="rgb(0, 0, 0)" stroke="rgb(204, 204, 204)" stroke-width="1px"></line><line x1="60" y1="118.19008364396356" x2="55" y2="118.19008364396356" style="visibility: inherit;" fill="rgb(0, 0, 0)" stroke="rgb(204, 204, 204)" stroke-width="1px"></line><line x1="60" y1="82.46193893149851" x2="55" y2="82.46193893149851" style="visibility: inherit;" fill="rgb(0, 0, 0)" stroke="rgb(204, 204, 204)" stroke-width="1px"></line><line x1="60" y1="46.733794219033484" x2="55" y2="46.733794219033484" style="visibility: inherit;" fill="rgb(0, 0, 0)" stroke="rgb(204, 204, 204)" stroke-width="1px"></line><line x1="60" y1="11.005649506568425" x2="55" y2="11.005649506568425" style="visibility: inherit;" fill="rgb(0, 0, 0)" stroke="rgb(204, 204, 204)" stroke-width="1px"></line></g><g transform="translate(50, 0)"><text x="0" y="368.2870966312189" dx="0em" dy="0.3em" style="text-anchor: end; visibility: inherit; font-family: Roboto, sans-serif; font-size: 12px; font-weight: 200;" fill="rgb(33, 33, 33)" stroke="none" stroke-width="1px">0.06</text><text x="0" y="332.55895191875385" dx="0em" dy="0.3em" style="text-anchor: end; visibility: inherit; font-family: Roboto, sans-serif; font-size: 12px; font-weight: 200;" fill="rgb(33, 33, 33)" stroke="none" stroke-width="1px">0.061</text><text x="0" y="296.8308072062888" dx="0em" dy="0.3em" style="text-anchor: end; visibility: inherit; font-family: Roboto, sans-serif; font-size: 12px; font-weight: 200;" fill="rgb(33, 33, 33)" stroke="none" stroke-width="1px">0.062</text><text x="0" y="261.10266249382374" dx="0em" dy="0.3em" style="text-anchor: end; visibility: inherit; font-family: Roboto, sans-serif; font-size: 12px; font-weight: 200;" fill="rgb(33, 33, 33)" stroke="none" stroke-width="1px">0.063</text><text x="0" y="225.3745177813587" dx="0em" dy="0.3em" style="text-anchor: end; visibility: inherit; font-family: Roboto, sans-serif; font-size: 12px; font-weight: 200;" fill="rgb(33, 33, 33)" stroke="none" stroke-width="1px">0.064</text><text x="0" y="189.6463730688937" dx="0em" dy="0.3em" style="text-anchor: end; visibility: inherit; font-family: Roboto, sans-serif; font-size: 12px; font-weight: 200;" fill="rgb(33, 33, 33)" stroke="none" stroke-width="1px">0.065</text><text x="0" y="153.9182283564286" dx="0em" dy="0.3em" style="text-anchor: end; visibility: inherit; font-family: Roboto, sans-serif; font-size: 12px; font-weight: 200;" fill="rgb(33, 33, 33)" stroke="none" stroke-width="1px">0.066</text><text x="0" y="118.19008364396356" dx="0em" dy="0.3em" style="text-anchor: end; visibility: inherit; font-family: Roboto, sans-serif; font-size: 12px; font-weight: 200;" fill="rgb(33, 33, 33)" stroke="none" stroke-width="1px">0.067</text><text x="0" y="82.46193893149851" dx="0em" dy="0.3em" style="text-anchor: end; visibility: inherit; font-family: Roboto, sans-serif; font-size: 12px; font-weight: 200;" fill="rgb(33, 33, 33)" stroke="none" stroke-width="1px">0.068</text><text x="0" y="46.733794219033484" dx="0em" dy="0.3em" style="text-anchor: end; visibility: inherit; font-family: Roboto, sans-serif; font-size: 12px; font-weight: 200;" fill="rgb(33, 33, 33)" stroke="none" stroke-width="1px">0.069</text><text x="0" y="11.005649506568425" dx="0em" dy="0.3em" style="text-anchor: end; visibility: inherit; font-family: Roboto, sans-serif; font-size: 12px; font-weight: 200;" fill="rgb(33, 33, 33)" stroke="none" stroke-width="1px">0.07</text></g><line x1="60" y1="0" x2="60" y2="377" fill="rgb(0, 0, 0)" stroke="rgb(204, 204, 204)" stroke-width="1px"></line></g></g><g transform="translate(60, 0)" clip-path="url(#clip_0)"><clipPath id="clip_0"><rect width="1396" height="377"></rect></clipPath><g><g><g><line x1="181.40332599248327" y1="0" x2="181.40332599248327" y2="377" fill="rgb(0, 0, 0)" stroke="rgb(66, 66, 66)" stroke-width="1px" opacity="0.25"></line><line x1="363.31360125925926" y1="0" x2="363.31360125925926" y2="377" fill="rgb(0, 0, 0)" stroke="rgb(66, 66, 66)" stroke-width="1px" opacity="0.25"></line><line x1="545.2238765260353" y1="0" x2="545.2238765260353" y2="377" fill="rgb(0, 0, 0)" stroke="rgb(66, 66, 66)" stroke-width="1px" opacity="0.25"></line><line x1="727.1341517928112" y1="0" x2="727.1341517928112" y2="377" fill="rgb(0, 0, 0)" stroke="rgb(66, 66, 66)" stroke-width="1px" opacity="0.25"></line><line x1="909.0444270595872" y1="0" x2="909.0444270595872" y2="377" fill="rgb(0, 0, 0)" stroke="rgb(66, 66, 66)" stroke-width="1px" opacity="0.25"></line><line x1="1090.954702326363" y1="0" x2="1090.954702326363" y2="377" fill="rgb(0, 0, 0)" stroke="rgb(66, 66, 66)" stroke-width="1px" opacity="0.25"></line><line x1="1272.8649775931392" y1="0" x2="1272.8649775931392" y2="377" fill="rgb(0, 0, 0)" stroke="rgb(66, 66, 66)" stroke-width="1px" opacity="0.25"></line></g><g><line x1="0" y1="368.2870966312189" x2="1396" y2="368.2870966312189" fill="rgb(0, 0, 0)" stroke="rgb(66, 66, 66)" stroke-width="1px" opacity="0.25"></line><line x1="0" y1="332.55895191875385" x2="1396" y2="332.55895191875385" fill="rgb(0, 0, 0)" stroke="rgb(66, 66, 66)" stroke-width="1px" opacity="0.25"></line><line x1="0" y1="296.8308072062888" x2="1396" y2="296.8308072062888" fill="rgb(0, 0, 0)" stroke="rgb(66, 66, 66)" stroke-width="1px" opacity="0.25"></line><line x1="0" y1="261.10266249382374" x2="1396" y2="261.10266249382374" fill="rgb(0, 0, 0)" stroke="rgb(66, 66, 66)" stroke-width="1px" opacity="0.25"></line><line x1="0" y1="225.3745177813587" x2="1396" y2="225.3745177813587" fill="rgb(0, 0, 0)" stroke="rgb(66, 66, 66)" stroke-width="1px" opacity="0.25"></line><line x1="0" y1="189.6463730688937" x2="1396" y2="189.6463730688937" fill="rgb(0, 0, 0)" stroke="rgb(66, 66, 66)" stroke-width="1px" opacity="0.25"></line><line x1="0" y1="153.9182283564286" x2="1396" y2="153.9182283564286" fill="rgb(0, 0, 0)" stroke="rgb(66, 66, 66)" stroke-width="1px" opacity="0.25"></line><line x1="0" y1="118.19008364396356" x2="1396" y2="118.19008364396356" fill="rgb(0, 0, 0)" stroke="rgb(66, 66, 66)" stroke-width="1px" opacity="0.25"></line><line x1="0" y1="82.46193893149851" x2="1396" y2="82.46193893149851" fill="rgb(0, 0, 0)" stroke="rgb(66, 66, 66)" stroke-width="1px" opacity="0.25"></line><line x1="0" y1="46.733794219033484" x2="1396" y2="46.733794219033484" fill="rgb(0, 0, 0)" stroke="rgb(66, 66, 66)" stroke-width="1px" opacity="0.25"></line><line x1="0" y1="11.005649506568425" x2="1396" y2="11.005649506568425" fill="rgb(0, 0, 0)" stroke="rgb(66, 66, 66)" stroke-width="1px" opacity="0.25"></line></g></g></g><g><g><line x1="0" y1="2511.9757793791196" x2="1396" y2="2511.9757793791196" fill="rgb(0, 0, 0)" stroke="rgb(153, 153, 153)" stroke-width="1.5px"></line></g></g><g><g><line x1="-0.5069492742926826" y1="0" x2="-0.5069492742926826" y2="377" fill="rgb(0, 0, 0)" stroke="rgb(153, 153, 153)" stroke-width="1.5px"></line></g></g><g><g><g><g><g><path stroke="rgb(0, 119, 187)" stroke-width="2px" d="M0.8410058654341274,297.8288100450398L0.9174081810461733,299.6280249007074L0.9410565168308542,297.3983720480559L2.1416643335915753,317.6796681341463L3.316804711814948,292.10174864361056L4.804830763497176,320.8476598484975L5.09406810117135,335.43037744328694L6.387450158318126,335.7761652961516L6.882246107043757,335.59315594369247L7.0441462520311875,333.737507658612L7.73358619529227,335.8030510337492L7.957335833870404,335.3642278809799L8.173809061437868,337.82533765285064L8.646775777131484,351.9149282288319L9.392607905725267,342.4779012343506L9.42898996077862,342.3002157903266L9.832830771870865,337.05616598167865L10.749658559215415,323.7877882818233L13.858505163524617,321.69682324390806L14.071340185586743,318.567296768001L14.626166525150412,319.2775061532534L14.802619492159183,318.99720237414135L15.392008784023538,319.2031045328718L16.814547136609725,328.3433236320921L16.874577527447762,327.0304478119778L16.95825625407048,327.2643004899929L17.254770002755322,329.4833055257741L17.57493208722485,328.27304804074777L17.929657123995064,327.38448772291696L18.579076806697454,326.5236117289491L18.821017472802264,326.2680641240607L19.24850661967919,327.11270219730125L19.45042702522531,327.29371508409724L19.92157463816626,326.5003196295452L20.996664364992906,325.78012791597683L21.16584092099101,324.82688211065863L21.216775798065704,324.7327820290669L21.493279416471204,327.85166068810366L24.869534125422565,331.3811457852033L26.152001566053336,326.63820885801624L26.532194041360896,326.7106140127346L27.7000580085736,330.6306077935544L27.73280185812162,330.6149022636707L28.336743972007316,335.16817495285454L28.402231671103355,335.14421736489624L29.042555840042407,339.5252616162022L29.186264957503163,341.0437733996252L29.48823601444601,342.08366581472586L29.899353236548922,341.5065541403528L30.179495060459757,343.46668412847356L30.230429937534456,343.63545202586863L30.87257320922617,346.8542870657758L31.632958159841294,347.94009819112983L31.856707798419432,349.03203181118437L32.52613761140117,346.6662200003032L34.296124589746896,341.69741625775384L34.5271506393357,344.112873514793L35.04741402659868,344.02875576151723L35.07833877339404,344.2361219950673L35.47126496797027,345.34562451295795L36.12614195893066,342.6774147029588L37.31765426192805,342.7800330380468L37.67601750420359,340.53321058069184L38.75474543653558,339.65223683238116L39.045801876962415,339.79491757844386L39.080364829263104,339.9374652267957L39.14949073386448,340.2821882979733L39.544236031193385,340.2040599416871L39.91897119824294,339.2536091882974L40.29188726253983,339.57157961958825L40.348279447872535,339.94891162993133L41.394263530656495,341.1274918597683L42.292900290474364,347.54799233487915L42.31654862625905,348.04032076742203L43.02054139154147,348.71033464398886L43.204270769560914,348.85141821752103L43.20790897506625,348.89494116897856L43.29886411269964,349.56974656313713L43.762735314629914,347.69546459853353L44.16475702296949,347.30948123698334L44.47764269642835,347.4109016926734L44.708668746017146,346.9398688938712L46.71877728771503,345.45769278551836L46.75334024001572,344.92503574657906L49.021761372592415,350.3410477976832L49.52201462957605,350.7772089962349L50.6644111582514,346.80623879214835L50.74627078212145,347.1854341704437L51.35567020426515,346.4541953468723L52.59811738433723,346.37513530661L53.8351072561513,348.4618412177771L54.01156022316008,347.97709935475433L54.400848212230976,347.88073661207767L55.073916230718055,346.7195921823659L57.89352549735308,349.1610034930265L58.00085255976047,348.67799190024516L58.82490610671896,350.1485885077515L59.055932156307776,350.0370526260346L59.59256746834477,348.4196492434283L59.77811594911688,348.1136576061166L61.58630408526863,347.571417531994L62.76690177175,347.89870480304637L64.3076818032596,347.3884081795348L64.35679757758163,347.42647412484627L64.37135039960296,347.30495591481343L64.50050669504238,347.2467922151591L65.06624765112205,347.43246352183587L65.38095242733357,346.2168821283744L65.63744591545972,347.0323718029324L66.10677442564801,347.25171683046165L66.5870175523523,346.5287300649648L67.33648788645141,345.730676190532L68.70991046471558,346.80610569443746L68.78813188308028,346.752467316953L69.46665720982537,348.4880614668203L69.59035619700677,348.8824299841559L69.65766299885547,348.83784225101135L69.72496980070419,348.5829601346773L69.77954288328422,348.24236309253695L69.83957327412224,348.4019472478813L71.40036343591119,349.4237383743024L72.77560511692802,350.855470450232L73.66878456848788,350.889676561928L73.90708702908736,351.0182489506375L76.22462393598609,350.2413576122345L76.94135042053718,351.4208695260476L78.14013913454524,352.52451574465954L78.65676431630288,352.600115244439L78.78955881724764,352.5498043097266L79.0787961549218,353.0398700811845L80.09931279916842,352.5569915861141L83.86485549719069,352.687294245065L83.97945897060875,352.44452402042106L84.08496693026348,352.34177258762213L84.73984392122388,351.9080071478662L85.34560513786224,352.90663927259425L85.66212901682643,352.83969112402195L85.7203403049118,352.5821470534703L85.80401903153452,352.7139137872409L85.95864276551127,352.2129340034909L87.02463697857458,353.5769193445829L87.6613229420083,353.03720812696696L88.6309047091802,352.66014231204565L88.63818112019088,352.6143566995031L88.75824190186695,352.55313175249864L89.01109718448777,352.91968284826044L89.65505955893215,353.7459534373997L90.12256896636778,353.76565189860986L90.45364566735331,353.045992575885L91.30498575560182,351.93156544269186L91.75066593000541,351.47197904702534L93.14773684405426,350.62574380125415L94.01726795982944,351.1550733974215L94.14642425526887,351.21297090165405L94.41201325715836,352.11896701961007L94.44293800395371,351.77304606903454L95.12146333069877,350.5919369826908L95.15238807749412,350.82805232179084L95.4470827234263,351.1275221712695L95.81272237671253,352.0072980401822L96.30206101718015,351.9986466889751L98.25213916804,351.36842902796116L98.28488301758802,351.3836021670014L99.36906825817799,350.70134330103366L101.22637216865179,349.14276910663597L101.54653425312131,349.31699401017715L101.56654438340065,349.2709422022129L101.62111746598069,349.2251565896704L102.17776290829701,348.9653498580338L104.89914062628799,347.9894774418661L105.03739243549073,347.8249686712192L105.89237072924459,347.59124909091497L106.69095683766572,347.367245643505L106.82375133861046,347.338496537955L106.8910581404592,347.3591266831413L107.73876002320235,347.56729150295666L107.99889171683384,347.69147166720717L108.79565872250234,348.32940899545207L109.02850387484379,347.903496320638L110.52562544028936,347.44936693111754L110.77302341465219,347.8997695847334L111.06044164957369,347.5800688832011L112.07913919106764,347.2219029432247L113.80001039509133,347.29870032240206L114.27115800803229,346.621232974026L115.17525207610815,345.5528576487971L115.40082081743896,345.56323927024573L116.09571806895804,344.8458426086058L116.18485410383877,344.7048921327845L116.48864426353427,344.528936959002L117.60011604541428,343.51845913800565L118.46964716118949,344.1247192110613L119.22093659804125,344.21735521783336L119.85034615046428,344.2796449465249L120.45065005884464,345.1869720415897L120.50704224417736,345.2736186513722L120.54160519647805,345.0300498404629L120.9272549800436,345.0213984892557L121.65125787560537,345.1836445988177L122.54807553267058,345.36811802609657L122.58081938221859,345.20533952569104L123.3084604832857,344.60147521143125L123.76141706869997,343.9591456587273L124.2343837843936,343.48957693474483L125.07117105062076,343.05101997739723L125.20032734606016,342.8022603557637L125.6278164929371,342.92444405435094L125.7569727883765,342.55909083798707L126.87026367300918,341.6010535150772L128.37284254671275,341.6190217060459L129.10594095603784,340.85983236318987L129.64075716532219,340.55716816865015L129.76081794699823,340.3415498770255L129.79901910480427,340.4347182746411L129.99002489383437,340.78503144967567L130.0737036204571,341.1948393014733L130.19012619662783,341.0711915280663L131.18881360784243,340.9886709473211L131.2415675876698,341.121236267357L132.01650536030627,341.0992751450619L132.04379190159628,341.0198158116669L132.43489899341984,340.59137428034614L132.80781505771674,340.4164838882506L133.74465297534064,340.11741333190463L133.85016093499536,340.0547243100804L134.52868626174043,339.94997641161837L134.7160538452652,340.1094274692519L135.23267902702287,340.0953191118987L136.0494561629707,339.2011686902109L136.46784979608427,339.08537368174586L136.84258496313385,338.3251195572028L139.2310668773866,338.7696659115399L139.31292650125667,338.7494350594863L139.57305819488815,338.48856354616265L139.67856615454286,338.263096023933L139.92778323165837,337.5830998190502L140.01873836929173,337.86819511575385L140.85734473827156,337.2503555418517L141.60499596961802,336.6041661555323L142.5654822230266,335.9979060824767L144.39549959221037,335.6088614735762L145.89625936316128,334.7856521317872L145.9508324457413,334.8971880135041L146.25826081094215,334.9522904658082L147.124153721212,334.3541493531162L147.33153143501613,334.22770652778075L148.26836935264004,334.4985603694203L148.84684402798837,334.28240968695224L149.12516674914656,334.3934131778256L149.23977022256463,334.1262860720907L150.35488020994995,333.83586686695185L150.94245039906164,333.2005914929245L151.32082377161655,332.78532663498083L151.43542724503462,332.7504550347304L151.6955589386661,332.7686894211209L152.15943014059638,332.65355990121026L152.23947066171377,332.74167058581236L152.79793520678274,332.54415358286735L153.13628831877895,332.21486984615177L153.74568774092268,330.88735327784076L155.430176889893,331.0586500317425L157.15832450492738,330.32727811046027L157.30385272514079,330.28867977430525L157.31294823890414,330.29959378659737L157.50395402793424,330.1714206910205L158.27161538956005,329.3370311415176L158.56085272723422,328.9638251602118L160.28536213676327,328.43489485717714L160.954791949745,328.1636417224049L161.00208862131436,328.1931894142201L161.14397863602244,327.9496206033109L161.3877384048799,327.857916280515L161.78612190771415,327.91421661221693L161.9134591004009,327.6911448487831L163.0922376841296,327.8318291291826L163.1249815336776,327.92020600920654L163.22685128782703,327.7153686321631L164.93498877258205,327.9131518305299L168.63140556600294,327.6782343708278L168.79330571099038,327.91235324426464L168.81695404677504,328.1036146547983L169.18805100831926,328.12451099540635L169.74833465614094,327.41549948955185L171.0308020967717,326.15386628812615L171.0871942821044,326.30173784491313L172.45152134660523,325.7968982275476L173.33196707889644,325.89645531528544L176.38078329236757,324.6430741719342L176.50630138230167,324.622310929037L176.51539689606503,324.60620610602064L176.77189038419115,324.0920496488935L176.86830283008257,324.1917398343422L176.93015232367327,323.9826433305507L177.02292656405933,323.9594843288576L177.19392222281007,324.1625914356596L178.43273119737685,324.91126605935614L178.80746636442638,325.0970704637438L179.00756766721986,325.07923537048595L179.67154017194355,324.9614438963577L179.8843751940057,325.0621988634934L180.33187447116194,325.07577483000307L180.41737230053735,325.1163696318213L180.71024784371684,324.69245342267044L182.620305734018,325.16827773906425L182.83314075608013,325.01747803263794L184.49943887752377,324.69684564712946L184.70135928306993,324.54271849793116L184.826877373004,324.3561155072782L185.01606405928146,324.03481763321537L185.27073844465494,323.7932452879693L186.53319575500637,323.75611102663396L186.86427245599188,323.9803806694657L187.41546059005023,323.6629426290184L188.91440125824846,323.24288625348305L189.2163723151913,323.0014470059478L189.24911616473932,323.0287320366781L189.250935267492,323.0206130763145L189.42193092624274,322.97150002099994L190.1877731851159,322.8135130381861L190.86084120360297,323.31382733338177L191.59757781843342,323.14585802225196L192.70723049756072,323.1660888743056L193.00920155450356,323.10100409368556L193.24022760409238,322.9864069646184L195.38494974948767,322.86023033470474L195.45771385959438,322.8329453039745L196.09803802853344,322.48196664038556L198.56110315564555,322.0925227383525L201.12603803690715,321.45498470324014L201.69541719849215,321.25307547583617L202.03013210498298,320.9709083287718L202.70865743172808,320.747836565338L203.097945420799,320.6586610990488L203.23073992174372,320.58998268023504L204.0620698797129,320.16580027566243L204.5859714724812,319.8370489297903L205.2299338469256,319.0867771335632L205.64287017178117,318.90456636736934L205.67197581582388,318.7897030428804L205.96121315349805,318.5865959360785L206.24499318291421,318.33291169914236L206.9107847903906,318.0197327854431L207.32735932075153,317.7365008566918L207.9785981062066,317.2211465201668L208.23145338882742,317.2367189523397L208.70260100176833,316.98902411239317L208.84267191372376,316.9077014110459L209.26288464959003,317.018971097341L210.77819724256227,315.5620835540552L212.91928118245224,314.32334315890074L213.82883255878608,314.2203255306801L215.16405397924424,313.2982245897077L215.19134052053423,313.2665473345184L215.2095315480609,313.2019949447419L215.85713212801062,312.61862767795753L216.1136256161368,312.7442719170277L216.86673415574126,312.553010506494L217.52343024945432,313.1209384388163L218.60943459279696,311.76028054049635L220.1065561582425,311.93197658753076L222.70059668354676,310.72251768876976L223.21904096805707,310.7028192275596L223.69200768375066,309.9675874726619L223.79387743790008,310.17162626344L224.66522765642793,309.77845562550226L226.5534563136971,309.0187338918027L226.98458366607935,308.34432779077684L227.15376022207744,308.52906741347743L228.33799611406414,307.79130680207294L228.4580568957402,307.7601619377272L229.5768050886309,307.53056838646023L230.0388571878085,307.5288381162188L230.18438540802194,307.5152621497091L231.03026818801243,306.9996416177624L233.13860827835438,306.29515543407774L233.2441162380091,306.102829241857L233.32415675912648,305.949500678924L233.34962419766384,305.85020978660793L233.53517267843594,305.8629871668524L233.7516459060034,305.86910966155284L234.65755907683194,304.926511673105L234.76306703648666,304.85916423140003L235.23785285493295,305.1022006514658L236.04917268262278,304.6833421553283L236.66948672128248,304.56448589951304L237.10607138192273,304.7018427371406L237.25887601314682,304.6865365003894L239.10344620435197,303.5501482449012L239.25625083557605,303.3150976874882L239.27262276035006,303.28235565061186L239.3563014869728,303.1424699564776L239.4909150906702,303.1797373155239L239.86565025771978,302.99260193402745L240.0548369439972,302.7011179472016L240.19672695870528,302.80812850674863L240.47141147435815,302.75236056589017L240.82067920287034,302.89850185243574L241.5956169755068,302.49015807545777L242.2723231994992,302.0442807440118L242.41057500870195,301.852087649502L243.09273854095238,301.5262644532692L243.18733188409107,301.5615353466523L243.63483116124735,301.3126426273078L244.42250265315252,300.73233660787366L247.24393102254018,299.0537082782628L247.43675591432296,299.17296382721076L247.69870671070714,299.041330191151L247.76601351255584,299.14847384840897L248.60098167603036,298.46461780991064L249.31588905782877,298.68795576876624L249.5232667716329,298.7356047492611L251.04767487836847,298.4502432571357L251.29325374997865,298.1974907041757L252.24646359237653,298.44345527388083L252.2610164143979,298.51745760112976L254.707709616736,298.48405007569903L254.74772987729472,298.4957626742564L254.96966041312018,298.2903929063695L255.28072698382636,298.4076519896543L255.6118036848119,298.0747746147449L255.82100050136867,297.74389370549875L255.94651859130275,297.7658548277938L256.6596068703485,297.3316900949053L256.92155766673267,297.2025853153523L258.7934143992278,296.74353131052925L259.42646215715615,296.64770095869613L259.69932757005637,296.38336890488966L259.74480513887306,296.3650014207883L261.61302366586284,295.8347401406448L263.024647401933,295.6177908719114L263.550368097454,295.0704930847753L263.69953452317276,295.06902900995567L263.8032233800748,295.2218251820452L265.2002942941237,294.33432964590145L265.7769498667193,293.8873875327684L266.3772537750997,293.85224973709626L266.9320801146634,293.2527776472955L267.1994882193055,293.0082771524101L267.3286445147449,293.05872118483336L268.3273319259595,292.5952749555513L268.3309701314649,292.58023491422193L268.91854032057654,292.2397709697925L270.00818286942456,291.84992777462674L270.43203381079616,291.6075568431154L271.8272856220923,290.81469377940687L272.26387028273257,290.76824267830995L272.7331987929208,290.37107910904587L273.32986449579585,289.97737608026466L273.3917139893866,290.07214165041074L273.4626589967406,289.83709109299775L273.9083391711442,289.78198864069367L273.94108302069225,289.77520065743886L273.95199763720825,289.84534315107226L274.5359296208146,289.23628802608823L274.9761524869602,289.1413893582312L276.0930815770982,288.2078420141231L276.1913131257422,288.25189735642425L277.408292867277,287.82358892281434L278.1559440986234,287.1996268542118L278.4069802784916,287.01329005898066L280.54260691012354,285.78679465322705L280.70996436336895,285.6418512460794L280.85367348082974,285.4786734525413L280.9064274606571,285.4632341180793L281.19748390108396,285.2118125422281L281.7286619048629,285.1947760352355L282.42901646464,284.9911365375901L283.6623681309487,284.8966371628657L283.8224491731835,284.7173545463112L284.07894266130967,284.47791176443917L284.08076176406234,284.46899421781023L284.1535258741691,284.3886032004391L284.6774274669374,284.3352310183764L284.99940865415954,284.04773996287696L285.9944578598688,283.63393917975293L286.0581264562122,283.63566944999434L286.4183088012404,283.3195623866558L286.54928419943246,283.1113975668404L286.9785924490621,283.15279095492394L287.1823319573609,283.19019141168104L287.28602081426294,283.22386513253355L287.44428275374503,283.45332558608965L287.7608066327092,283.35816072281085L287.7844549684939,283.3709381030552L288.0755114089207,283.0658781497197L288.3756633631109,283.08610900177337L288.8668211063312,283.063349293213L290.6004260296236,282.8087333723007L290.6440844956876,282.7291409411949L290.9133117030824,282.70824460058674L291.0333724847585,282.63384298020526L291.67369665369756,282.3078866862616L291.88835077851235,282.3149408649382L291.9956778409197,282.1632094745357L293.2672306650345,282.21059225960875L293.4036633714846,282.1228808681392L294.12220895878835,281.7215912698379L295.1081626507343,281.25055847103573L295.3719325498711,281.0849849187017L295.8467183683174,280.7361358184869L295.8812813206181,280.7101817648654L298.0350989797767,279.8363952929422L298.4516735101376,279.3886545935439L298.5953826275984,279.23319646723684L298.88825817077793,279.12192678094164L298.9082683010572,279.1108796709387L299.14657076165673,279.19552981505797L299.3612248864715,278.9100352252217L299.96152879485186,278.8551989683393L300.0561221379906,278.87117069364484L300.28896729033204,278.9134957657045L300.70190361518763,278.6598115287684L300.73282836198297,278.6648692417818L300.7401047729937,278.6488975164763L300.7801250335524,278.62281036514395L301.0875533987532,278.40266675134944L302.402764688932,277.9086080485651L302.6065041972308,277.7792370735903L304.48745644348924,276.90052598636464L304.8239904527328,276.59706320555966L306.3775042035111,275.8783355668109L306.865023741226,275.56848409588366L307.2233869835016,275.60894579999103L307.4907950881437,275.57300941805363L308.1238428460721,275.39332750836644L308.14931028460944,275.4399117071742L308.453100444305,275.0006892612722L308.8187400975912,274.5100910989708L309.9738703455352,274.1491301070659L310.7106069603657,273.64522217367653L311.0435027641039,273.6500136912682L311.09625674393124,273.5230384750892L311.15810623752196,273.5871915717331L311.28180522470336,273.6713093250089L311.749314632139,273.50440479556613L312.10949697716717,273.32365810419196L312.5096995827541,273.5584424661832L312.79166050941757,273.60076753824285L312.96811347642637,273.58905493968547L313.2555317113478,273.3673141533603L313.71212650226744,273.53368629195955L313.7776142013635,273.4740585174857L315.4493696310652,273.31487365527386L315.60399336504196,273.43066866373897L316.4644289670538,273.0641175679771L316.7172842496746,272.8862990262422L316.91374734696274,272.92622833950605L318.0052089985634,272.6190388227965L319.3731742685695,272.7516041428323L319.4641294062029,272.71912830137774L323.0732292674958,271.0410323626104L323.0932393977751,271.04609007562385L323.53164316116806,270.6947121189022L324.1574145080857,270.5491032232002L324.29202811178317,270.42665332919114L324.33750568059986,270.3728818539959L324.8068341907881,270.1790915869555L326.7350831086159,269.38636162095787L327.928414514366,269.0541497346029L328.0994101731168,269.0397751818279L328.1503450501915,269.0365808367668L333.27111929895125,267.222192842059L333.4603059852287,267.10746261528095L333.89870974862157,266.74171010578436L334.11154477068374,266.5276889866903L334.2734449156711,266.5000046628274L334.7191250900747,266.16220267261554L336.05434651053287,265.965218060514L336.6619268299239,265.5544785247402L337.9771381201027,264.96538805638806L338.15541018986414,264.82616785080825L338.75935230374984,264.4870348834875L339.50336532959096,264.09146848675397L339.7325722764271,263.9911128127509L340.3583436233448,263.7786888661874L341.5152929740415,263.48507531598744L341.7881583869417,263.4757584762259L342.9669369706704,262.7578294237425L343.0160527449924,262.7863123338707L343.59088921483544,262.9042369057098L344.1438964516464,263.0250896271883L345.137126554603,262.6159472639451L346.0666880612162,262.3010380800044L346.55056939342586,262.04442569342893L347.25638126146094,261.9368827430384L347.73298618265994,261.81656241240347L348.7716938544332,261.6459311470561L348.99908169851665,261.6483269058519L349.6084811206604,261.48648008942257L350.8236417594424,260.83376891527007L351.50034798343484,260.5486736185664L352.90651441124703,260.1214299666436L353.70873872517353,259.6417458166342L353.9288501582463,259.5461816602228L354.89843192541827,258.74812778579L355.10944784472764,258.7058027137304L355.61515840996935,258.823194894726L356.65204697899,258.49204779005805L357.85447389850333,258.1119207277866L358.25467650409024,258.03818459595936L358.42931036834636,257.76719765660886L358.60030602709713,257.7206134578011L358.60212512984975,257.71209520430483L358.7058139867518,257.5923072645134L358.90955349505066,257.58858052860876L359.1351222363814,257.49141919966684L360.30844351185215,256.8903499373355L360.48853468436624,257.01040407254874L360.83416420737314,257.08467259521944L361.59818736349354,257.102773883899L362.38767795815136,256.6526374257049L363.00981109956376,256.458314767821L363.7301757896202,256.18466587425297L363.977573763983,255.98981082552555L364.3050122594632,255.75289690016024L364.38687188333324,255.7837755690842L364.6269934466854,255.95813357033623L364.87621052380086,256.0811158551888L365.41830314409583,255.99353756143014L366.9972843334115,256.0041853783005L368.3434203703856,255.75316309558198L368.5762655227271,255.67516783700665L368.7927387502946,255.63630330542992L368.8327590108533,255.60116550975772L370.2098197946228,255.32991237498553L370.5463538038663,255.27480992268147L370.57182124240364,255.23115387351302L371.59415698940296,254.99450614356945L372.17081256199856,254.7216558362667L372.58011068134886,254.89521525125343L372.6110354281442,254.89787720547105L372.885719943797,254.61837201262432L373.1040122741171,254.54037675404896L373.26773152185723,254.45812236872553L373.3004753714053,254.44800694269873L373.40416422830737,254.36175962604887L373.41507884482337,254.3700116841234L373.4350889751027,254.41446631955708L373.5533306540261,254.3085205416971L373.7825376008622,254.0726713980188L373.87895004675363,253.98083397751205L374.47379664687594,253.79795772276378L374.9322105405482,253.75909319118696L375.10684440480435,254.03034632595916L375.4488357223059,253.84400953072804L375.63802240858337,253.7401933162421L376.04732052793355,253.35527473637887L376.2128588784264,253.47027115857867L376.48390518857383,253.3502170233655L379.52908319653966,252.40868381660468L380.1603118517154,251.93325879334353L381.1244363106293,251.6923519366518L381.9684999878671,251.53423185612712L383.13090664682187,251.10512483625197L383.9022062139529,250.48861623945862L384.14414688005775,250.36936069051072L385.3392973885605,249.4664258199049L385.34293559406586,249.4640300611091L385.8104450015015,249.06686649184496L386.22338132635707,249.07112561859313L386.82004702923206,248.64707631173144L386.8491526732747,248.66411281872396L386.93283139989745,248.60288787171945L387.12019898342226,248.71256038548407L388.79559261862926,248.27094218078628L388.85562300946725,248.35080080731387L390.0835173675181,247.9206290057517L391.56608611094225,247.62701545555174L392.2646215679667,247.54981878324173L392.6393567350162,247.22612515038304L392.67573879006954,247.1774113882012L392.9558806139804,247.0357954238255L393.02864472408714,247.0152983763501L393.1505246085159,246.92905105970024L393.47796310399605,246.83668124834995L393.82541172975556,246.505534143682L394.0582568820971,246.53029031790555L394.2983784454492,246.51458478802184L396.3958039192751,244.93551354614877L396.54133213948853,244.91395171698625L396.9651830808602,244.56949484123044L397.272611446061,244.54260910363277L398.50414400961705,243.83559406344148L399.3736751253923,243.67268246532512L399.49373590706836,243.58723373494055L399.85391825209655,243.5049793496171L400.94537990369724,243.30932571462435L401.2455318578874,243.19991939628153L401.26008467990874,243.15546476084782L403.5867171005708,242.43726951294263L403.5994508198395,242.44711874354772L404.43078077780865,242.05022136970535L405.3657995926798,241.52208965293593L405.42764908627055,241.59103426717147L405.605921156032,241.4946715244948L406.0588777414463,241.3932510688047L406.38267803142116,241.22049024008322L408.97308035122,239.80486298717003L409.2604985861416,239.84372751874685L409.53336399904174,239.66138365484207L409.8644407000272,239.65952028688977L410.0936476468634,239.66351321821614L410.9249776048326,239.3589856557241L411.0395810782506,239.17717418266284L411.4525174031062,239.13538150144672L411.99097181789585,239.22721892195352L412.1255854215933,239.26847921232613L412.8022916455857,238.96235447730353L413.1115391135392,238.83883980160746L413.4426158145247,238.68258308903506L414.3521671908586,238.38683997546104L414.55772580191007,238.376990744856L416.3004262389658,237.21930685562705L416.3386273967718,237.13465671150777L416.9371122023995,236.94459318037198L417.44282276764113,236.9288876504882L418.763491366078,236.29321298332826L420.3297388361248,235.69986338822793L420.602604249025,235.40624983802797L421.4885072895742,234.9523866439293L421.58491973546563,234.89249267403355L422.14702248604,234.84936901570865L422.37077212461804,234.9175150436789L422.45808905674613,234.89781658246872L422.63999933201296,234.80624535738372L422.73459267515165,234.93614872320202L423.6696114900229,235.0679154569726L424.7792641691502,234.67341384192608L425.2485926793385,234.29887688351147L426.4364667768305,233.99434932101946L426.6183770520973,233.90197950966916L426.8184783548908,233.80827872121003L426.86395592370746,233.83063913663779L427.140459542113,233.81599838844105L427.78078371105204,233.76196071782402L428.11731772029555,233.6645331934603L428.1609761863596,233.70419631130235L429.4871020930544,233.2066770680352L429.488921195807,233.2008207687565L430.4785130932583,232.70356772091114L430.8587055685659,232.64606950981124L431.2225261190994,232.3487292237067L432.3849327780541,232.23879051452028L432.4067620110861,232.25529463066934L432.4522395799028,232.30427458827293L433.37998198376334,232.06709446748584L436.45608473852457,230.53886655116872L437.1582584010543,230.18030131805966L437.59302395894196,230.03149807729653L437.85679385807873,229.96361824474803L438.14785029850555,229.75492103408914L438.3934291701157,229.5776348831978L441.34765204044817,228.5117884144756L441.8097041396258,228.17664837848133L441.8187996533891,228.16227382570634L442.08256955252597,228.17744696474662L442.19899212869666,228.1833032640253L442.43911369204886,228.2943067548987L442.9211759215058,228.00095940012054L443.4323437950054,227.689244561241L443.88166217491437,227.4297040250262L444.1508893823092,227.2082294341229L445.01132498432105,226.75969014845938L445.62618171472275,226.50148058935332L445.7571571129148,226.50707069321027L447.7181498802907,225.81070346988932L448.0110254234702,225.83865398917396L448.0219400399862,225.82853856314713L449.59910212654916,225.4497424779844L451.09986189750003,225.7750332833736L451.46550155078626,225.69544085226775L452.4478170372268,225.34086855048508L452.50784742806485,225.25222547503938L452.6260891069883,225.27431969504536L452.6460992372676,225.2854999027592L452.90986913640444,225.27804643094998L454.14503990546586,224.60989592233548L454.7453438138462,224.37617634203127L455.12371718640117,224.06233193977764L455.1273553919064,224.04502923736334L456.10421357008903,223.565345087354L457.2666202290437,222.75398144183328L457.3557562639245,222.78619108786606L457.59405872452396,222.72949146303145L457.72321501996333,222.58601213070347L458.7182642256726,222.34111234268536L459.2221556881616,222.11458003876868L459.5859762386951,221.92850943895928L461.5251397730389,220.96860874809713L461.7616231308857,220.7655016412952L461.89077942632514,220.7537890427378L462.00538289974327,220.7263709142966L462.30371575118073,220.7378173174323L463.342423422954,220.19318148451384L463.9354509203237,220.04730639339L464.0518734964945,219.94402256974757L465.67451315187407,219.08740570252783L466.63136119977736,218.78979922100154L468.68876641304456,218.11552621768655L470.10584745737276,217.57381853440742L470.12221938214674,217.54187508379636L470.41873313083164,217.55997637247594L471.4501643915942,217.61827316984113L472.09412676603864,217.41277030424337L473.57851461221554,216.7448859910506L473.6039820507529,216.77895900503572L474.35709059035736,216.538052148344L474.8919067996417,216.26520184104126L475.0392541226077,216.14541390124978L475.3812454401093,216.12917598052255L475.42308480342064,216.11400284148232L476.4345059339039,215.63698064569056L476.9274827798769,215.4714070933566L477.660581189202,215.27681824005094L479.2395623785176,214.65179138976134L479.33779392716167,214.60893392685819L479.87806744470396,214.337680792086L480.2946419750649,214.1883451604793L481.8863568836492,213.8782274941303L482.0282468983573,213.77920279723605L482.4102584764175,213.9101709447414L483.05785905636725,213.72250317240142L485.14436991367717,212.99179673967356L485.33901390821256,213.02187682233233L485.67372881470345,212.95053644930096L486.1739820716871,213.01176139630547L488.0021803381182,212.82888514155724L488.8753496593987,212.56641645570303L489.9813641330207,212.38487117806358L490.26514416243685,212.40456963927375L490.2906116009742,212.39232464987282L490.3269936560276,212.3859359597506L491.80592419394645,211.90332366010193L491.87686920130056,211.9339361336042L492.12426717566336,211.9019926829931L492.29708193716675,211.92062636251623L494.2235117522419,211.40340865803896L494.4690906238521,211.38450878309405L495.1803598001452,210.9716396839462L495.18581710840317,210.97190587936797L495.3931948222073,211.23863369197025L496.47192275453926,210.6546009366315L496.6083554609894,210.586721104083L496.6974914958701,210.57873524143022L497.7180081401167,210.0322360405595L497.8853655933621,209.99496868151323L498.0163409915542,209.94279437884853L498.9731890394574,209.3598264051968L500.3902700837856,208.91820820049898L501.05424258850934,208.64402691608743L503.15166806233526,208.18936513572342L505.32549585177327,207.84331108743703L505.387345345364,207.79087058935056L505.5274162573194,207.70914859487064L506.42059570887926,207.560877744951L507.4720370999212,207.07240914602363L508.8163540341427,206.65368374759706L509.1528880433862,206.7433916047298L509.1892700984396,206.82990511680137L509.24930048927763,206.84561064668515L510.6045320400151,206.59139401890553L510.85738732263593,206.57542229359998L511.21393146215877,206.42981339789796L511.67052625307844,206.29352134195744L511.82696908980785,206.23735410796633L513.5296492663048,205.84338488376338L513.9735103379559,205.68073948106874L514.5792715545941,205.3663626879716L514.9048909473216,205.24098464432325L515.9454177218477,204.977451176782L515.9963525989224,205.02323678932456L516.6912498504414,204.6992769610441L518.1519893608337,204.26750798695133L518.7104539059027,204.29599089707955L518.89964059218,204.33565401492163L519.9219763391794,203.94328196324915L519.9674539079961,203.9243820883043L520.5859488439031,204.04044329219113L521.4463844459149,203.88445277504044L522.4123280075816,203.30547773271513L522.9580588333819,202.69589021688753L523.1527028279173,202.838837158372L523.9003540592637,202.4994379956296L524.4861051456228,202.25400581676797L525.8176883605755,201.64974220937552L526.1287549312818,201.54006969561095L526.5398721533846,201.26429123866882L527.79141484722,200.75665656937485L528.7082426345646,200.68877673682636L529.0775204933562,200.64991220524956L529.1430081924523,200.6147744095774L529.9270414788521,200.33154248082607L530.0580168770441,200.27351187888266L531.1967752002141,200.11086647618805L531.3059213653742,200.15611969788702L531.5660530590058,200.06880759955015L531.8825769379699,200.01716568772892L532.106326576548,199.90536361059023L533.8799517603991,199.44298216299526L534.5930400394449,199.36605168610694L537.2471109555871,197.949093456085L537.2616637776085,197.93977661632343L537.3580762234998,197.89638676257675L537.5181572657345,198.03640555442186L538.5204828824545,197.65973903263318L541.2436797031982,196.86700906663555L542.1768794153168,196.49486786701678L543.8559112560291,195.46389299854502L544.0651080725859,195.4370072609474L545.4858273224194,195.09388136230032L546.4062933152693,194.7371794971436L546.6445957758688,194.5718721402314L546.7501037355235,194.50479089394815L547.3431312328931,194.1568734777094L547.6105393375353,194.09831048492254L548.3527332606237,194.021646203456L549.140404752529,193.3763885011127L549.7352513526513,193.28455108060592L550.1718360132916,193.02580913065637L550.3755755215903,193.06094692632854L550.9631457107021,192.8868551204983L551.0468244373247,192.84027092169052L556.5623439834134,191.45259418806202L557.5974134496813,191.12410903761167L557.7393034643894,191.11984991086354L557.9630531029676,190.92100193080975L558.1813454332877,190.79775345053542L558.206812871825,190.77432825342063L558.6815986902714,190.72321873244297L558.7616392113888,190.7115061338856L558.808935882958,190.70192309870225L559.0381428297942,190.71603145605545L559.8476435547313,190.75356501052346L560.1769011529642,190.55099029456505L560.2642180850922,190.49083012924754L561.442996668821,190.3231270135395L562.0050994193954,190.07450048961678L562.5762976837331,189.6528469415509L563.655025616065,189.6004064434644L563.665940232581,189.62303305431394L565.1576044897686,189.48940295259104L565.1648809007793,189.48088469909476L565.2521978329073,189.4851438258429L565.9143512348783,189.27138890217057L565.965286111953,189.2162864498665L565.9980299615011,189.19552320696934L566.6801934937515,189.08505210693943L566.7384047818368,189.08931123368757L567.7370921930515,189.048050943315L567.9299170848342,189.06828179536862L568.0990936408323,188.9173489912314L568.150028517907,188.8870027131509L568.1736768536917,188.8947223803819L568.8376493584154,188.5957849217468L569.1505350318743,188.58141036897186L569.2705958135504,188.57209352921024L569.6471500833526,188.33730916721902L570.2583686082489,188.23322675731134L570.3438664376243,188.21885220453638L570.6531139055779,188.05301245678064L571.380755006645,187.836329383469L571.9519532709827,187.56028473110513L572.4212817811709,187.2363249028247L573.658271652985,186.5846785103592L574.189449656764,186.37518271343507L574.2804047943973,186.2806833387107L574.6405871394255,186.2394230483381L575.0080458954644,186.06666221961663L575.1572123211832,186.09940425649296L575.1826797597206,186.0922169801055L575.4846508166635,185.94208276223353L576.1013266498178,185.74909108145843L576.4160314260293,185.77278247399494L576.8253295453795,185.63276368214983L576.8489778811643,185.62291445154474L578.9154786081948,185.12832335791694L579.1719720963209,185.00933400439078L579.210173254127,185.0814729636874L580.245242720395,184.7753482286648L580.8109836764746,184.6792516814099L581.6605046619704,184.65981941562148L582.2389793373188,184.53683713076893L582.3099243446728,184.52272877341574L582.4481761538756,184.52672170474213L583.0448418567506,184.50196553051853L583.3213454751561,184.41678299555574L584.3600531469294,184.29912461913835L586.5229663198513,183.53514375869065L586.7194294171395,183.45741469553712L587.2706175511978,183.49015673241342L587.8090719659875,183.4523569825237L588.6622311569887,183.16247016822837L588.8568751515242,183.10364098001966L589.1988664690257,182.92741961081535L590.0738548930589,182.91464223057096L590.6814352124499,182.86433129585856L590.8742601042327,182.7064774107556L591.8820430292106,182.51295333913694L592.3677434641729,182.53824190420406L592.5387391229236,182.43123134465702" style="fill: none;" fill="none"></path></g><g><path stroke="rgb(204, 51, 17)" stroke-width="2px" d="M0.6154371241033252,279.1926016654186L0.7955282966174334,294.430825486289L0.873749714982147,360.5306092494766L1.47223452060984,275.24399187675976L1.4776918288678431,274.484536338482L1.736004419746665,254.38305525978953L2.0379754766895135,267.24189130326914L2.307202684084342,261.15506678933286L2.472741034577108,281.94306586074117L4.137220053268108,290.87019552484355L4.188154930342805,289.83216647769524L4.315492123029548,286.36230915506957L4.399170849652266,285.054091754836L4.848489229561202,290.84543935062L4.897605003883231,293.7542898218891L5.235958115879434,279.85023745487365L5.5506628920909575,281.81223081094674L5.583406741638977,280.92367049311594L7.657183879680224,309.9623966619376L8.059205588019799,310.42996892025684L8.268402404576591,314.4628295599024L8.614031927583465,319.1663695646691L9.39806521398327,318.31547589901714L9.599985619529392,313.87453767781545L9.860117313160881,320.3481441395672L10.158450164598394,322.1224697233003L10.62414046928134,329.2113869024475L10.942483450998198,328.5236710303337L11.069820643684942,329.01786283082885L11.186243219855676,333.31465623114815L11.453651324497839,331.44077355967727L11.60645595572193,330.83438038891074L11.742888662172012,330.54688933341123L12.195845247586284,331.05785144547724L14.758961026095157,325.94689934770867L15.00817810321064,327.5278339575341L15.288319927121478,323.46342916041016L15.548451620752964,325.2461398999287L15.679427018945045,323.13281444658577L15.95956884285588,328.14687141083414L16.125107193348644,324.6700930072427L16.432535558549496,327.83608825593075L17.207473331185962,321.9591588320513L17.513082593634145,321.1897209654576L17.569474778966846,321.53351235265905L18.066089830445144,321.24575510173776L18.278924852507274,321.0489035873472L18.933801843467666,324.7305193679819L19.23941110591585,324.8384616115051L20.436380717171236,334.8761585751852L20.447295333687244,334.14505284932466L20.534612265815294,334.02499871411146L20.76745741815677,330.9471141500256L21.66791328072731,332.6193537895142L22.353715018483054,336.0463536492367L23.115919071850847,335.76205693879837L23.197778695720896,336.08961040527254L23.394241793009012,335.016443562452L23.847198378423286,336.89139101561L23.974535571110028,337.21774660268625L24.189189695924828,336.714770353273L24.60940243179108,333.9189198385406L25.18423890163409,334.8158653121568L26.301167991772093,333.8160353080308L26.383027615642142,335.15246942297074L28.062059456354483,340.3151965302714L28.222140498589248,338.6526730236769L28.605971179402143,337.9030667160042L28.62052400142349,337.7173954093275L29.688337317239462,338.7628779282851L29.899353236548922,339.18918989623177L30.315927766909837,336.2566480324262L30.317746869662507,336.22217572530843L31.185458882685026,335.56919835573416L31.394655699241824,336.78664311714795L32.05317089570755,336.6760389194071L32.28237784254369,334.3702541761326L32.81355584632267,334.67558032488995L34.53806525585171,335.9139214269117L35.43488291291692,333.11035124494833L35.733215764354426,333.04220521697806L35.7514067918811,332.94916991707333L36.61002329114029,332.6228143299971L37.05570346554389,332.3813750824619L37.48683081792615,331.29263580746846L37.99799869142579,328.8258028340299L38.10896395933852,329.53388265590826L38.24903487129394,330.02461391592055L40.62842127178337,330.28548542924415L41.043176699391616,332.2386943363992L41.12139811775633,331.89104311558225L41.28329826274376,331.285448531081L42.653082635502585,333.18515215846253L43.57900593661047,331.59050848441655L44.599522580857084,331.9035543004049L45.019735316723335,331.2988913998798L45.55455152600766,332.1769369985511L46.13666440686135,331.7620714337401L46.70422446569369,331.5779972995939L46.92251679601381,332.6628767409718L47.062587707969236,332.2645152923098L47.59012750624289,333.01638426106746L47.95212895402376,332.77694147919544L51.29745891617978,330.92927905676777L53.63500595335785,331.68567334769534L54.648246186593795,331.6835437843212L55.483214350068295,332.13487812191323L57.06401464213658,333.1256574816994L57.7061579138283,334.7462552093669L57.73344445511831,334.74971574984977L58.68119698925821,335.3304210624165L58.92859496362103,334.4642211600135L58.944966888395044,334.5101398702668L59.31060654168126,334.93365678628504L60.367505240981224,332.81487432679603L61.253408281530426,332.2997861856928L61.593580496279294,331.82369567387724L63.96387138300539,334.22544386669585L64.39317963263498,335.8247459606226L64.67150235379314,337.2777736702929L64.8206687795119,337.1444097639917L65.17903202178745,336.53442295503146L65.64108412096506,336.55066087575875L65.6556369429864,336.5638375491358L65.89757760909121,336.5008823318899L66.49242420921357,335.8304691621904L66.92718976710117,334.3637323882995L67.180045049722,334.3046370046691L67.55659931952421,334.16222245402815L67.97863115814313,335.0007380325683L68.2569538793013,335.691781347454L68.9282027950357,336.78211779497803L69.1483142281085,337.13322955627785L69.18469628316186,337.331678243199L69.22107833821521,337.4436134180486L69.79591480805823,337.74840717596237L69.84684968513292,337.70022580462404L70.21430844117181,337.85222339044833L70.40895243570726,338.0003611426571L70.8127932467995,337.2124226942511L71.55134896438261,335.5805116611589L72.46090034071649,337.52174177433477L74.10536922912816,339.8021048548314L75.51517386244566,341.96680602457377L76.01906532493463,341.77674249343795L76.27919701856612,341.63233147713385L76.32103638187749,341.9518990809553L76.35741843693083,341.89480016298796L76.59754000028298,342.4941391550779L76.74306822049641,342.3747505084191L77.02321004440724,342.01605217759914L77.5107295821222,342.2938271002044L78.0128019418585,341.6254103961681L78.12194810701857,341.7269639495691L78.19471221712527,341.22558487268645L79.04059499711579,340.71768400797066L79.93377444867565,339.4175855681008L80.14842857349045,339.7020153762501L80.33033884875722,340.4514885862119L80.93791916814826,338.26695585754845L81.01614058651298,338.4329287030151L81.23807112233844,338.1668663789672L81.9911796619429,339.5237975413825L82.14762249867232,339.5170095581277L82.63696113913994,339.86971849195805L83.70113624945058,341.125628491816L84.13408270458551,341.3381855360904L85.20189602040148,340.59656509107043L85.30740398005622,340.7215438415862L85.53297272138701,341.473279712633L86.04050238938133,342.2557611548929L86.88092786111383,342.5172981567709L87.64677011998695,342.2826468924905L89.59866737359945,342.88637810903947L89.81514060116692,342.65265852873523L90.73560659401682,342.05451741604327L90.7701695463175,342.19413691475575L90.8211044233922,342.3908553314355L92.09811455576497,343.8072811706139L92.24546187873105,344.0969017894875L93.10771658349557,343.1127773152453L93.8844734588847,344.06615621827433L95.28336347568622,344.6268968742092L96.39301615481354,345.55032879229043L96.75501760259444,345.2091993593066L96.85688735674383,345.5249071295125L96.96057621364588,345.8360895775485L98.06113337900987,345.9843604274681L98.68690472592759,346.2918161395995L98.85244307642034,346.711739417424L99.41818403250004,346.57637904545965L99.60191341051947,346.3344074070809L100.7352144254315,347.58352942368396L100.78433019975353,347.6619239753919L101.02081355760032,347.7722619777109L101.71207260361408,347.9371700414905L103.07458056536223,349.6485404079777L103.1837267305223,349.6867394510001L103.28559648467169,349.4773767517868L103.86952846827803,349.40550398791197L104.82091920792327,349.3681035311548L105.27023758783221,350.11824222967107L105.3502781089496,350.08643187677086L105.36483093097092,350.1174436434058L105.39393657501363,350.07817981869636L106.33805090364818,350.0801762843596L106.77281646153578,349.5702789539806L106.9347166065232,349.0860694818014L109.32501762352864,349.15208594639756L109.5360335428381,349.1644640335094L109.93441704567235,349.7084343778734L109.97443730623102,349.82369699549497L110.63295250269675,349.92258859467836L111.2860103909045,348.688107326272L112.97777595088552,350.9394551057969L114.3948569952137,351.5599566339166L115.02790475314208,352.1478492228709L115.37353427614894,352.13760069913315L116.7524141626711,351.9474040702865L117.33816524903014,352.3826335848621L117.93665005465782,352.7294862194138L118.26954585839601,351.4695832882295L120.1832419542025,353.2111668350863L121.88410302794685,354.50248082603815L122.25519998949108,354.3089567544195L122.4116428262205,354.7252863940502L122.66449810884131,355.13083511909974L122.85004658961343,355.0970283005364L123.20295252363097,355.47688916738616L123.67410013657192,355.972545042701L123.73413052740995,355.96322820293943L123.88693515863405,355.6854532803341L124.36717828533834,355.00226273039027L124.4654098339824,354.6942746274153L124.55090766335778,354.82990119480144L124.6400436982385,354.93664555892667L124.74009434963523,354.98216497604744L126.18264283250076,356.0303094492226L126.67016237021572,356.5804022882872L126.83933892621383,356.1390502790111L127.0157918932226,355.42524725556495L127.72888017226835,356.04668046766085L128.05086135949054,355.70382076443553L128.12362546959727,355.58456521548754L128.24368625127335,355.5008467553444L128.5347426917002,355.3745370277199L128.54747641096887,355.418592370021L128.6802709119136,355.70555103467694L128.80396989909502,355.7317712837202L129.68077742588088,356.1451727737116L130.3265589030779,356.23501372855515L131.19245181334776,356.3643847035299L132.3712303970765,356.31580403905895L132.87694096231812,356.0433530248888L132.98244892197283,355.6511140709273L134.65056614616918,356.7841748836435L134.72514935902856,356.64309131011134L135.1126182453468,356.65560249493404L135.4909916179017,356.0172658735565L135.81479190787655,355.63740500670673L136.9517311282939,355.8534225914639L137.1390987118187,355.9776027557144L137.19003358889336,356.0171327758456L137.9322275119818,356.9820911797211L138.1814445890973,357.05130198937843L138.37063127537473,356.8261006625705L138.52343590659885,356.6329758840845L138.63440117451157,356.7278745519415L138.9363722314544,356.38208669907686L139.04733749936716,356.35826220882944L139.82773258026162,356.7300041153156L140.85734473827156,356.82583446714875L141.27028106312716,356.8637673147494L141.33940696772854,356.9738391216466L141.94334908161423,357.0596871451638L144.2081320086856,357.9499777332361L144.33910740687767,357.68524638629697L146.9440625486979,358.13671382159987L147.37155169557482,358.69213056909956L147.49888888826158,358.7248726059759L148.50849091599218,359.48193238545787L148.5921696426149,359.29759205588994L148.75770799310766,359.59093941066806L149.33254446295066,360.0672961179054L149.5071783272068,360.153809629977L149.67635488320488,360.28544326603674L150.55316240999073,359.9803833127012L152.39227529293782,360.0205788213867L152.77428687099808,359.79511129915704L152.79793520678274,359.7338863521526L154.8953606806087,358.4228738999906L156.1523606827021,359.3617451525338L156.92366024983323,359.2607239899763L156.94730858561792,359.1157805828287L157.28748080036678,358.66790678571954L159.2502926704953,359.42123982929684L159.68869643388823,359.0765167581192L159.96156184678838,359.40686527652184L160.34175432209594,359.86738335616457L160.51274998084673,359.9910311295715L160.61280063224345,359.99369308378914L160.76560526346753,359.70926327563984L160.87293232587493,359.7320229842002L161.13306401950643,359.43601367520444L162.71568341432737,359.59439995115093L162.8794026620675,359.7012774129871L163.48516387870586,359.9186259748531L164.18733754123562,360.1286541626208L165.02230570471008,360.4305197708953L165.04413493774211,360.55403444659134L166.2192753159655,361.0825654564934L166.2574764737715,360.9952533581565L166.56854304447768,361.8051529288576L167.3689482556515,361.8834143828547L170.79068053341956,362.4759653916897L170.80159514993557,362.50657786519196L171.01624927475038,362.2234790341515L171.37825072253125,362.11207625014544L171.42918559960594,362.1336380793079L171.62201049138872,361.98230598203804L171.64383972442076,361.94490552528094L172.36056620897185,362.00306922493525L172.62433610810868,361.8213908495849L173.47749529910985,362.1525379542528L173.94136650104014,362.07587367278626L174.270624099273,362.20244959583255L174.84000326085803,362.5059123766376L175.40028690867967,362.4048912140801L175.431211655475,362.3532493022589L175.5276241013664,362.55648950677175L175.75319284269722,362.49499836434546L175.81322323353524,362.2594154160889L176.02060094733937,362.1852799911291L176.11701339323076,362.36522809623807L176.50084407404367,362.39317861552274L177.03384118057534,362.47543300084624L177.14298734573538,362.55316206399976L177.72510022658906,362.70875328801776L177.8342463917491,362.6001455559402L178.05981513307995,362.4377663486673L178.75289328184635,362.0523153779606L179.62060529486885,361.2106054543594L180.6065589868148,361.79743326162657L181.01403800341237,362.0942411568876L181.8817500164349,362.4721055580742L182.2874099302798,362.1933989514928L182.86588460562817,362.4910054330191L183.78453149572536,362.89948230770796L186.02020877875407,364.1632450725077L187.22263569826742,364.5477643592383L188.64517405085363,364.85854751414166L188.703385338939,364.7860092617124L191.19373700734116,364.34572203412336L191.28469214497454,364.0815230780278L191.5866632019174,363.9832969673988L194.76281660807533,364.9084591557214L195.74331299176322,364.7479433164009L195.86337377343932,364.7716347089374L195.97797724685736,364.522741989593L197.08035351497404,363.8864018338786L198.3737355721208,363.7828518148144L198.55200764188226,363.5480674528232L198.99223050802786,363.86670337266844L200.69491068452484,363.0070252580985L200.72765453407288,363.09793099462905L200.77858941114758,363.16727490199725L200.87682095979164,363.31221830914495L201.12058072864914,363.08475432125203L201.41345627182864,362.84145170576454L201.46984845716133,362.76425503345445L202.1720221196911,362.837591872149L202.53220446471929,363.0835564418541L202.8378137271675,363.30755988926416L203.15069940062634,363.1909662945338L203.49269071812788,363.4157683282091L204.31128695682838,363.48457984473373L204.4568151770418,363.3753066241017L204.51502646512716,363.28346920359496L204.65145917157727,363.41164229917183L204.8788470156607,363.24500396515083L205.0989584487335,363.5388837107725L205.4827891295464,363.3701158133774L205.59193529470645,363.0396341972639L206.49784846553501,363.0558721179912L206.7543419536612,363.03284621400906L206.86166901606856,363.30276837167247L207.24004238862346,363.4740651255742L208.55161547329692,363.38542205012857L208.99547654494785,362.69264846500135L209.3429251707074,362.55688879990436L210.21063718372994,362.64872622041116L210.77273993430427,362.4533387808402L211.10563573804245,362.3724153726256L211.43125513076998,362.3689548321427L211.82054311984086,361.8305745916355L212.08795122448305,362.0046663974658L212.81195412004482,361.7907783760826L213.05753299165497,361.76509051788287L213.17213646507304,361.7598997071586L213.3431321238238,361.90297974635394L214.80932894247402,361.48265717539687L214.83297727825868,361.38642753043104L215.40235643984371,361.3647326035577L216.07360535557808,361.48957825636256L217.42701780356293,361.7360752169112L218.02368350643795,362.2745885551292L218.08735210278132,362.2437098862052L218.1237341578347,362.1936651469145L218.3820467487135,362.2700632329593L218.42388611202483,362.22787125861055L219.77911766276233,362.54224805170765L220.0410684591465,362.8306707911833L220.04288756189916,362.8513009363696L220.1756820628439,362.68759075198795L220.55769364090412,362.5845731237673L220.94698162997503,362.2996109247745L221.1689121658005,362.2087051882439L222.96982389094157,362.4915378238626L223.3809411130445,362.5004553704915L223.67927396448198,362.52042002712346L224.39781955178577,362.49566385289984L224.79438395186733,362.5753893817166L225.15274719414288,362.8551607699851L225.69302071168522,363.1113738634279L226.0331929264341,362.7677155739373L226.35881231916161,362.7566684639344L226.70626094492115,362.7667838899612L226.93910609726262,362.98093810676613L227.3975199909349,362.9648332837497L228.18701058559273,363.5483336482449L228.27250841496812,363.3349780177053L228.61995704072766,363.8334289449486L228.68544473982368,363.7024607974433L229.20752722983931,363.9918152208951L229.52405110880352,363.9854265307729L232.0926241955704,364.5295299728478L232.4600829516093,364.1245136386418L232.8602855571962,364.2779752992858L233.02036659943096,364.1311685241858L233.5042479316406,363.59624882416153L233.55336370596262,363.5641722758396L233.96811913357087,363.29784375636996L234.0390641409249,363.1269462956008L234.89768064018406,363.5235774740214L235.08686732646154,363.5709602590945L235.8490713798293,363.3373737765011L236.37661117810296,362.80418434671833L236.7258789066152,362.9331560285604L236.90051277087127,362.8945576924054L237.23522767736213,363.1160322833087L237.7354809343458,362.95485095543376L237.89556197658058,362.90946463602387L238.6450323106797,363.2600440064802L240.11486733483522,363.80294956915725L240.73881957900028,363.62193668236125L241.18268065065124,364.1324995012946L241.26817848002662,364.0957645330919L241.6010742837648,363.9492239534137L241.71567775718285,363.9328529349755L242.42148962521796,363.970918880287L242.71618427115015,363.7974925630112L242.99996430056632,363.9214065318399L243.07090930792035,364.0750012901947L244.26060250816508,364.242438210481L244.8227052587394,363.9903511460754L246.08516256909084,364.3088539682098L246.5090135104624,364.1052144705643L246.83463290318997,364.03826632199196L247.02200048671472,363.96213443136895L247.05838254176808,363.90556790424523L247.2057298647342,363.7260190922689L247.59501785380507,363.55738429258474L250.00714810384255,363.7915031660216L250.60927111497554,363.7089825852764L250.85848819209104,363.95441476413794L251.64070237573816,363.6793017957503L252.95591366591697,363.4530356872553L253.21058805129047,363.17126783332367L253.29790498341848,363.42774712218824L253.71811771928475,363.56523705752664L254.0328224954963,363.4304090764058L254.08557647532365,363.4144373511003L254.6349455066293,363.5821404668083L254.65131743140333,363.68010038201555L254.87688617273412,363.60263751428374L256.29032901155693,363.35667294457863L257.97117995502197,362.97947403194644L258.4259556431889,362.94194047747845L258.8807313313559,363.10112533969016L259.7247950085937,362.9966436366499L260.3323753279847,363.3328484543312L261.8622407429783,363.16408055693614L262.5353087614654,362.73417495079576L263.08831599827636,362.70422796584785L263.21929139646846,362.74442347453345L263.34299038364986,362.79127386876297L263.9287414700089,363.2288991421344L264.67275449585003,363.0741065043817L264.8564838738694,363.2368850047872L265.23303814367165,363.3103549411926L266.1953434998329,363.53395909547L266.63738546873117,363.6675891971929L267.79069661392253,363.3409674146949L269.5588644895156,363.67278000791714L269.9699817116185,363.6436316092346L271.39433916695737,363.03604055907016L271.9910048698324,362.91931386662895L272.3002523377859,362.6380784035408L273.91743468490756,362.7942020184023L274.9270367126382,362.659906428125L275.0325446722929,362.6887886313859L275.14714814571096,362.7695789418896L276.0821669605822,362.67042114728446L276.5041987992011,362.84650941877794L276.77888331485394,362.84464605082565L276.8843912745087,362.8825788984263L277.3227950379016,363.1156329901761L277.5610974985011,363.1916317830882L277.9594810013353,363.031781432322L278.4160757922549,363.0637248829331L278.4251713060183,363.0256589376216L278.49975451887764,363.1844445067007L278.6143579922957,363.1663432180211L279.0054650841193,362.9528544897706L279.38020025116884,362.7698451373114L283.2530700115985,362.89801823288826L283.6987501860021,362.88643873204177L284.4700497531332,362.51762497519496L284.4900598834126,362.47396892602654L284.5682813017773,362.5980159925661L284.80294555687146,362.32396780586544L284.90845351652615,362.52427986073894L285.0921828945456,362.46598306337376L286.1509006965983,363.10525136872747L287.04044194265276,362.8711324952906L287.57889635744243,362.8426495851624L288.0482248676307,363.02419486280195L288.2064868071128,362.80884276659907L288.3647487465949,362.7353728301936L289.7127038863217,362.4573317121666L290.43306857637816,362.74495586537694L291.39719303529205,362.6865259703009L291.5372639472475,362.8346637225097L291.5809224133115,362.8242821010611L293.89664021745756,363.17512766693915L294.074912287219,363.31594504504955L294.102198828509,363.3874185157918L294.9062422451882,363.20294508851293L295.00265469107956,363.3738425492821L295.0390367461329,363.3383054604773L295.09179072596027,363.3325822589095L296.9090743758754,363.2103985603222L298.15152155594745,363.42495207025974L298.19518002201147,363.43426891002133L299.6140801690923,363.5387506130616L299.79417134160644,363.530631652698L300.5600136004796,364.3318798721919L300.70918002619834,364.2195454042097L300.92929145927116,364.30526033001604L300.96567351432446,364.24549945783116L301.61691229977953,364.0788611238102L301.6514752520802,364.1199883164719L301.7260584649396,364.06874569778336L303.1431395092678,363.83209796783984L303.7652726506802,364.22566789891016L303.90534356263555,364.5081012413962L304.37467207282384,364.27291758627234L304.66209030774536,364.3364051943618L305.1332379206863,364.26972324121124L305.28786165466306,364.23671500891317L306.35021766222104,364.7540658111013L308.513130835143,364.4545959616227L309.7737690427418,364.05397185187576L310.73607439890304,363.9186114799114L310.80338120075174,364.09709551020063L311.32910189627273,363.9711850757088L311.3363783072834,363.98436174908585L312.1386026212099,364.51369134525316L312.1822610872739,364.4886689756078L312.38418149282,364.39802943449894L313.6029803371074,364.80357815954847L315.4675606585919,364.85069474919976L315.6330990090846,364.94253216970657L316.3461872881304,364.7580587424277L316.3607401101517,364.76018830580176L317.68322781134117,365.0914685081806L317.75235371594255,364.96582426911044L317.8560425728446,364.9537123774204L318.3381048023016,364.9809974081507L318.549120721611,364.86240734775714L318.72921189412517,364.7046865603651L319.1275953969594,364.75326722483607L319.68969814753376,364.8174203214799L320.1080917806473,364.8693284287229L320.48646515320223,364.7989197396677L321.1540758634313,364.75978901266916L321.17772419921596,364.7836135029166L322.80218295734824,364.6884486396378L322.84584142341225,364.8407124208838L324.2119875906658,364.3804605366629L324.29384721453584,364.2606725968715L324.42664171548057,364.2488269006032L324.9141612531955,364.52713421405196L325.33073578355646,364.32469259580444L325.42169092118985,364.33627209665093L325.88374302036743,364.30858777278803L325.9437734112055,364.3675500587076L326.19480959107364,364.38139222063904L326.63503245721927,364.24576565325293L326.6768718205306,364.32136515303245L326.77874157468,364.16311197479683L328.1630787694602,364.3881802038939L329.3145708118988,364.2693239480786L329.3364000449309,364.2846301848297L329.49648108716565,364.3209658598998L330.59158094427164,364.7464792415812L331.8849630014184,364.92270061078557L332.50345793732544,364.6684839830059L332.9909774750404,364.64505878589114L332.9982538860511,364.634144773599L333.1255910787378,364.8842353723414L335.96521047565216,365.2981692531763L336.45818732162513,365.28472638437745L336.4836547601625,365.3737687529558L336.4927502739258,365.35060975126277L336.5909818225699,365.2401386512329L337.10214969606955,365.1875650554355L337.871630160448,365.046880775036L338.75753320099716,365.33783237101835L338.8393928248672,365.4200867563418L339.0940672102407,365.62093120205884L339.574310336945,365.6916060865358L340.132774882014,365.65340704351337L340.8931598326291,365.56463087035684L341.2624376914207,365.4878334911794L341.271533205184,365.46906671394544L345.47184146109385,365.41436355477396L345.63192250332867,365.36099137271134L346.144909479581,365.2678229750958L347.72389066889656,365.7384564807653L347.8985245331527,365.59364617132854L348.1459225075155,365.51844596468163L348.3878631736203,365.76334575269976L348.5006475442857,365.77053302908723L348.61525101770377,365.85265431669984L348.7353117993799,365.68907723002906L348.87174450582995,365.6705766482168L348.97361425997934,365.7086425935283L350.1050961721387,365.4054460081451L351.24021628980336,365.1912917913402L353.85608604813956,365.0893389448065L353.8870107949349,365.0490103384101L354.050730042675,364.9676876370628L354.1107604335131,364.9583707973012L354.39090225742393,365.24546255966806L356.66659980101133,365.3338394396919L356.89216854234206,365.5381444258918L357.66346810947323,365.47226105900654L358.22011355178955,365.5282951952867L358.58939141058113,365.323857111376L359.0951019758228,365.48570392780533L360.7213798367077,365.1884967394117L363.0625650793911,364.99803391514325L363.7701960501789,364.74781021869L364.64518447421204,364.5860964999715L365.23457376607644,364.73130610254094L365.29642325966716,364.6590340455335L366.1222959093783,364.6974992839776L366.173230786453,364.64319541793884L367.5484724674698,364.5521565836973L367.8140614693593,364.3837879794349L367.826795188628,364.39563367570315L368.4216417887503,364.4535311799357L368.6799543796291,364.6084569153993L369.43124381648096,364.82513998871093L369.94786899823856,364.87278896920577L370.3553480148362,364.782016330386L371.55595583159686,364.9372082612714L372.5819297841015,365.01746618093165L372.6837995382509,365.04022588949204L373.2386258778146,364.8739868486037L373.95899056787096,364.5765134647882L375.09047248003037,364.41346876896097L375.13413094609433,364.3945688940161L376.12190374079296,364.21022856444813L376.3947691536931,364.3016666918223L376.5766794289599,364.1693675672082L378.25571126967225,364.702556996991L378.3866866678643,364.67899870216536L381.22266785927343,364.9743425226067L381.86663023371773,364.90566410379296L381.8702684392231,364.9097901328302L382.28684296958403,364.85854751414166L382.3050339971106,364.87545092342333L384.482499992054,365.28485948208834L384.79538566551287,365.1846369057962L385.30473443625976,365.28805382714944L387.203877710045,364.95118352091373L388.70463748099587,365.15029769638926L389.3485998554402,365.3631209360854L389.68695296743647,365.70890878895005L389.9525419693259,365.7759900352333L390.3909457327189,365.75682396486667L390.8784652704339,365.79608778957606L391.8334942155844,365.3142740761927L392.2391541294293,365.22137187399886L392.83036252404634,365.0520715857603L393.2724044929446,364.9955050586366L393.3706360415886,365.03743083756353L394.11101086192446,365.23295137484536L394.37841896656664,365.23747669701527L394.72768669507883,365.43539299309293L394.94052171714094,365.4731927429827L395.4171266383399,365.70012434003206L396.23390377428774,365.6508781870067L396.95608756709686,365.4339289182733L398.25492693250163,365.377894781993L398.8079341693126,365.14124705204944L399.0717040684494,364.88037553872584L399.2536143437162,364.84577013389725L400.1940904668454,364.43037217824264L400.74709770365644,364.4711000777717L400.92718887617053,364.5043745054916L401.29282852945676,364.3435924707493L402.42976774987415,364.3415960050861L402.50980827099147,364.25934161976267L403.2592786050906,364.4334334255929L404.08333215204914,364.6728762074649L404.35619756494924,364.54936153176885L405.71324821843945,364.19811667275815L406.9211324462108,364.2196785019206L407.55236110138657,364.1705654466061L407.98166935101614,363.9677245352259L408.21815270886293,363.8301015021766L408.4509978612044,363.8134642883167L408.6201744172025,363.9864913124599L410.0099689202406,364.0809906871843L410.0627229000681,364.1523310602156L410.21188932578673,364.2609387922932L410.8594899057365,364.0905737223676L410.8795000360158,364.0376008334376L411.0686867222933,364.04332403500536L411.1050687773467,363.97783996125276L412.42391827303084,364.06541825501137L412.80774895384366,364.42185392474636L412.8313972896284,364.40069138871655L413.2807156695373,364.3466537180995L414.31032782754727,364.262269769402L414.45949425326603,364.2588092289191L414.7432742826822,364.3192355896584L415.21806010112846,363.9678576329368L415.3672265268472,363.91022632412603L415.4381715342012,363.8607139756789L416.3459038077825,363.81426287458197L417.3300383969757,363.9492239534137L418.7416621330459,364.02815089596515L419.73671133875513,363.7085832921437L419.9822902103653,363.76887655517214L419.98774751862334,363.780056762886L420.17875330765344,363.75809564059085L420.4734479535856,363.6473583451392L421.18289802712604,363.7405267427548L421.68133218135705,363.9063664905105L421.746819880453,363.901441875208L421.8359559153338,363.9431014587132L422.24161582917867,363.96027106341666L422.3507619943387,363.91701430738084L422.3853249466394,363.95973867257317L422.5599588108955,364.04585289151214L424.0043263965137,364.12544532261796L424.13530179470587,364.0615584213959L424.6537460792161,364.255614883858L424.950259827901,364.1973180864928L426.05263609601764,364.3526431150891L426.1399530281457,364.2440353830115L426.28548124835913,364.1615148022663L426.3036722758858,364.12717559285943L426.3200442006598,364.1135996263497L426.3782554887452,364.21089405300256L427.6297981825806,364.24376918758975L428.0427345074362,364.2305925142127L428.6484957240745,364.3172391239952L428.6575912378379,364.29527800170007L429.3179255370563,364.39044286497887L429.64536403253646,364.37979504810846L429.69447980685845,364.33880095315766L429.94005867846863,364.2717197068744L429.97280252801664,364.30206598495494L430.55491540887033,364.0821885665822L431.3844262640868,364.0718069451336L432.2848821266574,364.0518422885017L432.823336541447,363.92899310136L434.4477952995793,363.4497082444833L436.3760442174071,363.5009508631719L437.13461006526967,363.3685186408469L437.3438068818264,363.26576720804803L438.47346969123305,363.51386134112715L438.53350008207116,363.46634545834326L438.7499733096386,363.3325822589095L439.1210702711828,363.2099992671895L439.8032338034332,363.13253639945776L440.39989950630826,363.2521912415383L440.4981310549523,363.1744621783848L440.6636694054451,363.2032112839347L442.0843886552786,363.2829368127515L442.35543496542607,363.31075423432526L443.899853202441,363.84367746868634L444.5110717273374,364.0450543052468L445.1695869238031,363.9315219578667L445.29146680823186,363.9524182984748L445.5425029881,363.89265742628993L445.89177071661226,363.60769522729714L447.239725856339,363.9299247853362L447.3525102270044,363.9722498573958L448.02921645099684,364.1195890233393L450.00840024589934,364.27544644277907L450.39586913221757,364.3429269821949L450.67055364787046,364.1585866526269L451.25630473422945,364.2670612869937L452.27682137847603,364.3332108493007L452.6952150115896,364.3755359213603L452.9698995272425,364.31497646291024L453.00991978780115,364.2782414947075L453.30279533098064,364.30179978953316L453.5865753603968,364.224736214934L453.6029472851709,364.24350299216803L453.6520630594929,364.24390228530063L455.08369692584245,364.51555471320546L455.3474668249792,364.4431495584871L455.8040616158989,364.25801064265386L456.68086914268474,364.4242496835422L458.00335684387414,364.2395100608416L458.05974902920684,364.2811696443469L459.2148792771509,364.0111143889726L459.6551021432965,363.8511309404956L459.95707320023934,363.8556562626655L460.02438000208804,363.91475164629594L460.21174758561284,364.02881638451953L461.02306741330267,363.84527464121686L461.38324975833086,364.0257551371693L461.4159936078789,364.02761850512167L461.536054389555,363.9931461980039L462.3291831897181,363.9291261990709L463.0422714687639,364.0780625375449L463.2951267513847,364.2375135951784L463.38062458076,364.20264199492806L463.74626423404624,364.2564134701233L465.1615261756218,364.40401883148854L465.21973746370713,364.39430269859434L466.28755077952314,364.38392107714577L466.600436452982,364.3700789152143L466.65319043280937,364.41666311402207L466.8605681466135,364.5540199516496L466.88967379065616,364.6020682252771L467.257132546695,364.62216597961987L467.64460143301335,364.82833433377203L468.4504639524451,365.06791021335493L468.59781127541123,364.97527420658287L469.02166221678283,364.7337018613368L469.7984190921719,364.8106323382251L470.53515570700233,365.01294085876174L470.72070418777446,365.0669785293788L471.30099796587547,365.1779820202522L472.0340963752006,365.3126769036621L472.40883154225014,365.3906721622375L473.0273264781572,365.46600546659516L473.5384943516568,365.46201253526885L473.68947988012826,365.4053129104342L474.04966222515645,365.2983023508872L474.99741475929636,365.38934118512867L475.75416150440617,365.4775849674417L477.5605305378052,365.24679353677686L478.0407736645096,365.16600322627306L478.59378090132054,365.459616776473L478.7756911765873,365.70850949581745L479.17407467942155,365.7131679156982L480.1054552887874,365.6916060865358L480.1618474741201,365.7388557738979L480.7985334375539,365.9540747723899L480.92405152748796,365.88792521008287L481.0623033366907,365.83375444175493L481.1514393715714,365.8373480799487L481.3569979826229,365.89764134297707L482.1410312690227,365.8002138186134L482.6467418342643,365.78663785210364L483.0433062343459,365.92865310961196L483.21612099584934,365.9643232961276L483.21975920135463,365.96605356636906L484.20571289330064,365.88992167574605L484.7314335888216,365.97576969926325L485.4427027651147,365.9233292011768L485.67554791745613,365.9102856255106L487.2399762847504,366.162505787627L487.756601466508,366.3292772193589L488.04947700968756,366.36428191732017L489.1027375034822,366.27417476705483L489.1609487915676,366.2822937274185L489.22461738791094,366.2499509836748L489.35923099160834,366.22492861402947L489.5247693421011,366.14440449894744L489.8085493715173,366.1433397172604L490.0141079825687,366.07905352290567L491.5385160893043,366.1389474928014L491.70041623429177,366.20376607799966L491.72042636457104,366.1775458289564L491.74225559760316,366.196711899323L492.44988656839087,366.0901006329086L492.54447991152955,366.1334904866554L493.3921817942728,366.1027449154422L493.40673461629416,366.10168013375517L493.4412975685948,366.1086012147209L493.47404141814286,366.1595776379877L493.6159314328509,366.3038555565809L493.697791056721,366.3018590909178L493.70324836497895,366.29999572296543L493.823309146655,366.26871776090877L494.15074764213523,366.3505728530996L494.836549379891,366.3488425828582L497.47424837125925,366.36255164707876L497.69981711259,366.26712058837825L497.8180587915134,366.25008408138564L498.69668542105194,366.1273679919549L500.0864799240901,365.97443872215445L500.3429734122163,365.91521024081317L502.83514418337114,366.0646789701307L503.5409560514062,366.0540311532603L503.8956810881764,366.1857978870309L504.9835045342717,366.11206175520374L505.28365648846193,366.0271454156627L506.569762134598,366.31104283296844L506.9863366649589,366.2665881975347L507.4720370999212,366.1919203817314L507.93954650735685,366.43761875601473L509.58219629301584,366.46516998216674L509.7531919517666,366.40154927636644L510.27709354453486,366.329144121648L511.8196926787972,366.10061535206813L511.96885910451596,366.1421418378625L514.5410703967882,365.7483057113704L514.5501659105514,365.7282079570276L515.0958967363517,365.6025637179574L516.014543626449,365.52762970673234L516.6985262614521,365.6462197671259L517.8172744543427,365.83827976392485L518.0719488397162,365.7904976857191L518.2629546287463,365.9270559370814L518.4030255407018,365.9483515708221L519.0942845867155,365.9454234211828L520.3858475411097,365.850258557904L520.5022701172803,365.8076672904226L520.5914061521611,365.8645000129681L520.6605320567625,365.7585542351081L520.7714973246752,365.73672621052384L521.1225841559401,365.6217297883241L521.1298605669508,365.64342471519745L521.8302151267279,365.42394658995727L522.6797361122237,365.3741680460884L522.9289531893392,365.3243895022195L522.9635161416398,365.2901833905235L523.8676102097157,365.31400788077093L524.2896420483347,365.30402555245496L525.0372932796811,365.55784288710197L525.8413366963603,365.476120892622L525.9122817037144,365.53348600601106L526.2306246854312,365.5615696230066L526.2815595625058,365.55491473746264L527.0164770745837,365.524701557093L528.0242599995615,365.6821561490633L528.4335581189118,365.7262114913644L528.8501326492727,365.6965307018383L528.8956102180895,365.73060371582346L530.2490226660742,365.6592633427921L530.272671001859,365.6945342361751L530.5673656477911,365.78956600174297L531.1331066038708,365.85119024188015L532.588388806005,365.9201348561157L532.9849532060865,365.85318670754333L534.0636811384185,365.9552726517878L534.0782339604399,365.93504179973417L534.1491789677939,365.91387926370436L534.4238634834468,365.9797626305896L534.5894018339395,366.10500757652716L535.1606000982772,366.2092230841457L535.1624192010298,366.2049639573976L535.2333642083839,366.2341123560802L536.3612079150379,366.5133513535051L536.6031485811427,366.56312989737404L537.0197231115037,366.73509213983016L538.1766724622004,366.72923584055144L539.5209893964218,366.77369047598523L540.0321572699214,366.78487068369907L540.1522180515975,366.7488012040508L541.2127549564028,366.9465844024175L541.4383236977336,367.08127928582746L541.600223842721,367.18562789115686L542.1132108189734,367.2328775785191L543.664905466999,367.06983288269186L543.9213989551251,366.9689448178453L544.1087665386499,366.96774693844736L545.2220574232825,366.77382357369606" style="fill: none;" fill="none"></path></g></g></g></g></g></g><g transform="translate(60, 377)" clip-path="url(#clip_1)"><clipPath id="clip_1"><rect width="1396" height="23"></rect></clipPath><g><g><line x1="181.40332599248327" y1="0" x2="181.40332599248327" y2="5" style="visibility: inherit;" fill="rgb(0, 0, 0)" stroke="rgb(204, 204, 204)" stroke-width="1px"></line><line x1="363.31360125925926" y1="0" x2="363.31360125925926" y2="5" style="visibility: inherit;" fill="rgb(0, 0, 0)" stroke="rgb(204, 204, 204)" stroke-width="1px"></line><line x1="545.2238765260353" y1="0" x2="545.2238765260353" y2="5" style="visibility: inherit;" fill="rgb(0, 0, 0)" stroke="rgb(204, 204, 204)" stroke-width="1px"></line><line x1="727.1341517928112" y1="0" x2="727.1341517928112" y2="5" style="visibility: inherit;" fill="rgb(0, 0, 0)" stroke="rgb(204, 204, 204)" stroke-width="1px"></line><line x1="909.0444270595872" y1="0" x2="909.0444270595872" y2="5" style="visibility: inherit;" fill="rgb(0, 0, 0)" stroke="rgb(204, 204, 204)" stroke-width="1px"></line><line x1="1090.954702326363" y1="0" x2="1090.954702326363" y2="5" style="visibility: inherit;" fill="rgb(0, 0, 0)" stroke="rgb(204, 204, 204)" stroke-width="1px"></line><line x1="1272.8649775931392" y1="0" x2="1272.8649775931392" y2="5" style="visibility: inherit;" fill="rgb(0, 0, 0)" stroke="rgb(204, 204, 204)" stroke-width="1px"></line></g><g transform="translate(0, 8)"><text x="181.40332599248327" y="0" dx="0em" dy="0.95em" style="text-anchor: middle; visibility: inherit; font-family: Roboto, sans-serif; font-size: 12px; font-weight: 200;" fill="rgb(33, 33, 33)" stroke="none" stroke-width="1px">100k</text><text x="363.31360125925926" y="0" dx="0em" dy="0.95em" style="text-anchor: middle; visibility: inherit; font-family: Roboto, sans-serif; font-size: 12px; font-weight: 200;" fill="rgb(33, 33, 33)" stroke="none" stroke-width="1px">200k</text><text x="545.2238765260353" y="0" dx="0em" dy="0.95em" style="text-anchor: middle; visibility: inherit; font-family: Roboto, sans-serif; font-size: 12px; font-weight: 200;" fill="rgb(33, 33, 33)" stroke="none" stroke-width="1px">300k</text><text x="727.1341517928112" y="0" dx="0em" dy="0.95em" style="text-anchor: middle; visibility: inherit; font-family: Roboto, sans-serif; font-size: 12px; font-weight: 200;" fill="rgb(33, 33, 33)" stroke="none" stroke-width="1px">400k</text><text x="909.0444270595872" y="0" dx="0em" dy="0.95em" style="text-anchor: middle; visibility: inherit; font-family: Roboto, sans-serif; font-size: 12px; font-weight: 200;" fill="rgb(33, 33, 33)" stroke="none" stroke-width="1px">500k</text><text x="1090.954702326363" y="0" dx="0em" dy="0.95em" style="text-anchor: middle; visibility: inherit; font-family: Roboto, sans-serif; font-size: 12px; font-weight: 200;" fill="rgb(33, 33, 33)" stroke="none" stroke-width="1px">600k</text><text x="1272.8649775931392" y="0" dx="0em" dy="0.95em" style="text-anchor: middle; visibility: inherit; font-family: Roboto, sans-serif; font-size: 12px; font-weight: 200;" fill="rgb(33, 33, 33)" stroke="none" stroke-width="1px">700k</text></g><line x1="0" y1="0" x2="1396" y2="0" fill="rgb(0, 0, 0)" stroke="rgb(204, 204, 204)" stroke-width="1px"></line></g></g></g></g></svg>