<svg viewBox="0 0 1456 400" xmlns="http://www.w3.org/2000/svg"><g><g><g><g><g><line x1="60" y1="347.7854789265797" x2="55" y2="347.7854789265797" style="visibility: inherit;" fill="rgb(0, 0, 0)" stroke="rgb(204, 204, 204)" stroke-width="1px"></line><line x1="60" y1="311.05092651589973" x2="55" y2="311.05092651589973" style="visibility: inherit;" fill="rgb(0, 0, 0)" stroke="rgb(204, 204, 204)" stroke-width="1px"></line><line x1="60" y1="274.31637410521984" x2="55" y2="274.31637410521984" style="visibility: inherit;" fill="rgb(0, 0, 0)" stroke="rgb(204, 204, 204)" stroke-width="1px"></line><line x1="60" y1="237.58182169453997" x2="55" y2="237.58182169453997" style="visibility: inherit;" fill="rgb(0, 0, 0)" stroke="rgb(204, 204, 204)" stroke-width="1px"></line><line x1="60" y1="200.8472692838602" x2="55" y2="200.8472692838602" style="visibility: inherit;" fill="rgb(0, 0, 0)" stroke="rgb(204, 204, 204)" stroke-width="1px"></line><line x1="60" y1="164.11271687318032" x2="55" y2="164.11271687318032" style="visibility: inherit;" fill="rgb(0, 0, 0)" stroke="rgb(204, 204, 204)" stroke-width="1px"></line><line x1="60" y1="127.37816446250041" x2="55" y2="127.37816446250041" style="visibility: inherit;" fill="rgb(0, 0, 0)" stroke="rgb(204, 204, 204)" stroke-width="1px"></line><line x1="60" y1="90.6436120518205" x2="55" y2="90.6436120518205" style="visibility: inherit;" fill="rgb(0, 0, 0)" stroke="rgb(204, 204, 204)" stroke-width="1px"></line><line x1="60" y1="53.90905964114062" x2="55" y2="53.90905964114062" style="visibility: inherit;" fill="rgb(0, 0, 0)" stroke="rgb(204, 204, 204)" stroke-width="1px"></line><line x1="60" y1="17.174507230460716" x2="55" y2="17.174507230460716" style="visibility: inherit;" fill="rgb(0, 0, 0)" stroke="rgb(204, 204, 204)" stroke-width="1px"></line></g><g transform="translate(50, 0)"><text x="0" y="347.7854789265797" dx="0em" dy="0.3em" style="text-anchor: end; visibility: inherit; font-family: Roboto, sans-serif; font-size: 12px; font-weight: 200;" fill="rgb(33, 33, 33)" stroke="none" stroke-width="1px">0.052</text><text x="0" y="311.05092651589973" dx="0em" dy="0.3em" style="text-anchor: end; visibility: inherit; font-family: Roboto, sans-serif; font-size: 12px; font-weight: 200;" fill="rgb(33, 33, 33)" stroke="none" stroke-width="1px">0.054</text><text x="0" y="274.31637410521984" dx="0em" dy="0.3em" style="text-anchor: end; visibility: inherit; font-family: Roboto, sans-serif; font-size: 12px; font-weight: 200;" fill="rgb(33, 33, 33)" stroke="none" stroke-width="1px">0.056</text><text x="0" y="237.58182169453997" dx="0em" dy="0.3em" style="text-anchor: end; visibility: inherit; font-family: Roboto, sans-serif; font-size: 12px; font-weight: 200;" fill="rgb(33, 33, 33)" stroke="none" stroke-width="1px">0.058</text><text x="0" y="200.8472692838602" dx="0em" dy="0.3em" style="text-anchor: end; visibility: inherit; font-family: Roboto, sans-serif; font-size: 12px; font-weight: 200;" fill="rgb(33, 33, 33)" stroke="none" stroke-width="1px">0.06</text><text x="0" y="164.11271687318032" dx="0em" dy="0.3em" style="text-anchor: end; visibility: inherit; font-family: Roboto, sans-serif; font-size: 12px; font-weight: 200;" fill="rgb(33, 33, 33)" stroke="none" stroke-width="1px">0.062</text><text x="0" y="127.37816446250041" dx="0em" dy="0.3em" style="text-anchor: end; visibility: inherit; font-family: Roboto, sans-serif; font-size: 12px; font-weight: 200;" fill="rgb(33, 33, 33)" stroke="none" stroke-width="1px">0.064</text><text x="0" y="90.6436120518205" dx="0em" dy="0.3em" style="text-anchor: end; visibility: inherit; font-family: Roboto, sans-serif; font-size: 12px; font-weight: 200;" fill="rgb(33, 33, 33)" stroke="none" stroke-width="1px">0.066</text><text x="0" y="53.90905964114062" dx="0em" dy="0.3em" style="text-anchor: end; visibility: inherit; font-family: Roboto, sans-serif; font-size: 12px; font-weight: 200;" fill="rgb(33, 33, 33)" stroke="none" stroke-width="1px">0.068</text><text x="0" y="17.174507230460716" dx="0em" dy="0.3em" style="text-anchor: end; visibility: inherit; font-family: Roboto, sans-serif; font-size: 12px; font-weight: 200;" fill="rgb(33, 33, 33)" stroke="none" stroke-width="1px">0.07</text></g><line x1="60" y1="0" x2="60" y2="377" fill="rgb(0, 0, 0)" stroke="rgb(204, 204, 204)" stroke-width="1px"></line></g></g><g transform="translate(60, 0)" clip-path="url(#clip_0)"><clipPath id="clip_0"><rect width="1396" height="377"></rect></clipPath><g><g><g><line x1="114.62459979777381" y1="0" x2="114.62459979777381" y2="377" fill="rgb(0, 0, 0)" stroke="rgb(66, 66, 66)" stroke-width="1px" opacity="0.25"></line><line x1="233.64649839099684" y1="0" x2="233.64649839099684" y2="377" fill="rgb(0, 0, 0)" stroke="rgb(66, 66, 66)" stroke-width="1px" opacity="0.25"></line><line x1="352.66839698421984" y1="0" x2="352.66839698421984" y2="377" fill="rgb(0, 0, 0)" stroke="rgb(66, 66, 66)" stroke-width="1px" opacity="0.25"></line><line x1="471.69029557744295" y1="0" x2="471.69029557744295" y2="377" fill="rgb(0, 0, 0)" stroke="rgb(66, 66, 66)" stroke-width="1px" opacity="0.25"></line><line x1="590.7121941706658" y1="0" x2="590.7121941706658" y2="377" fill="rgb(0, 0, 0)" stroke="rgb(66, 66, 66)" stroke-width="1px" opacity="0.25"></line><line x1="709.734092763889" y1="0" x2="709.734092763889" y2="377" fill="rgb(0, 0, 0)" stroke="rgb(66, 66, 66)" stroke-width="1px" opacity="0.25"></line><line x1="828.7559913571118" y1="0" x2="828.7559913571118" y2="377" fill="rgb(0, 0, 0)" stroke="rgb(66, 66, 66)" stroke-width="1px" opacity="0.25"></line><line x1="947.7778899503348" y1="0" x2="947.7778899503348" y2="377" fill="rgb(0, 0, 0)" stroke="rgb(66, 66, 66)" stroke-width="1px" opacity="0.25"></line><line x1="1066.799788543558" y1="0" x2="1066.799788543558" y2="377" fill="rgb(0, 0, 0)" stroke="rgb(66, 66, 66)" stroke-width="1px" opacity="0.25"></line><line x1="1185.8216871367808" y1="0" x2="1185.8216871367808" y2="377" fill="rgb(0, 0, 0)" stroke="rgb(66, 66, 66)" stroke-width="1px" opacity="0.25"></line><line x1="1304.843585730004" y1="0" x2="1304.843585730004" y2="377" fill="rgb(0, 0, 0)" stroke="rgb(66, 66, 66)" stroke-width="1px" opacity="0.25"></line></g><g><line x1="0" y1="347.7854789265797" x2="1396" y2="347.7854789265797" fill="rgb(0, 0, 0)" stroke="rgb(66, 66, 66)" stroke-width="1px" opacity="0.25"></line><line x1="0" y1="311.05092651589973" x2="1396" y2="311.05092651589973" fill="rgb(0, 0, 0)" stroke="rgb(66, 66, 66)" stroke-width="1px" opacity="0.25"></line><line x1="0" y1="274.31637410521984" x2="1396" y2="274.31637410521984" fill="rgb(0, 0, 0)" stroke="rgb(66, 66, 66)" stroke-width="1px" opacity="0.25"></line><line x1="0" y1="237.58182169453997" x2="1396" y2="237.58182169453997" fill="rgb(0, 0, 0)" stroke="rgb(66, 66, 66)" stroke-width="1px" opacity="0.25"></line><line x1="0" y1="200.8472692838602" x2="1396" y2="200.8472692838602" fill="rgb(0, 0, 0)" stroke="rgb(66, 66, 66)" stroke-width="1px" opacity="0.25"></line><line x1="0" y1="164.11271687318032" x2="1396" y2="164.11271687318032" fill="rgb(0, 0, 0)" stroke="rgb(66, 66, 66)" stroke-width="1px" opacity="0.25"></line><line x1="0" y1="127.37816446250041" x2="1396" y2="127.37816446250041" fill="rgb(0, 0, 0)" stroke="rgb(66, 66, 66)" stroke-width="1px" opacity="0.25"></line><line x1="0" y1="90.6436120518205" x2="1396" y2="90.6436120518205" fill="rgb(0, 0, 0)" stroke="rgb(66, 66, 66)" stroke-width="1px" opacity="0.25"></line><line x1="0" y1="53.90905964114062" x2="1396" y2="53.90905964114062" fill="rgb(0, 0, 0)" stroke="rgb(66, 66, 66)" stroke-width="1px" opacity="0.25"></line><line x1="0" y1="17.174507230460716" x2="1396" y2="17.174507230460716" fill="rgb(0, 0, 0)" stroke="rgb(66, 66, 66)" stroke-width="1px" opacity="0.25"></line></g></g></g><g><g><line x1="0" y1="1302.883841604256" x2="1396" y2="1302.883841604256" fill="rgb(0, 0, 0)" stroke="rgb(153, 153, 153)" stroke-width="1.5px"></line></g></g><g><g><line x1="-4.3972987954491805" y1="0" x2="-4.3972987954491805" y2="377" fill="rgb(0, 0, 0)" stroke="rgb(153, 153, 153)" stroke-width="1.5px"></line></g></g><g><g><g><g><g><path style="fill: none;" stroke="rgb(51, 187, 238)" stroke-width="2px" d="M-0.017292927218573506,274.8854884962035L1.0479530651907725,277.5044639270631L2.803526069440812,269.34585870579116L3.731896878467951,258.80255989803373L3.9818428655137192,258.8928788333649L4.767387396228991,260.87921117629134L4.910213674540859,259.7809466073519L4.969724623837471,261.1301199155787L5.148257471727305,261.9050837500942L5.195866231164595,260.6176283810103L5.338692509476462,262.3871952791421L7.629864057396006,275.0239775303779L8.016685227823979,281.39194143527425L8.213071360502799,281.32851291023485L8.564185961352806,286.3929419386209L10.492340718563018,284.1302473382683L10.575656047578274,285.2647763282119L11.349298388434224,292.4259731249975L11.456418097168125,291.69144754107344L11.986065545907968,291.84108959529254L12.31932686196899,291.5571323364863L12.563321754085099,290.43040361823034L12.97989839916138,290.92893677188385L13.76544292987665,292.2814628284677L13.949926872696146,290.46776281420824L14.592645125099551,292.78177499145346L14.78903125777837,295.4264092107594L15.1520480484877,293.8582124843546L15.300825421729227,293.57227094590854L15.401994035533468,292.6153691954495L15.71740206680551,293.32861509082204L15.895934914695342,292.5177973759175L16.383924698927558,290.3864757724102L16.639821780902988,289.7539695313488L20.591348814197993,289.2505783137494L23.662113797903146,289.7242737601869L23.68591817762179,290.09697621529955L23.971570734245525,288.4486556455063L24.47741380326672,287.66294933156126L24.99515906214724,289.02430201137054L26.078258339345574,291.148849694728L26.756683161326944,293.75427728528797L26.917362724427797,292.85348275223157L27.083993382458306,294.9049542060938L27.387499223871025,296.06014707366626L27.554129881901538,295.527539048956L28.15519046979731,296.8733596088258L29.268045221643945,297.8836316392533L29.458480259393106,296.5013413880717L29.994078803062607,296.24783255822183L30.41065544813889,297.6394283966799L30.67845471997364,298.27166094399786L30.749867859129573,298.58415077555645L32.36856567999741,302.0072384246066L34.29672043720762,306.0602322241556L34.42764452566017,306.12352390232326L34.4990576648161,305.6836980566349L34.69544379749492,306.0229414516136L36.48077227639327,308.39141868380096L37.46865403471701,306.4678990549911L38.468437982900085,306.2142533782695L38.84335696346874,306.5266747863923L39.28373798826367,305.70764625918486L41.360670118715404,305.47295387419564L41.68798033984677,306.1520564750756L41.7593934790027,306.07446429881384L42.223578883516275,305.63764908430323L43.47330881874512,305.25536734817064L43.60423290719766,304.993100318531L45.401463575955326,304.3147503754455L45.96681759427313,305.75328469090147L46.311981100193485,304.93090341533707L46.57978037202824,305.1256365137859L46.68094898583247,305.09443542703514L48.2401358574037,303.849676281926L49.66244754559271,304.64441448940414L50.09687747545798,304.5545060946881L50.12663295010628,304.83278420831823L51.049052664203764,304.69607418347607L51.679868726747834,305.6135640348816L52.32258697915125,305.4936861752603L52.47731544732243,306.2309486966186L52.82843004817244,306.93728382496965L53.38188187663093,306.88658205899964L53.738947572410595,306.4581829270995L55.20291692510724,307.43109576154905L56.60142423357761,307.27303762471956L58.618845414732746,305.1180415124058L59.79121111587599,306.3051881245234L59.89833082460989,306.4965684746152L60.457733747998034,306.82985903067424L61.30278922800992,307.17471314739316L62.18950237252944,308.3045209202627L62.29662208126333,308.31211592164277L64.15931479424727,306.87337633587924L67.37885715119396,306.26180766619007L67.65855861288803,306.90813544129463L68.59288051684483,306.81863758719373L68.87853307346856,306.97607991310053L71.52677031716777,305.84462997777047L72.23495061379747,306.53680145489903L74.37734478847547,307.5953120076056L75.62707472370431,307.3210024532553L75.93653166004668,307.6112546681603L76.22218421667043,308.1968224322239L77.88253970204589,308.82036520318803L78.126534594162,308.4805744207226L78.67998642262049,308.2037331992454L78.86447036543997,308.27906740212387L78.94183459952558,308.36726521094346L79.79879226939677,308.66223864292266L80.12610249052814,309.5515380387551L81.68528936209937,310.32882827008973L81.69124045702902,310.2862004695509L82.79814411394601,311.49353199524626L83.07784557564007,310.7986235806834L83.28018280324855,310.8187400708253L84.13714047311976,309.758655779094L84.57752149791467,309.9073399052111L84.76200544073417,309.6012134531872L86.01768647089268,308.07974993347267L86.29738793258676,308.2679143820792L87.0115193241461,308.11355111078603L88.26720035430459,308.32504795101977L88.97538065093428,307.63581868163294L89.45146824530715,307.85668953257914L89.76687627657921,307.981562303018L91.47484052139197,308.64205372934487L93.36133761409455,308.4155037332226L93.84337630339708,308.15111557707144L94.75984492256491,308.0523805591299L96.46780916737765,309.98842167670153L97.08077194513277,310.51576109685084L97.71158800767684,310.9252753604545L98.73517633557856,311.4665731615187L100.33006977672774,311.52726474912373L101.1929785415286,310.8468621029625L102.22251796435998,310.4068994104025L103.2282530074727,310.04918168774253L103.71624279170493,310.22940901778964L104.70412455002867,309.0970695777934L104.92431506242615,308.73155158344576L105.49562017567361,308.90158382155016L106.75725230076178,308.44800486525463L110.25649611940253,308.905004993343L110.6433172898305,308.62919012340376L111.35744868138985,308.26435636341466L111.70856328223985,308.2628510478258L113.89261512142551,308.15111557707144L114.77337717101534,308.06565470568614L114.84479031017129,308.0345904658071L115.81481878370604,307.33160808581306L117.13001076316117,307.7269586981944L118.14764799613323,307.6298658427134L118.18930566064085,307.47748685106006L118.9331925268485,307.8898748989697L119.90917209531293,308.5232706446973L122.00990860548332,308.31943722927946L122.23009911788077,308.0807078615747L122.30746335196636,308.0603861011252L122.31936554182569,308.0504647029259L123.30724730014943,307.6993156301082L123.54529109733588,308.0421854671872L124.12254730551302,307.8054403791223L124.49746628608166,308.2859097457096L125.39013052553084,308.604215569316L125.75314731624017,308.47906910513365L126.09831082216051,307.9034911627052L126.32445242948764,308.1279884557518L126.81839330864952,308.21228612872756L126.96121958696139,308.24841370286L127.66939988359105,308.1501576489694L128.02646557937072,308.47475842867465L129.0143473376945,308.0324009158597L131.57926925237845,307.5835431766383L132.11486779604795,308.48119023164526L132.53144444112422,308.6356903498102L133.7871254712827,308.698434640491L133.9001962749463,308.46914770693445L134.77500722960647,309.0922115138476L134.85832255862172,308.9641228419234L134.89998022312938,308.95871739049073L135.38797000736156,308.65334359626127L136.32229191131836,308.74804163148724L137.76245688429637,308.6306270155568L139.04194229417354,308.1351729165168L140.02982405249728,308.4434889184881L142.91015399845327,308.42946211413744L144.44553649030584,308.90459445272785L145.022792698483,309.00004514574835L145.55244014722282,308.8042172723258L145.73097299511267,308.6585437773864L146.11779416554063,309.21824748269603L147.08187154414574,309.12005985224135L148.37921023881188,309.25369082246993L151.71182339942212,309.14996089371084L157.25824387386632,309.05649448033023L158.03188621472225,308.773495149626L158.22827234740106,308.6500592713401L158.59724023304005,308.76911604973117L159.9838453516511,309.45451360671L160.69797674321046,309.41257004052966L163.82230158128255,308.681670898706L165.04822713679275,309.28667091855294L165.79806509793005,308.8462976853778L165.88733152187498,308.82344425780155L166.69072933737922,308.62994278119817L167.74407313992924,308.48515879092497L168.06543226613095,308.5364079443818L168.13089431035723,308.5174546526494L168.35108482275467,308.44246256695027L168.61293299965976,308.3097211013878L168.9640476005098,309.1877990537397L170.8624468830717,308.5771883121525L171.92174178055137,308.96378072474414L172.39187827999461,308.7738372668053L173.3738089433887,308.8322708810271L173.8498965377616,308.833776196616L174.21886442340056,308.7663791122969L175.12938194763876,308.9895763600622L175.97443742765063,309.0975485418444L177.34318926147267,309.3899218832611L178.02756517838372,309.39676422684676L178.45009291838966,309.0230354201962L178.5334082474049,308.97979180873466L178.57506591191256,308.94941180321416L178.62267467134984,308.9741810869944L178.94403379755153,309.2937185324462L179.884306796438,309.3288197550408L181.83626593336686,310.4274948645954L182.50278856548888,310.46375928559956L183.60374112747618,310.58103705465834L183.6215944122652,310.55975736610685L184.07387762691943,310.7464164991245L185.22243894834406,310.61025386176925L186.18651632694915,310.74799023814927L188.84070466557802,310.8969480580098L189.25133021572466,311.15278328467883L190.35823387264162,311.0680066476521L191.1735338780052,310.84617786860395L191.29850687152808,310.6982464002813L191.6496214723781,310.5351933526342L191.9233718391425,310.36386106924846L192.0126382630874,310.30597484251354L192.83388936338065,310.387535578055L192.98861783155186,310.73957415553883L192.99456892648152,310.7565431676314L193.12549301493405,310.6947568050526L193.53611856508067,310.89557958929265L193.89913535579,310.93670207424265L194.4347338994595,310.70016225648527L197.10677552287734,310.56105741138816L198.3743587428952,309.9525677963125L200.48104634799523,309.1656982839579L200.76074780968932,309.1692563026225L201.36180839758507,308.9968976676989L201.68911861871646,309.14530810007255L202.25447263703427,309.2909815950119L202.52227190886902,309.4395972976932L202.9507507438046,309.26504911282217L203.33162081930294,309.1186229600883L204.5575463748131,309.08892718892645L204.8193945517182,309.1299128270047L208.3960026044446,308.4285726094713L209.27676465403442,308.5147177152151L209.8718741470005,308.8120175440135L211.1037507974404,309.12430210526446L211.27633255040058,309.0664843019654L214.1864179710049,309.71684905978543L215.26951724820321,310.26669979033164L216.31095886089392,310.7565431676314L216.61446470230663,310.6105275555127L217.2452807648507,310.463554015292L217.32859609386594,310.36550323170906L217.91180339697277,310.12923710769513L218.96514719952276,309.9665946006632L220.33985012827452,310.1951972998612L220.8635464820847,310.2218140164095L221.51221582941776,309.98315307214057L222.54175525224912,310.64952891395114L223.28564211845676,310.33437056839415L223.31539759310508,310.30139047231114L223.41061511197964,310.4343372081811L224.54132314861525,310.3307441262937L224.7496114711534,310.2420673534231L225.35662315397886,309.9246510344829L225.48159614750173,309.7391550998748L226.24333629849838,309.42420202462534L226.71942389287128,309.45458203014584L227.13600053794752,309.7345707296724L227.21336477203315,309.8360426850482L227.23121805682212,309.82988457582104L227.43355528443058,309.70323279604986L228.3202684289501,310.16235405064987L228.36192609345773,310.1698806285941L228.4988012768399,310.1486009400426L228.73684507402638,310.2662892497165L231.12918523575016,310.0974202100216L231.51600640617815,309.97350536768477L234.04522175128412,309.5462010107583L234.08687941579174,309.54428515455425L234.71769547833586,309.8383690818673L234.96169037045195,309.7257441064468L236.37209986878165,309.18786747717553L237.9669933099308,309.2001836956298L241.6328677866021,308.8084595253489L242.42436341224703,309.1178018788581L243.09088604436906,308.81646506734415L243.67409334747586,308.9277899974834L244.7095838652369,309.04424668531186L245.61415029454542,308.68940274695785L245.97121599032508,308.6849552236272L248.18502330415902,308.74769951430795L248.40521381655648,308.66463346317767L248.55994228472767,308.57937786209993L248.60755104416498,308.599904892857L249.94059630840906,308.42241450024414L251.99967515407184,308.4080455787142L252.20201238168028,308.4855693315401L252.2972299005549,308.43370436716054L254.3801131259363,308.159463236246L254.45747736002187,308.195317116635L254.49318392959984,308.26244050721067L254.7728853912939,308.15987377686116L255.034733568199,308.1012348923318L255.754816054688,307.90513332516576L255.87978904821088,308.106366650021L256.1535394149753,308.09363989095164L256.46894744624734,308.10404025320184L258.0757430772559,308.36760732812274L260.25384382151185,308.28946776437414L263.5031416531068,308.38396052929255L264.1161044308619,308.40147692887194L264.34224603818905,308.2979522704204L264.87189348692885,308.2389028452759L265.1634971384823,308.27598834751035L266.74053729484245,308.59299412583545L266.74648838977214,308.58300430420036L267.0023854717476,308.45867892124835L267.4546686864018,308.5297024476678L267.90100080612643,308.5186862744949L267.9069519010561,308.5251865009012L267.93075628077474,308.52888136643753L268.09738693880524,308.3639808860223L270.9479614101129,308.34023795378L273.2926928123994,307.90684391106225L274.107992817763,307.978209554661L276.3396534163859,308.46688973355117L276.9228607194927,308.32443214009703L277.37514393414693,308.4681897788324L278.17259065472155,308.3853974214456L279.36876073558346,308.21906004887734L280.4221045381335,308.53586055689493L280.5232731519377,308.5572086688823L280.58873519616395,308.55139267683444L282.748982655631,308.46955824754957L282.7549337505606,308.45231554171363L283.3857498131047,308.74633104559086L283.83803302775897,308.7517364970235L285.12346953256576,308.9399693690659L285.7542855951099,309.34927836236204L286.30773742356837,309.2444536586292L290.5270637286981,309.58629714417043L291.9791308915354,309.7589978962733L293.2110075419753,309.24075879309294L294.04416083212783,309.33094088155235L294.7701944135465,309.39580629874473L295.3117440521457,309.53299528763785L297.3886761825974,309.2924184871649L298.6622104975449,309.10452773230185L299.7750652493915,308.96754401371624L299.89408714798475,308.869151112954L300.27495722348306,308.77917429480215L300.8522134316602,308.7999750193027L301.7270243863204,308.8950835951438L303.20289592887633,309.39580629874473L303.98844045959163,309.4213282403194L304.97632221791537,309.23104266520124L305.7856711283493,309.2115419859821L306.29746529230016,309.08112691723875L306.67833536779847,309.08954299984913L307.4400755187951,309.15652954355306L307.9756740624646,308.84561345101923L308.29703318866626,308.78540082746514L309.9395353892528,308.605652461469L310.7488842996867,308.45587356037817L310.77268867940535,308.45498405571203L311.6534507289952,308.5132123996263L312.6770390568969,308.4777690598524L312.85557190478676,308.637195665399L313.6470675304317,308.51834415731554L315.4978580535563,308.7820480791081L315.79541280003934,308.8912518827358L316.39647338793515,308.90787877764905L316.4321799575131,308.9130105353383L316.8309033178004,308.7564577140976L317.9854157341547,308.7392834316976L318.5150631828945,308.88372530479154L320.3658537060191,309.1628929230878L320.472973414753,309.15728220134747L322.4963456908378,309.17951981800104L323.8115376702929,308.74660473933426L324.1567011762133,308.8688774192106L325.2695559280599,308.6334323764269L326.0372471739862,308.35994390330677L327.3107814889337,308.471747797497L327.9177931717591,308.46216851647705L327.99515740584474,308.50253834363264L328.25105448782017,308.5436608285826L328.32841872190573,308.5416081255069L328.57241361402185,308.6432853511903L329.0008924489574,308.56535105774924L329.6376596064312,308.68276567367974L330.67315012419226,308.9344954941974L330.7386121684185,308.9295005833798L331.74434721153125,308.5808831776888L332.0359508630846,308.5931309727072L332.81554429887024,308.65683319148997L333.7558172977567,308.4257672486011L334.73179686622115,308.27646731156136L336.8206311865322,308.2146125255467L336.83253337639155,308.21180716467654L337.49905600851355,308.46476860703956L339.26653120262296,308.64212215278076L339.9628093093933,308.68358675491004L340.91498449813906,308.55385592052534L342.42061151534335,308.211601894369L342.62294874295185,308.19141698079113L344.6879786835442,308.2093439209857L344.87246262636376,308.2291867173842L345.27118598665106,308.1739690046477L345.4497188345409,308.1419468366666L348.0682006035918,308.0906976832098L348.15746702753665,308.0480014592351L349.5619254309367,308.4245356267557L351.3353517199758,308.3849868808304L351.81143931434866,308.3619966063825L352.3113312884402,308.41741958942663L354.34660575438426,308.67051787866137L354.63225831100806,308.5797199792792L355.30473203805974,308.64526963083017L355.5546780251055,308.645338054266L356.23310284708685,308.6782497269132L359.68473790629037,308.8733933659771L360.38101601306073,308.8365815574861L361.130853974198,308.9240267085113L361.57718609392253,309.0185878968655L361.6069415685709,308.98848158508844L362.9161824530963,308.9678861308956L363.6005583700074,309.05909457089285L364.5527335587532,309.13278661131073L365.6715394055295,309.36638422132626L366.16548028469134,309.36686318537727L367.260481751749,309.4144858967337L367.8972489092227,309.32327745673643L368.0698306621829,309.21838432956775L368.1233905165499,309.1811619804616L370.0455941788304,308.7766426276754L370.19437155207197,308.7596051921471L370.70616571602284,309.07886894385547L370.8727963740533,309.17308801503043L373.07470149802793,308.7644632560929L373.25323434591775,308.8523873711691L375.9669336338432,308.91992130235985L376.23473290567796,308.9001469293972L376.4430212282161,308.9314164395838L376.64535845582463,309.01270348138183L376.9250599175187,308.95598045305644L377.17500590456444,309.0053137503093L378.24620299190343,308.94051675655277L379.81134095840434,308.8755144924887L381.0253643240552,308.8310392591817L381.32887016546795,308.9660386981274L382.24533878463575,309.1797250883086L384.0604227381824,309.17103531195477L384.7745541297418,309.0435624509533L385.173277490029,308.9981977129802L385.4529789517231,308.95748576864526L386.5717847984994,308.88126206110064L387.31567166470705,308.67544436604305L388.1785804295079,308.7245723929883L388.3035534230308,308.6389746747313L389.1902665675503,308.5603561469317L389.4283103647368,308.55802975011255L390.03532204756226,308.7121877510982L391.761139577164,308.8473924603515L393.3024731639462,308.5948415586036L393.5940768154996,308.59066772901633L393.9511425112793,308.5509821362193L395.7186177053887,308.7565261375335L395.9150038380675,308.7175932025309L398.91435568261664,308.5838253854306L399.9736505800964,308.2644247868505L400.0569659091116,308.2465662700919L400.17598780770487,308.1805376544899L400.9615323384201,308.1478312521503L401.473326502371,308.12176192308885L401.7113702995574,308.09528205341223L401.77683234378367,308.1299043119558L402.40169731139815,308.2633300118768L402.5504746846397,308.19032220581744L402.7587630071778,308.2050332445267L403.3300681204253,308.1235409324211L404.42506958748294,307.9804675280443L405.02017908044905,308.0822131771635L406.6031703317389,308.10855619996846L406.7698009897694,308.12963061821233L408.32303676641095,308.0393801063171L408.98955939853306,307.98908888096224L409.51920684727287,307.99449433239494L409.70369079009237,307.8811851226159L409.95363677713806,307.9583667582625L412.02461781266015,307.7192268499426L412.1614929960424,307.658740532645L412.3162214642136,307.73510108706137L414.68475724621874,307.7819027171875L415.34532878341116,307.7522753694614L415.5952747704569,307.7712286611938L416.2617974025789,307.86558457924053L416.71408061723315,307.98751514193754L417.4401141986519,307.78203956405923L418.1125879257035,307.85210516237674L418.9338390259968,307.8298675457232L419.58845946825954,307.7909346107206L420.36210180911553,307.7225111748637L420.9453091122223,307.6729726073033L423.36740474859437,307.5472787556341L424.3433843170588,307.6952786473926L424.58737920917486,307.5832694828948L424.80756972157235,307.5886749343275L425.00395585425116,307.66188801069444L425.56930987256897,307.7923030794378L425.7478427204588,307.7507016304367L425.866864619052,307.69842612544204L427.360589446397,307.74119077285263L428.02711207851905,307.60297543242166L429.12211354557667,307.67509373381483L429.29469529853685,307.6971260801608L429.520836905864,307.8196724537805L430.6515449424996,308.00831586643807L432.2702427633674,308.1576158034779L432.5856507946395,308.21221770529166L432.9486675853488,308.21119135375386L433.3414398507064,308.22234437379853L435.99562818933526,308.28077798802036L436.668101916387,308.26709330084896L436.80497709976925,308.2753041131518L437.6202771051328,308.48119023164526L438.7450340468388,308.5781462402545L439.11995302740746,308.44540477469207L440.1137858806608,308.44718378402433L440.17924792488714,308.46866874288344L440.4649004815108,308.38902386354596L440.72674865841594,308.39292399938984L441.9288698342075,308.36151764233153L443.1250399150694,308.27831474432946L443.4344968514117,308.24950847783373L443.7915625471914,308.3052735780571L444.45808517931346,308.1607632815273L444.48784065396177,308.1219671933964L447.48124140358135,307.90383327988457L448.55243849092034,307.9443399539118L452.41469910027047,308.0903555660305L453.4144830484535,308.0974716033596L453.5573093267654,308.1156038138617L454.52733780030013,308.08440272711096L456.1817421907459,307.8568948028867L459.8059590029096,308.2218654097475L460.799791856163,308.1048613344322L461.5853363868783,308.21276509277857L462.2875655885783,308.3240215994819L462.7755553728105,308.34714872080156L463.03145245478595,308.2325394657412L464.418057573397,308.2936415939614L465.20360210411224,308.32456898696876L465.2750152432681,308.36651255314905L465.53091232524355,308.38478161052285L465.5785210846809,308.371302193659L465.95344006524954,308.40777188497077L467.2210232852674,308.76097366086424L468.42909555598857,308.56076668754685L468.4409977458479,308.55809817354844L468.58977511908944,308.4471153605885L469.0123028590954,308.23158153763916L469.19083570698524,308.222139103491L469.2503466562818,308.25689820890625L469.6490700165691,308.3060946592874L470.51792987629966,308.40106638825677L471.4343984954675,308.39750836959223L471.52366491941234,308.4324727453151L471.81526857096577,308.44930491053594L472.29135616533864,308.39716625241294L472.6484218611184,308.3688389499682L474.2135598276192,308.43295170936614L474.6836963270625,308.33852736788356L474.6955985169218,308.3580280471028L475.66562699045653,308.25498235270226L476.552340134976,308.1866273402812L477.4390532794955,308.1165617419637L478.0163094876727,308.1225830043191L478.6649788350058,308.09028714259466L480.5157693581304,308.08365006931655L480.8787861488397,308.0510805138486L480.97400366771427,308.0263796535043L481.88452119195244,307.9902520793718L482.3427555015364,308.0122844257178L482.5986525835118,308.04601717959525L483.35444163957874,308.1230619683701L485.3599606308746,308.194838152584L486.53232633201776,308.2081122991403L487.5975723244272,308.37923931221843L488.02010006443305,308.4044191366138L488.06770882387036,308.38047093406385L488.9663241582493,308.38710800734196L489.92445044192465,308.34010110690826L490.3469781819306,308.23438689850934L490.602875263906,308.26675118366967L490.62667964362464,308.29268366585944L493.3820365960578,308.1759532842875L496.750356326246,307.9224444544376L497.7739446541477,307.99257847619094L498.73802203275284,307.9238813465906L499.80326802516214,307.94652950385927L501.4338680358893,308.03390623144855L501.79688482659867,308.05723862307576L503.2191965147877,308.1086246234043L504.4748775449462,308.0450592514932L505.2485198858021,308.03992749380393L508.1348009266878,308.1467364771766L508.30738267964796,308.1307938166219L512.1279856244904,307.80482456819954L512.1815454788574,307.7718444721165L512.4374425608328,307.7906609169772L513.7407323504286,307.66106692946414L514.9845111907277,307.5478945665568L515.4070389307337,307.61077570410936L515.8295666707396,307.4304115271905L516.4663338282135,307.38771530321577L517.3232914980846,307.498561269304L517.6982104786533,307.42137963365735L519.3169082995211,307.2008508998905L519.6025608561448,307.2354731584341L520.1024528302363,307.2639373077506L520.6797090384135,307.3229867328951L520.9177528355999,307.27105334507974L521.8580258344864,307.3034860536759L523.3874572314093,307.32271303915167L523.6374032184551,307.28508014943037L524.5598229325526,307.3412557902689L525.4465360770721,307.30129650372845L528.4518390165509,307.5196356875479L528.4994477759882,307.52285158903317L528.9457798957128,307.5963383591435L530.4930645774248,307.61063885723763L530.9512988870086,307.45237545010053L531.1357828298281,307.4679075700401L531.8677675061765,307.4065317480764L532.2248332019561,307.38073611275837L532.2367353918154,307.37546750819735L532.4152682397053,307.35418781964586L534.563613509313,307.2884328977874L534.7897551166401,307.24731041283735L534.8849726355147,307.30499136926477L535.7240770205968,307.1662970647827L537.6581828727367,307.33277128422264L537.8843244800639,307.2664005514414L538.0866617076723,307.2431365832501L539.7351150031885,307.258463432882L540.1457405533351,307.2089932887575L541.0324536978546,307.1791606707239L541.675171950258,307.10197903507725L541.8120471336402,307.1371486811077L542.3357434874504,307.07118848894163L542.7106624680191,307.1146373707108L542.7701734173156,307.14782273710136L542.7939777970344,307.15911260401776L543.0439237840801,307.0753623185289L544.2460449598716,307.0994473679505L545.293437667492,307.1635601273485L545.5731391291861,307.135574942083L545.8706938756692,307.1225744892702L547.3287121334362,307.0467613223407L548.1618654235887,307.06119866730654L548.3106427968302,307.09308398841586L549.0842851376862,307.11757957845265L549.1140406123344,307.11278993794264L549.3996931689583,307.0586670001798L549.631785871215,307.1332485452639L550.8874669013735,307.03718204132076L551.3635544957464,307.0161076230768L551.6551581472997,307.00522829677556L551.6789625270184,307.00016496252215L551.8872508495565,307.01952879486964L552.0181749380091,307.1160742628638L553.3393180123938,307.0044072155453L553.4226333414091,306.96916914607897L553.7023348031032,306.9260623814891L553.9760851698676,306.8631812439366L554.1248625431092,306.8787133638761L554.9401625484728,306.8324591212368L554.9520647383321,306.8348539414918L555.8387778828516,306.74214018590567L557.4872311783677,306.7481614482611L557.7907370197804,306.80741614371317L558.1894603800678,306.8477175474329L558.975004910783,306.95090008870517L559.0166625752906,306.9428945467099L561.504220255889,306.6913699964999L562.2838136916746,306.6384102571466L563.5573480066221,306.7287291924777L563.9263158922611,306.67097981261446L566.4257757627188,306.8941770603798L566.473384522156,306.88322931064266L566.6459662751162,306.9148409380086L567.508875039917,306.91313035211215L567.9016473052748,307.01186537005367L568.1158867227425,307.1325643109053L568.3598816148586,307.1475490433579L568.8478713990908,307.1472753496145L569.1870838100815,307.2046826122985L569.5917582652985,307.0404663662419L569.9428728661485,306.9704691913602L571.5913261616646,307.0961630430294L572.2280933191385,307.1025264225641L572.323310838013,307.086310068266L572.4601860213952,307.0844626354979L572.9957845650647,307.002149242162L573.3290458811257,306.9087512522173L575.5071466253817,306.90067728678616L577.1258444462495,306.85866529717003L578.1494327741513,306.89794034935187L578.4826940902122,306.83355389621056L578.8338086910622,306.87768701233824L580.3334846133369,306.84518588030625L581.3273174665902,306.7998895657689L583.8922393812743,306.7051231071071L584.9693875635429,306.63683651812187L585.1479204114327,306.6847329232217L585.5704481514387,306.7566459543074L586.231019688631,306.65886886446776L586.7725693272303,306.7498036107217L587.9211306486549,306.7695095602484L588.0639569269667,306.7268817597096L588.3139029140125,306.85250718794293L588.3436583886607,306.8752237686474L591.2894503788431,306.69424378080583L592.1345058588549,306.82411146206226L592.2118700929406,306.81398479355545L594.0864649957838,307.0446401958291L594.1578781349397,307.0562721799248L594.6399168242423,306.93447846409947L594.7053788684685,306.94426301542705L595.1517109881931,306.9071775131926L595.4968744941134,306.8104267748909L597.4131270614644,307.06318294694637L597.6035620992135,307.15008071048464L598.0856007885161,307.297670061628L598.139160642883,307.28966451963277L598.174867212461,307.2999964584472L598.2403292566872,307.3916838624955L599.2401132048703,307.5285307342093L599.8054672231881,307.6049597120615L601.2039745316586,307.5510420446062L601.3944095694077,307.4755025714202L601.5907957020866,307.4506648642041L601.9359592080068,307.4394434207236L602.2513672392789,307.45750720778983L603.3701730860552,307.4607231092751L604.0009891485993,307.51299861426975L604.1735709015594,307.4854923930553L604.5246855024094,307.4814554103397L604.9293599576264,307.5996226840646L605.0305285714306,307.59866475596266L605.9588993804578,307.62822368025286L608.0655869855578,307.7518648288463L608.1489023145731,307.72442703106765L608.6725986683832,307.71854261558394L609.8152088948782,307.7861449702106L609.8747198441748,307.80147181984256L612.6598322712563,307.807014118147L613.1954308149258,307.8754375540039L613.2013819098554,307.8794061132836L616.5756527349732,308.00407361341496L616.6054082096216,307.9998313603918L619.8785104209352,307.6904890068826L619.8844615158648,307.6835782398611L622.1934863485734,307.4986981161757L623.675308986059,307.4958243318697L623.8121841694413,307.5171040204212L624.00857030212,307.5232621296483L624.9250389212879,307.3749201207105L626.4187637486328,307.61563376805515L627.3411834627303,307.628634220868L627.8232221520328,307.59825421534754L629.8346922382583,307.47242351680666L630.2155623137567,307.3839520142436L630.3405353072794,307.4059843605895L631.7568959005389,307.50725104565777L632.3579564884346,307.4786500494696L632.8280929878779,307.5140933892435L633.1673053988685,307.54036798861256L633.3398871518287,307.59462777324705L633.6076864236635,307.62507620220345L633.8219258411312,307.6294553020983L636.5177718442678,307.7135477047664L636.8331798755398,307.63438178947996L640.5169076370001,307.8898064755339L640.7132937696789,307.8707847603656L640.8263645733424,307.84307326884357L640.8561200479908,307.84293642197184L641.2488923133484,307.8289096176212L642.7545193305527,307.70547373933533L643.7483521838061,307.64888755788166L644.962375549457,307.5457050166094L647.3666179010401,307.52244104841805L647.3725689959697,307.51683032667773L647.5511018438596,307.5086879378108L647.9914828686545,307.5537105586047L648.122406957107,307.5925750701714L648.4616193680977,307.5719796159785L649.3959412720545,307.5060194238124L649.580425214874,307.532020329438L650.5504536884088,307.55856862255047L651.8001836236376,307.58149047356255L651.8656456678639,307.6318501223532L654.5495894811411,307.7856660061596L656.0671186882047,307.9004121080917L656.2099449665166,307.9042438204997L656.8407610290607,307.95432977554697L656.8586143138496,307.9531665771374L657.096658111036,307.95925626292865L659.2509544755734,307.90280692834665L659.9472325823438,307.86763728231625L660.1614719998115,307.83842047520534L660.381662512209,307.74816996331L660.7922880623556,307.6534035046482L660.9886741950344,307.66154589351515L661.3040822263065,307.7015051800556L661.3635931756031,307.67714643689055L662.8632690978777,307.6661302637176L663.0477530406972,307.66510391217975L663.0953618001345,307.6912416646771L664.737864000721,307.7488541976686L664.7795216652286,307.7789605094456L665.3091691139684,307.7728708236544L665.7257457590447,307.76712325504235L667.5943895669583,307.65702994674865L668.0823793511905,307.7073895955393L669.5761041785355,307.9604194613382L670.2485779055871,307.91614949833877L671.129339955177,307.8600422809361L671.1590954298254,307.84047317828106L671.2602640436296,307.85196831550496L671.5816231698312,307.8373257002316L673.4562180726746,307.75945983022643L674.4619531157872,307.6492296750609L674.7714100521297,307.6824150414515L676.1104064113034,307.4845344649533L676.6400538600432,307.50184559422513L676.7233691890585,307.5606213256262L676.7828801383552,307.535852041846L676.8780976572297,307.49472955689595L677.0863859797679,307.43314846462476L677.2708699225874,307.4462857643093L677.7112509473823,307.430137833447L678.2706538707705,307.2549738376533L678.3063604403484,307.24005752863656L678.9014699333145,307.2570949641649L680.6867984122129,307.390931204701L681.5378049871543,307.446901575232L681.8770173981451,307.36048277574474L682.3650071823772,307.4881609070537L682.4780779860408,307.5467997915831L682.8708502513986,307.5019824410968L683.0850896688663,307.5424891151241L683.4659597443646,307.5914802951977L683.7397101111289,307.54255753856L684.3824283635324,307.49876653961155L684.8763692426943,307.51245122678296L685.7392780074952,307.536331005897L685.846397716229,307.61070728067347L686.0070772793299,307.5929171873507L686.2808276460944,307.60598606359935L686.4891159686324,307.63013953645685L686.7569152404672,307.5890854749427L687.5127042965341,307.8020876307653L687.9947429858368,307.8071509650187L688.8219451810596,307.7605546052001L692.118851772092,307.7811500593931L692.7020590751987,307.7733497877054L692.7377656447767,307.7739655986281L695.1658123760784,307.78785555610705L697.7128810059734,307.7294219418852L698.5281810113369,307.6136494884153L699.1173394093735,307.7696549221691L699.2601656876853,307.7965453324608L699.5220138645903,307.8616160199608L699.9028839400886,307.84779448591775L699.9385905096667,307.8242568239829L700.4503846736176,307.8408837188962L701.075249641232,307.8862484568693L701.4739730015193,307.8913802145586L701.9441095009624,307.9334606276106L702.390441620687,307.88193778041034L703.8782153531023,307.7574071271507L704.4673737511388,307.6255551662544L704.8006350671999,307.60817561354673L705.8599299646795,307.6470401251135L706.1336803314439,307.6768727431471L707.0382467607525,307.6853572491934L707.6036007790702,307.671672562022L708.3772431199261,307.6116652087755L708.4962650185194,307.74084865567335L709.8888212320601,307.589906556173L710.2280336430508,307.5738270487466L710.7576810917907,307.52606749051847L712.0669219763162,307.6440294939358L712.4418409568848,307.61460741651734L712.6560803743525,307.62966057240584L712.840564317172,307.62966057240584L713.2630920571779,307.63219223953257L713.2749942470374,307.6241866975373L714.1200497270491,307.5564474960389L714.5247241822661,307.50252982858365L714.9591541121314,307.5346204200006L715.5185570355195,307.4866555914649L715.5899701746755,307.46996027311576L715.6197256493238,307.48590293367045L716.4171723698985,307.4192585071458L716.6135585025772,307.4113213885864L716.9646731034272,307.3865521048062L717.3812497485035,307.3863468344986L718.5893220192247,307.3768359769145L718.6726373482401,307.33003434678835L719.0118497592306,307.25428960329475L719.1487249426128,307.30478609895715L720.2139709350223,307.28159055420167L725.9389242573563,306.99510162826874L726.539984845252,306.9916804564759L727.2719695216003,306.98839613155474L728.2003403306276,306.9510369355769L729.0275425258503,306.92277805656795L729.1346622345843,306.91360931616316L729.3191461774038,306.9010194039655L729.3846082216301,306.9023878726826L730.0749352334707,307.05723010802683L730.1701527523453,307.0374557350642L730.9854527577088,307.09917367420707L732.8005367112555,307.05572479243796L732.9612162743564,307.0748833544779L733.6217878115489,307.02507109317406L734.6870338039581,307.06968317335276L736.0081768783429,307.1461805746408L738.1208155783727,307.1603442258632L739.6026382158582,307.22288324623645L740.1917966138948,307.1455647637181L741.1261185178515,307.15377557602096L742.1735112254719,307.1569914775062L743.2387572178812,307.2442313582238L743.524409774505,307.1508333682791L743.875524375355,307.162328505503L743.9409864195812,307.1541861166361L744.1909324066269,307.17272886775334L744.8693572286084,307.15911260401776L745.0716944562167,307.1358486358264L745.0895477410058,307.12373768767975L745.6429995694643,307.1368065639284L745.684657233972,307.1179216956319L750.3622178486856,307.34091367308963L750.4574353675603,307.3357134919645L750.582408361083,307.3414610605765L751.0525448605263,307.3858678704476L752.2189594667399,307.29240145706706L753.4686894019687,307.41091084797125L753.9328748064823,307.3562405227216L755.5813281019985,307.41515310099436L755.8907850383408,307.4690023450138L755.9145894180594,307.4822080681341L756.0276602217231,307.4726287871142L756.2359485442612,307.42883778816577L756.9143733662426,307.3797097612205L757.5392383338569,307.4824133384417L758.2295653456976,307.53024132010574L759.1698383445842,307.6220655710257L759.7947033121985,307.6540877390068L760.1101113434705,307.6813202664778L760.681416456718,307.64786120634375L761.3717434685586,307.5188146063176L762.7523974922401,307.5016403239175L764.7341121038173,307.54768929624925L765.3411237866427,307.61850755236117L765.8945756151013,307.6300026895851L768.3285734413325,307.6619564341303L768.4118887703479,307.634860753531L769.2331398706411,307.59469619668295" fill="none"></path></g><g><path style="fill: none;" stroke="rgb(255, 112, 67)" stroke-width="2px" d="M-0.47552723680248216,317.6144188732632L0.39333262292804594,290.8607186063345L1.7144756973128212,315.48891326180376L2.345291759856903,320.48642416992175L2.654748696199283,317.85390089876245L3.1724939550798035,316.3049311578334L4.041353814810331,311.9845385709556L4.285348706926438,313.99659812576425L4.49958812439424,314.3649214809821L4.594805643268818,312.0253873621622L4.820947250595942,313.28691024905623L4.9221158644001815,312.417111532443L7.153776463023112,316.2813250724628L7.272798361616336,313.7796958340978L10.504242908422341,304.6709627825166L10.944623933217265,303.4360566121709L11.634950945057959,306.3590373685428L11.724217369002876,306.609056603164L11.777777223369826,305.07732956807087L13.95587796762581,305.58325245279696L14.89615096651227,298.67269070155527L15.038977244824139,295.908657586679L16.830256818652146,290.11408207426376L17.032594046260623,288.24016943645023L17.353953172462326,287.2036912300896L19.54990720150729,281.407815672393L20.06170136545815,281.25057861679386L20.13311450461408,281.50224001387556L20.490180200393752,280.29251366792516L20.763930567158162,279.75053163250243L21.36499115505394,278.65459346038216L22.76944955845397,272.029289013228L24.36434299960316,267.6159774004564L25.899725491455737,272.7899523496494L26.173475858220147,271.7744117146609L26.476981699632873,271.72453102992125L26.554345933718466,271.87417308414035L26.923313819357457,271.8354454194453L27.119699952036274,271.65104425981093L27.51842331232357,269.7221191795684L28.065924045852395,271.0781348313809L29.333507265870217,268.42645299818173L30.31543792926431,266.83937140348036L30.51777515687279,266.16396366813666L31.202151073783824,266.10115095402006L31.2973685926584,265.73563295967233L31.630629908719428,264.973464307662L32.136472977740624,265.0193764331221L32.65421823662114,264.05152693292587L32.97557736282285,263.53896697492166L33.30288758395421,263.47437525147274L33.51117590649235,263.1743384852401L34.70139489242458,263.3162486912074L35.65952117610002,261.91069447183446L35.778543074693246,262.45322389474404L36.37365256765936,260.3296341394886L36.78427811780598,259.0400576438931L37.212756952741586,256.89847252500726L37.58767593331024,255.82278768990054L38.77194382431281,255.65159225338653L39.86099419644079,256.4649416354178L40.027624854471306,255.70195190217723L41.098821941810314,254.7315023114185L41.610616105761174,252.19525081450996L43.13409640775443,246.23796437162696L43.943445318188346,245.99061365100414L44.94918036130108,244.8160569510842L46.47861175822399,241.59557109560637L46.514318327801966,241.51784207247294L46.895188403300274,242.5945532591175L47.13918329541638,242.10498357556116L47.34747161795452,241.53378473302757L47.52600446584436,241.84182704125544L47.692635123874865,241.85092735822442L47.835461402186745,241.57531775859275L47.847363592046065,241.63388821968627L50.073073095739325,239.65460349065305L50.66818258870544,239.68457295555837L50.900275290962234,239.6530981750642L51.114514708430036,239.78577121719078L51.30494974617919,239.56962158331874L52.42375559295549,237.93963849433516L53.40568625634957,236.76364490226217L53.64968114846568,236.60914478409725L54.14957312255722,237.5209554903266L54.32810597044705,237.21893444445416L54.488785533547905,236.44759705203907L54.62566071693011,236.203256962594L54.816095754679274,236.1720558758432L54.95892203299114,236.3754787506459L54.9946286025691,236.33613527502814L55.49452057666064,236.43719668978878L55.65520013976149,236.43705984291708L55.83968408258099,236.40093226878463L56.25626072765726,235.85648698967108L57.767838839791196,234.12551090936265L58.20226876965647,233.22286894353812L58.94615563586411,231.86692171516148L58.95805782572343,231.99418930585534L59.32702571136242,230.7368402485485L61.207571709135344,228.20175195004956L61.77292572745315,228.6108556730381L62.368035220419266,227.872498376706L65.94464327314562,223.84666868119223L66.23029582976935,224.10804620616565L67.18247101851514,223.84372647345037L67.47407467006853,223.92207130750654L68.90233745318722,222.94067396701072L69.12847906051434,223.91988175755912L69.39032723741943,223.34184057143983L69.854512641933,222.67991225295998L71.23516666561439,220.2259057259514L72.40753236675762,219.6663388675135L72.63962506901441,219.43787301518725L74.78201924369243,215.96367305955195L75.28191121778396,215.34136191043322L76.07935793835856,215.50277279561976L76.24598859638907,214.9040677318716L76.68041852625434,214.9022202991035L76.79348932991789,214.5442288827001L76.8232448045662,214.5377286562937L77.74566451866369,215.15490804772315L78.02536598035776,214.8588398407702L78.75139956177642,213.75742779378135L79.197731681501,213.49160274547717L80.04278716151289,213.1128790280091L80.1499068702468,213.06559843383198L80.50102147109679,212.05683171899338L81.07232658434427,211.94653314039198L82.76243754436803,209.9809330985302L83.35754703733414,210.0135710774339L83.98836309987823,209.7311875576524L84.06572733396382,209.67241182625128L85.26189741482571,208.86398893160177L85.29165288947402,208.81232923752975L85.61301201567572,208.77982810549776L85.97602880638505,208.16559092181018L87.08293246330203,207.0407780597582L88.50524415149104,206.76496318981893L88.67187480952154,206.37084419928306L92.26038505210722,201.03046345408603L93.15900038648606,200.4612488911923L95.78938434539629,197.5012510560218L95.97981938314544,197.24199465755993L96.08098799694969,197.1339540523418L96.22381427526155,197.13922265690283L96.461858072448,197.03542430470785L97.49139749527939,195.30061651199145L97.533055159787,195.49521276356853L100.12773254911926,194.49253573452117L101.12751649730234,193.38640247045817L102.75811650802949,191.37297444693232L103.44844351987018,191.34752092879356L103.49605227930746,191.3319203854182L103.51985665902612,191.2611021293063L103.54366103874476,191.18658900765806L105.13855447989395,190.75189491965907L105.59083769454818,190.29564744936508L107.245242084994,189.76591320896077L107.28094865457196,189.77309766972573L107.45948150246178,189.57918565250722L108.10815084979485,189.7709081197783L109.32812531037538,189.0337824452917L109.35192969009402,188.9031621062408L109.92323480334151,188.35125867261888L110.57785524560424,187.75665901502222L110.92301875152458,187.58081078486993L111.66095452280257,187.02117550299616L111.92875379463732,186.9528204905751L112.35128153464326,186.22445301587817L113.68432679888735,186.49322027192414L114.62459979777381,185.1226304282741L118.07028376204762,184.66549345331399L118.30832755923407,184.86679520160507L118.47495821726459,185.02827451022742L119.15338303924595,185.2310131506715L119.63542172854851,184.87808506852147L120.39121078461547,184.10373704492866L120.79588523983244,183.8918980875156L120.891102758707,184.28800135769134L121.34933706829092,183.98700666335677L122.17058816858416,183.87698177849882L122.43243634548925,183.47951003960597L124.60458599481557,180.7284773775425L126.90765973259444,178.6759795721424L127.49681813063088,178.51614242598058L128.35972689543175,178.10361753119923L130.7104093926479,176.21567808903498L132.90636342169287,175.09866549867073L133.114651744231,175.33527373986396L134.89998022312938,175.53972296620447L134.90593131805903,175.52111179165135L135.45938314651752,175.31734679966942L135.98903059525736,175.3620957267199L140.68444449476,171.65402446732566L141.22599413335917,171.64396622225468L141.2497985130778,171.60995977463375L142.62450144182955,171.07810440771792L142.70781677084477,170.9505631232806L142.94586056803124,171.13633275163215L143.3624372131075,170.9929856535119L143.45170363705245,171.0592195394214L144.01705765537025,170.78039403830442L144.33246568664228,170.4092653222165L144.70143357228127,170.11223918716158L145.05254817313127,169.60111612131038L145.86784817849485,168.78249813471817L147.02831168977877,167.99733920825994L148.24828615035932,168.3887896847974L148.569645276561,168.18085086322822L148.64105841571697,168.06295728324673L149.91459273066445,167.20889595688064L151.90225843717127,165.25971753962446L152.1403022343577,165.03515182314203L152.58068325915264,164.71034577312923L154.1815277952315,163.68508901024904L154.46122925692558,163.81536723212065L155.19321393327388,163.65108256262818L156.3715307293468,163.2710587998788L156.4607971532917,163.14611760600408L156.9071292730163,162.8416333164408L158.12115263866716,162.3085463276795L158.9900124983977,162.06571155382326L159.388735858685,162.20290054271643L160.01360082629944,162.11901341035582L161.00148258462318,160.96368369591167L161.24547747673927,160.8961497647209L161.6084942674486,160.80425709036504L162.27501689957066,160.27862825611217L162.50710960182744,160.32693520182713L162.84632201281812,159.93404783313667L166.96447970414366,159.94027436579967L168.02377460162333,158.88990620196006L168.09518774077924,158.72356882939187L169.7317388464361,157.94942607610662L170.0352446878488,157.82243217915618L171.1064417751878,157.62564637763165L171.55277389491238,157.5922557409335L171.88008411604375,157.54148555152767L171.97530163491834,157.50631590549722L172.21929652703443,157.3511315529737L172.85606368450817,156.7616636530663L173.13576514620226,156.64130682939395L173.23693376000648,156.6547178228219L173.39166222817767,156.61729020340817L174.46881041044634,156.59765267731726L174.54022354960227,156.67312372706746L174.6175877836879,156.8601934007003L175.92682866821335,156.8060704629374L176.12321480089213,156.9737078807869L178.32511992486678,155.13469119526036L179.44987686657274,154.8035901891487L179.61055642967358,154.57628753523204L179.84860022686001,154.62541556217727L179.89620898629732,154.57450852589974L180.12830168855407,154.5957197910154L181.54466228181346,154.23978107768767L182.33020681252873,153.9908566180402L182.5325440401372,153.9186014697753L183.70490974128046,153.59509546504376L184.0203177725525,153.7994078445125L185.46048274553047,153.61192763026455L185.5557002644051,153.56074690024357L185.76398858694324,153.5329669852857L185.9008637703254,153.5138084232457L186.12700537765255,153.6075485303697L189.06089517797548,152.30558739288418L190.8700280365925,151.2658248616024L190.94739227067808,151.14184159582965L190.95334336560774,151.12213564630284L191.41157767519164,150.97297255613475L192.06619811745435,150.70393160634532L193.6551404636739,150.24262080179795L194.4228317096002,149.90337740681935L196.1665025239909,149.4467193959102L196.77351420681634,149.20833214538467L197.13653099752565,149.1137709570304L200.70718795532238,148.05594463868238L203.60537118606734,146.7048554742516L203.7005887049419,146.5941463550351L204.7301281277733,146.0924657233321L205.18836243735723,145.6504503276964L206.140537626103,145.319691438764L206.73564711906909,144.55895967890675L207.17602814386402,144.5437696761465L207.34265880189454,144.63203590840197L208.08654566810222,143.80862828129975L209.33032450840136,143.62744302315062L209.5386128309395,143.40862487528017L212.8295683270421,142.85877414473393L213.97812964846673,142.53745768994983L215.132642064821,142.8516581074048L215.15049534960997,142.79500350251527L215.2219084887659,142.6183341911327L215.77536031722437,142.53663660871953L216.18598586737102,142.23954205022878L216.26930119638627,142.13759113080195L216.48949170878373,142.03974561752656L216.88226397414138,142.0708098574056L218.7628099719143,140.6976883466289L219.81020267953465,140.1791755497051L220.25653479925924,139.9202612684225L221.37534064603557,139.6831056397424L224.0473822694534,138.41549306705704L224.05333336438306,138.39277648635255L224.17830635790594,138.28288844836635L224.64844285734918,138.20433834400257L226.5408910449814,138.25962448017498L226.7432282725899,138.2211705092234L226.98722316470602,138.2124123094337L227.0943428734399,138.13290427696796L227.8501319295069,138.50061182126305L231.20059837490612,137.50422974831457L231.93853414618408,137.21863032704778L233.8309823338163,136.23155384137578L234.3070699281892,136.0458526364601L234.68794000368754,136.0193043433476L235.0569078893265,136.0231360557556L235.1342721234121,135.8838259403509L235.628213002574,135.78940159886832L236.12810497666553,135.50503379944698L236.86604074794352,135.28361556101396L237.32427505752744,134.90099170770205L238.37166776514778,134.16557661911185L238.4192765245851,134.13683877605195L239.2583809096673,134.00272884177235L240.0379743454529,133.69386545231418L241.8292539192809,132.89372179340333L242.41841231731738,132.7836969085454L242.79333129788603,132.63672336832474L242.8230867725343,132.6215333655645L242.97186414577587,132.60470120034373L244.19778970128604,131.86326484939806L245.03094299143862,131.71382806548658L245.36420430749965,131.52114767011346L245.62605248440474,131.53907461030795L246.31637949624542,131.48419901475074L246.3342327810344,131.46107189343107L248.29809410782258,131.25306464842603L248.73847513261748,131.1140282267648L250.64282551010908,131.16124039750605L251.21413062335657,131.1337341762916L252.32698537520318,131.16452472242716L252.88043720366167,131.16657742550288L253.26725837408966,131.45833495599683L254.8026408659422,131.60708750554974L255.14185327693292,130.96992847085008L256.12973503525666,130.4184355778433L256.7426978130118,130.66996012805336L258.9743584116347,130.76479501015103L259.14098906966524,130.82610240867882L259.53376133502286,130.64683300673371L259.61707666403805,130.6647599469282L260.2121861570042,130.24080833835873L260.3371591505271,130.33181150804845L260.5633007578542,130.0437488430908L261.68805769956015,129.82958348885862L261.76542193364577,129.84887889777028L261.80112850322377,129.8472367353097L261.9856124460432,129.83656267931602L263.2650978559204,129.35431430339642L265.6990956821518,128.55020208520588L265.9490416691975,128.52721181075793L266.80599933906876,128.47739954945408L270.9896190746205,127.44831107416597L272.2869577692867,127.08990911714741L272.98918697098674,127.32665420521236L274.65549355129184,126.67033660847277L274.77451544988503,126.5719437077105L275.41128260735877,126.30960825463507L275.58386436031896,126.3179559138096L275.6850329741232,126.37337889685372L275.70883735384183,126.42715971743723L275.8040548727164,126.3425883507181L275.9766366256766,126.21189958823138L276.2563380873707,126.17412985163834L276.3694088910342,126.09010587240604L277.1192468521715,125.67463876988282L277.3810950290766,125.82038068825806L278.55941182514954,125.6765546260868L278.94623299557753,125.7538731086051L279.0295483245927,125.61702623689128L279.93411475390127,125.67792309480394L281.25525782828606,125.34497465592413L282.3859658649217,125.37836529262235L282.731129370842,125.07210199372673L283.5523804711352,124.78636572558824L284.2962673373429,124.46723882075153L285.0401542035505,124.11061587306526L285.4031709942598,124.04000288726093L285.52814398778276,124.04287667156692L286.27798194892006,123.63343083139907L287.76575568133535,123.41776016157807L288.19423451627097,123.3680847471459L288.4084739337388,123.2579230154163L288.807197294026,123.10533875345534L289.08094766079046,123.02665180221989L290.0866827039032,122.66373389843477L291.32451044927274,122.20119147204194L291.68752723998205,122.4436841287189L292.3540498721041,122.02712225122194L293.2229097318346,121.51709396034444L294.71663455917957,121.33946672085989L296.16870172201686,121.05195144338907L296.9661484425915,120.53590189015617L297.3113119485118,120.3257050952037L299.6738966355873,120.41780303986712L303.85751637113907,119.66829272349035L304.64901199678405,119.47657025621926L304.684718566362,119.42648430117201L304.8930068889001,119.58755306917922L305.1429528759459,119.55238342314873L306.42838938075266,118.70420651226634L306.63072660836116,118.69353245627266L307.160374057101,118.4420079060626L307.23178719625696,118.35428906129401L307.4400755187951,118.43352340001634L308.27322880894764,118.14272379762441L308.32083756838495,118.13683938214074L308.8802404917731,118.14368172572641L309.0290178650146,118.10659622349195L310.82029743884266,117.17617434270954L311.5046733557537,117.07750774820383L312.5282616836554,117.153457762005L314.72421571270036,116.72950615343552L317.2117733932987,115.95563709389371L319.6933799789674,115.30328805643381L320.49082669954197,115.13948235099235L321.526317217303,115.15097748821628L323.389009930287,115.77773616066573L323.6330048224031,115.80797931931447L323.7996354804336,115.5877927027269L325.1029252700294,115.729292368079L325.8884698007447,115.29179291920987L326.4062150596252,115.15015640698603L326.66211214160063,115.24827561400485L327.1917595903405,115.15672505682831L328.0963260196489,114.71457281432086L328.762848651771,114.59866351397923L328.93543040473116,114.56540972415276L330.60173698503627,114.23232443840126L331.73244502167194,113.64100910572571L333.5891866397262,113.6251348686069L334.4163888349491,113.61199756892238L334.57706839804996,113.64716721495287L335.2138355555237,113.63964063700857L337.2729144011864,113.17696136374408L337.50500710344323,113.06283107273471L339.5343304744577,113.10415882799231L340.16514653700176,112.88930923940157L340.43889690376614,112.94527960993254L340.64123413137463,112.91353113569491L341.78384435786955,112.26569804500157L343.13474290690266,112.03593214739404L343.18235166633997,112.03141620062748L343.4322976533858,111.83750418340897L344.43208160156877,111.79042885953939L344.67012539875526,112.04865890646339L345.3306969359476,111.86993689200513L345.9198553339841,111.74294299505469L347.06246556047904,111.36401400727902L349.60953419037395,111.31255958351463L350.01420864559094,111.21361929526552L352.68029917407915,110.60122954434607L354.34065465945463,110.11309675294275L355.23926999383343,110.15770883312148L358.37549702176483,110.0668425103035L359.68473790629037,109.8001279573332L359.9287327984065,109.8061492196886L360.92256565165985,109.91234239213857L360.9939787908158,109.9403960008399L363.0411554466192,109.48661177423676L364.0052328252243,109.10918810204998L364.3920539956523,109.02270087912683L364.5170269891752,108.98999447678725L364.88599487481423,108.97767825833299L365.0585766277743,108.95126681209219L366.62371459427527,109.27614128554087L366.87366058132096,109.24343488320127L369.4564357807939,108.62297116685069L370.3371978303838,108.68072054671394L372.0035044106889,108.48242942960056L373.90785478818054,108.36036202003183L374.22921391438217,108.22926271692997L374.6160350848101,108.23008379816022L375.91337377947633,107.73305596009557L377.02027743639326,107.2978829080455L379.44832416769503,107.51752213714623L380.03748256573147,107.51848006524824L380.22196650855096,107.4590885229244L381.79900666491113,107.36370625333987L382.0013438925197,107.39312833075834L384.36392857959515,107.21043775702039L384.91142931312396,107.40996049597916L385.07805997115446,107.32059948875003L385.7505336982062,107.05703241382916L386.50037165934344,107.11820296548522L386.7265132666706,107.2086587476881L386.9109972094901,107.08289647258307L387.4346935633003,107.05374808890804L387.5358621771045,106.95905005368202L387.98219429682916,106.78785461716801L388.1190694802113,106.70862027844571L388.3035534230308,106.6801561291292L389.6306475923452,106.49541285231552L389.74966949093846,106.42233662282034L389.83298481995377,106.39305139227356L390.1186373765775,106.19092856275223L391.410024976314,106.16219071969229L392.147960747592,106.10580980854618L392.26103155125554,106.0640715126735L392.3324446904115,106.07214547810457L392.42766220928604,105.99660600491855L392.79663009492504,106.02411222613304L395.7424220851073,105.54104276898317L396.00427026201237,105.44826058996118L397.3730220958345,105.43101788412523L397.4444352349904,105.48863041711677L399.295225758115,104.94356932708048L399.4499542262862,105.00145555381546L399.6760958336133,105.03183555933595L400.2474009468608,104.86748246640761L400.69373306658537,104.64948539976747L401.40191336321504,104.5898201637002L402.88968709563034,104.50757519380018L402.99680680436427,104.53275501819553L403.7764002401499,104.42697238636075L403.966835277899,104.434498964305L405.19871192833887,104.71106649203867L406.62697471145754,104.32611624190763L407.62675865964064,104.03175862085114L408.2337703424661,103.810887769905L408.7753199810652,103.6981259476128L408.971706113744,103.60301737177164L409.3823316638906,103.43319040397478L410.04290320108305,103.80678236375357L410.2511915236212,103.83250957563578L411.12600247828135,103.99973645287011L413.345760887045,103.32658669090968L414.2027185569161,103.23202550255542L414.32769155043906,103.31947065358057L415.68454119440185,103.62231278068333L415.7142966690501,103.61054394971595L415.9761448459552,103.54088889201357L416.0535090800408,103.43770635074134L417.3925054392145,102.93082553791324L417.84478865386876,102.81217930013736L417.88644631837644,102.81532677818674L418.2137565395078,102.68641702503234L418.61843099472475,102.6912066655423L419.08261639923836,102.61881467040568L419.3623178609324,102.62743602332364L419.6598726074154,102.45446157747735L420.25498210038154,102.44775608076337L422.266452186607,102.16913584995399L422.968681388307,102.08045907708342L423.09365438182994,102.0398155561844L423.62925292549943,101.96933941725176L424.6944989179088,101.98931906052196L425.8073536697554,101.9359487805536L427.360589446397,101.9135058935925L427.5688777689352,101.89475787216773L427.77716609147325,101.88914715042746L430.77651793602246,101.10693043171109L431.2526055303954,101.0653289827101L431.47874713772245,101.02372753370906L432.734428167881,100.96324121641157L433.4009508000031,100.94558796996048L434.12103328649204,100.91876598310455L435.0255997158005,100.66436764858851L435.3053011774946,100.55365852937203L435.4838340253844,100.49371959956137L435.5254916898921,100.51397293657502L435.650464683415,100.49289851833106L436.19201432201413,100.36303083707463L436.20391651187344,100.37425228055518L436.88234133385487,100.3962846269011L437.1322873209006,100.4051796735625L437.8107121428819,100.44938121312609L438.8581048505023,100.1550235920696L439.5246274826244,99.94770058142312L440.48870486122945,99.88913012032961L441.08976544912525,99.88694057038215L441.9705274987151,100.35044092487695L442.518028232244,100.37014687440376L442.5953924663295,100.41681165765819L442.80963188379735,100.54681618578635L443.0357734911244,100.44253886954037L443.16074648464735,100.38944228331539L444.1367260531118,100.24944793355213L444.571155982977,100.20880441265314L444.8984662041084,100.13271755198024L445.3031406593254,100.06566258484045L445.58284212101944,100.01379762046088L446.0172720508847,99.92991048810033L447.9216224283763,99.43425111875277L449.1892056483941,99.58341420892086L449.1951567433237,99.57383492790089L449.71290200220426,99.53770735376844L450.79005018447293,99.53072816331101L451.05189836137805,99.51882248547194L451.38515967743905,99.3533746175699L452.6110852329493,99.43671436244362L453.46804290282046,99.5947724992731L453.9143750225451,99.52128572916274L454.03339692113826,99.51690662926792L454.70587064819,99.42521922521964L457.16367285414003,99.30192019380546L457.4671786955528,99.16233638465732L458.639544396696,98.92203327792782L459.4965020665672,98.55364149927416L460.3237042617901,98.64163403778616L460.6510144829214,98.83267227069868L460.90096046996723,98.77150171904262L461.15685755194266,98.72004729527818L461.87098894350197,98.67844584627719L461.888842228291,98.68665665858L462.3113699682969,98.67269827766522L462.38278310745284,98.63041259430561L462.8707728916851,98.59756934509431L463.3052028215503,98.49466049756548L463.59085537817407,98.65121331880613L464.22762253564787,98.65832935613524L466.1022174384911,98.28227415266561L466.6259137923013,98.20755576070984L466.6318648872309,98.1972922453313L466.8044466401911,98.17129133970569L467.11390357653346,98.10560484128301L469.0420583337437,97.90539786796565L470.8928488568683,98.00981203108333L473.17806930985813,97.80714181407512L474.5111145741023,97.83847974769762L474.6301364726955,97.92209318631474L479.521936504877,97.64224133365995L479.837344536149,97.64839944288705L480.24797008629565,97.59448177543182L481.3072649837753,97.37976903371279L481.9380810463194,97.4116543548221L486.46686428779157,97.27727072679913L486.9131964075161,97.09841186546912L488.0498555390814,97.1248233117099L490.44219570080514,97.00426121772998L490.55526650446876,96.98578689004862L490.5969241689764,96.9747022934398L491.4776862185662,96.8006330726198L493.41179207070604,96.92420579777738L494.28065193043665,96.69498728765667L494.9293212777697,96.62519538308266L495.18521835974514,96.53487644775151L495.4351643467909,96.61835303949694L495.73271909327394,96.73877828660513L497.1728840662519,96.88041479882897L498.2381300586613,96.51831797627412L499.3688380952969,96.42676741909757L500.39242642319863,96.42060930987043L500.45193737249525,96.44743129672635L500.6066658406664,96.42895696904499L501.6302541685681,96.05084906249964L502.2075103767453,96.07397618381927L503.951181191136,95.49032427595971L504.1178118491665,95.45693363926155L504.70101915227326,95.35142470117016L505.05213375312326,95.27492729988211L506.1173797455327,94.99124373481929L508.72395932472426,94.7301399035893L509.79515641206325,94.78953144591308L509.90822721572675,94.71508674770077L511.31863671405654,94.56564996378923L511.66380021997685,94.53568049888392L512.5624155543557,94.28005054252243L512.7230951174565,94.27799783944675L512.9908943892913,94.16742556710197L514.365597318043,94.31590442291149L515.2642126524217,94.22052215332691L516.7757907645557,93.97707156854797L517.4482644916075,93.92465921668158L518.0612272693626,93.87402587414748L518.073129459222,93.8673203774335L518.0790805541516,93.85993064636095L518.7634564710626,93.70871485311714L519.8822623178389,93.57337329699214L520.6380513739058,93.45075849993654L522.619765985483,93.46950652136134L524.2563170911399,93.39287227320159L527.4103974038603,93.10795708629337L527.9102893779518,93.01777499783392L529.7372755213578,92.71876458313916L531.4690441458891,92.48174580133077L532.0463003540663,92.78253522535782L532.2307842968858,92.83330541476369L532.33195291069,92.77322963808129L533.9327974467689,92.96180462730295L533.9506507315579,92.98082634247119L534.6409777433986,92.94565669644075L534.6826354079062,92.9392248934702L536.003778482291,92.73285981092569L536.0989960011655,92.65923619394364L536.5631814056791,92.79799892186149L536.8607361521622,92.776240269259L537.1166332341376,92.74846035430107L537.6343784930181,92.81537847456914L539.6577507691029,92.95345696812844L541.5442478618055,92.72724908918542L542.2167215888572,92.59532870485329L543.0677281637987,92.29508666831312L544.222240580153,91.95365372338705L544.6150128455107,91.94407444236708L544.6209639404403,91.9361373238077L544.6507194150886,91.96911741989074L544.6923770795962,92.0174243656057L547.5786581204819,91.34331667554332L547.7274354937234,91.36740172496495L548.0071369554175,91.38341280895547L549.8519763836125,91.09261320656353L551.1731194579972,91.00010472128497L553.3155136326752,90.86435262454484L553.5773618095803,90.906364614161L553.6249705690176,90.93086020419778L555.041331162277,90.94878714439227L555.0889399217142,90.96219813782024L555.9935063510228,90.96247183156368L557.8145413994991,91.04239040464458L557.9871231524592,91.02336868947634L558.7964720628931,91.08221284431329L560.2068815612229,90.97588282499163L561.4625625913814,90.85066793737343L562.3730801156195,91.08782356605356L565.0570239288967,90.99189390898215L565.5926224725662,90.90499614544386L567.7945275965409,90.58778509681117L570.6808086374265,90.18107619407762L572.1685823698418,90.00960706382016L572.9481758056273,89.9634896680526L575.6261685239749,89.78148332867316L577.6673940848486,89.61658284825799L578.2267970082369,89.54706463742737L579.2027765767012,89.53666427517709L580.1132941009394,89.52927454410454L580.7500612584132,89.4024174940258L582.0235955733606,89.45674570209623L582.6544116359047,89.38408001321618L585.0705561773472,89.19701033958334L585.1717247911513,89.20973709865274L585.3740620187599,89.17935709313225L585.5049861072124,89.12352356947298L585.6775678601725,89.14391375335836L586.0286824610225,89.14158735653922L586.7963737069489,89.0679637395572L587.266510206392,89.06440572089264L587.4390919593523,89.00816165661824L590.6526832213693,89.01308814399994L592.1464080487143,89.15239825940463L592.8545883453439,89.17251474954658L593.2830671802795,89.15841952176004L594.6339657293125,89.09054347338996L595.1041022287559,89.01144598153935L595.4552168296059,88.92167443369509L596.276467929899,88.9813396697623L597.2643496882229,89.22985358879464L597.7106818079475,89.08958554528799L598.5438350981,89.01390922523021L599.650738755017,88.76457422496756L600.4898431400992,88.8301238765185L600.9242730699644,88.73268890385823L602.9297920612603,88.5572512143211L603.5784614085934,88.42861515491008L603.6082168832417,88.40069839308049L604.0902555725443,88.33856991332237L604.6675117807213,88.4454473201309L605.6494424441154,88.31571648574618L607.3633577838579,88.51003904357982L607.4169176382247,88.50607048430012L608.2679242131662,88.59036815727586L608.291728592885,88.58845230107184L608.7737672821875,88.43395218290692L609.1010775033188,88.46063732289115L609.5950183824807,88.46583750401624L609.9758884579791,88.47049029765455L610.9816235010918,88.2576934121395L611.5945862788469,88.31311639518358L612.856218403935,88.26590422444232L613.8083935926808,88.15971105199236L613.99882863043,88.17052195485778L614.0285841050783,88.16012159260754L615.456846888197,87.9317241637171L615.861521343414,87.94486146340164L616.2483425138419,88.02135886468969L616.5042395958174,88.00521093382743L616.545897260325,88.02300102715026L616.5875549248326,87.9830417406098L616.9803271901902,87.97784155948467L617.2719308417436,87.91256560167717L619.7356841426233,87.89217541779179L620.2772337812225,87.80746720420092L620.9318542234852,88.00808471813346L621.3305775837725,87.91407091726602L621.937589266598,87.83387865044172L622.2470462029403,87.80404603240811L623.0921016829523,87.68854727268162L623.5919936570438,87.48765606500568L624.0204724919794,87.48765606500568L624.1216411057836,87.45193903148837L624.7703104531166,87.344514237193L624.9785987756549,87.3720204584075L625.222593667771,87.38748415491114L626.8650958683575,87.51899399862813L627.6744447787913,87.38857892988484L628.2814564616168,87.40185307644111L628.4540382145769,87.45317065333381L628.5849623030296,87.3810523519406L629.2217294605032,87.35997793369668L629.2871915047294,87.39528442659882L629.400262308393,87.33397702807102L630.7273564777075,87.44208605672496L631.7866513751871,87.4549496626661L632.1794236405448,87.34861964334443L632.7685820385813,87.20068817502174L632.8340440828075,87.19001411902806L632.9411637915415,87.15853933853388L633.0661367850644,87.2228573682394L634.1135294926846,87.56237445696145L634.916927308189,87.59590194053132L634.9585849726966,87.6124604120087L636.0952441042618,87.52829958590472L636.8212776856805,87.43223308196156L637.0295660082187,87.40760064505308L637.3747295141391,87.34916703083127L637.5413601721696,87.3170080159785L638.0412521462611,87.32426090017935L638.6720682088051,87.18604555974838L638.7315791581017,87.17181348509014L639.9337003338933,86.9837858833553L641.4095718764493,86.7958951284922L645.1111529226985,86.30119368724665L645.4920229981968,86.1962321366421L647.2475960024468,86.10098671392929L647.5094441793519,86.00519390372958L649.7173003982563,86.08388085496503L650.3838230303783,86.03721607171065L650.5147471188308,86.04665850585887L651.0503456625003,85.95852912047518L652.0798850853317,85.94676028950775L652.6333369137901,86.0258577813584L653.2046420270376,86.01408895039097L656.0076077389081,85.4943445316218L656.2575537259538,85.48367047562813L657.465625996675,85.34887630698996L657.7572296482284,85.47135425717389L658.0428822048522,85.60751689452914L658.2214150527419,85.70194123601168L658.2749749071089,85.69263564873515L659.7984552091023,85.68319321458692L661.9110939091319,85.42537370827802L663.7975910018345,85.01373831816275L663.9344661852167,84.96638930054979L664.0832435584582,84.94764127912498L664.648597576776,84.79916242331547L664.7973749500176,84.76467701164354L665.2972669241091,84.67244222010842L665.3865333480541,84.6356304116174L665.5055552466472,84.54339562008228L666.0173494105981,84.55735400099707L666.0233005055278,84.54873264807911L667.7788735097778,84.68516897917782L670.4866217027736,84.65725221734819L670.7901275441864,84.65369419868362L673.7418706292983,84.93929361995042L674.9439918050898,84.90083964899885L675.2474976465026,84.93053542016077L676.1937217403187,85.00333795591251L676.2532326896153,84.95694686640152L677.4732071501958,84.81626828227968L678.5325020476755,84.80135197326288L678.6098662817611,84.76481385851528L678.9312254079628,84.75482403688018L679.0264429268374,84.7708351208707L681.6984845502552,84.5141103895355L682.1150611953316,84.5741861662179L682.1388655750502,84.56063832591823L682.5256867454781,84.52355282368377L682.5554422201265,84.55338544171738L683.0077254347807,84.58718661903073L683.757563395918,84.7530450275479L683.9241940539484,84.7382655654028L684.7513962491714,84.72581250007684L686.8759371390605,84.56939652570789L686.88188823399,84.56447003832619L687.4472422523079,84.5990922968698L688.3518086816164,84.39450622365761L688.9290648897935,84.39519045801619L689.4706145283927,84.23507961811099L689.4944189081114,84.26819656106572L690.2323546793893,84.2294688963707L692.8210809737919,84.01461930777998L693.4042882768987,83.94578533130793L693.9636912002869,83.96001740596617L696.4333955960963,83.90199433235948L700.2123408764311,83.8015487285215L700.8967167933421,83.90623658538262L701.2597335840514,83.88365685154982L701.390657672504,83.82672855291688L701.7179678936353,83.78197962586643L703.7472912646497,83.83179188717028L703.8544109733837,83.8174229656403L703.937726302399,83.82563377794314L704.3007430931083,83.70055573719668L704.9970211998786,83.63295338257007L705.3302825159396,83.74106241122401L706.8121051534253,83.81331755948892L707.1275131846974,83.77294773233334L707.5619431145625,83.76501061377391L708.9902058976813,83.6699020379328L709.6626796247331,83.7310725895889L710.2220825481212,83.78827458196527L711.3944482492644,83.90993145091886L711.7931716095517,83.88666748272755L712.471596431533,83.77541097602418L712.7870044628052,83.73818862691802L714.2212183408534,83.79662224113983L715.2626599535441,83.66825987547222L715.5066548456603,83.64047996051433L715.6554322189018,83.63541662626092L716.458830034406,83.62282671406322L719.0892139933162,83.45546298995721L719.6367147268451,83.45163127754921L721.517260724618,83.5474240877489L724.3975906705739,83.46832659589829L725.1593308215706,83.46969506461544L725.2366950556561,83.48502191424738L725.486641042702,83.45683145867434L727.0279746294842,83.40140847563022L727.9444432486521,83.56097192804859L729.2715374179666,83.62200563283295L730.2951257458683,83.55180318764376L733.389695109292,83.27359349744951L734.4192345321234,83.16438969382183L734.6156206648021,83.1252514885117L737.11508053526,83.03082714702911L738.7635338307759,83.10294544842233L739.9954104812158,82.92025487468433L740.150138949387,82.947213708412L740.167992234176,82.97759371393244L741.4236732643346,82.78491331855933L742.256826554487,82.8129669272607L743.4113389708414,82.80680881803356L744.2147367863457,82.722921685673L745.6072929998862,82.73674321971609L746.2738156320083,82.55747381777095L748.6006937495059,82.46961812613065L749.7075974064228,82.6402661751578L749.862325874594,82.69377330199792L750.5586039813644,82.72497438874868L751.373903986728,82.76123880975287L752.6593404915347,82.65312978109894L753.9983368507086,82.45347019526841L755.0338273684696,82.55980021459007L755.8253229941145,82.59620148246596L756.9084222713129,82.45962830449555L760.0267960144554,82.4198058648268L760.1993777674155,82.38094135326006L761.3003303294028,82.39667874350718L761.5859828860266,82.38956270617805L761.8121244933536,82.3870994624872L762.068021575329,82.4651021793641L762.8357128212554,82.39065748115176L763.3832135547842,82.37204630659866L764.9959602807223,82.16417590846535L765.1149821793156,82.1706077114359L765.1387865590342,82.16732338651478L765.2637595525572,82.15227023062623L766.4004186841223,82.02336047747178L767.1919143097673,81.99024353451705L768.584470523308,82.06934102636764L771.0482238241877,81.7288660095436L772.1729807658936,81.74268754358668L772.8752099675936,81.88076603714597L773.0894493850616,82.04621390504802L773.2382267583031,81.98531704713535L775.2139902749506,81.73146610010618L776.2613829825709,81.71901303478018L776.4458669253904,81.66810599850265L778.5108968659829,81.42438171998029L779.2666859220498,81.46215145657332L779.4452187699397,81.49526839952806L780.700899800098,81.63321004621561L781.1769873944709,81.50457398680459L781.7899501722261,81.44367712889192L782.1113092984278,81.49403677768265L785.039248003821,81.28548214519074L785.4915312184753,81.28862962324015L785.9438144331295,81.27603971104247L786.2711246542608,81.29752466990155L786.8067231979303,81.31928332250403L786.9316961914533,81.2999879135924L787.1459356089211,81.39988612994351" fill="none"></path></g></g></g></g></g></g><g transform="translate(60, 377)" clip-path="url(#clip_1)"><clipPath id="clip_1"><rect width="1396" height="23"></rect></clipPath><g><g><line x1="114.62459979777381" y1="0" x2="114.62459979777381" y2="5" style="visibility: inherit;" fill="rgb(0, 0, 0)" stroke="rgb(204, 204, 204)" stroke-width="1px"></line><line x1="233.64649839099684" y1="0" x2="233.64649839099684" y2="5" style="visibility: inherit;" fill="rgb(0, 0, 0)" stroke="rgb(204, 204, 204)" stroke-width="1px"></line><line x1="352.66839698421984" y1="0" x2="352.66839698421984" y2="5" style="visibility: inherit;" fill="rgb(0, 0, 0)" stroke="rgb(204, 204, 204)" stroke-width="1px"></line><line x1="471.69029557744295" y1="0" x2="471.69029557744295" y2="5" style="visibility: inherit;" fill="rgb(0, 0, 0)" stroke="rgb(204, 204, 204)" stroke-width="1px"></line><line x1="590.7121941706658" y1="0" x2="590.7121941706658" y2="5" style="visibility: inherit;" fill="rgb(0, 0, 0)" stroke="rgb(204, 204, 204)" stroke-width="1px"></line><line x1="709.734092763889" y1="0" x2="709.734092763889" y2="5" style="visibility: inherit;" fill="rgb(0, 0, 0)" stroke="rgb(204, 204, 204)" stroke-width="1px"></line><line x1="828.7559913571118" y1="0" x2="828.7559913571118" y2="5" style="visibility: inherit;" fill="rgb(0, 0, 0)" stroke="rgb(204, 204, 204)" stroke-width="1px"></line><line x1="947.7778899503348" y1="0" x2="947.7778899503348" y2="5" style="visibility: inherit;" fill="rgb(0, 0, 0)" stroke="rgb(204, 204, 204)" stroke-width="1px"></line><line x1="1066.799788543558" y1="0" x2="1066.799788543558" y2="5" style="visibility: inherit;" fill="rgb(0, 0, 0)" stroke="rgb(204, 204, 204)" stroke-width="1px"></line><line x1="1185.8216871367808" y1="0" x2="1185.8216871367808" y2="5" style="visibility: inherit;" fill="rgb(0, 0, 0)" stroke="rgb(204, 204, 204)" stroke-width="1px"></line><line x1="1304.843585730004" y1="0" x2="1304.843585730004" y2="5" style="visibility: inherit;" fill="rgb(0, 0, 0)" stroke="rgb(204, 204, 204)" stroke-width="1px"></line></g><g transform="translate(0, 8)"><text x="114.62459979777381" y="0" dx="0em" dy="0.95em" style="text-anchor: middle; visibility: inherit; font-family: Roboto, sans-serif; font-size: 12px; font-weight: 200;" fill="rgb(33, 33, 33)" stroke="none" stroke-width="1px">20k</text><text x="233.64649839099684" y="0" dx="0em" dy="0.95em" style="text-anchor: middle; visibility: inherit; font-family: Roboto, sans-serif; font-size: 12px; font-weight: 200;" fill="rgb(33, 33, 33)" stroke="none" stroke-width="1px">40k</text><text x="352.66839698421984" y="0" dx="0em" dy="0.95em" style="text-anchor: middle; visibility: inherit; font-family: Roboto, sans-serif; font-size: 12px; font-weight: 200;" fill="rgb(33, 33, 33)" stroke="none" stroke-width="1px">60k</text><text x="471.69029557744295" y="0" dx="0em" dy="0.95em" style="text-anchor: middle; visibility: inherit; font-family: Roboto, sans-serif; font-size: 12px; font-weight: 200;" fill="rgb(33, 33, 33)" stroke="none" stroke-width="1px">80k</text><text x="590.7121941706658" y="0" dx="0em" dy="0.95em" style="text-anchor: middle; visibility: inherit; font-family: Roboto, sans-serif; font-size: 12px; font-weight: 200;" fill="rgb(33, 33, 33)" stroke="none" stroke-width="1px">100k</text><text x="709.734092763889" y="0" dx="0em" dy="0.95em" style="text-anchor: middle; visibility: inherit; font-family: Roboto, sans-serif; font-size: 12px; font-weight: 200;" fill="rgb(33, 33, 33)" stroke="none" stroke-width="1px">120k</text><text x="828.7559913571118" y="0" dx="0em" dy="0.95em" style="text-anchor: middle; visibility: inherit; font-family: Roboto, sans-serif; font-size: 12px; font-weight: 200;" fill="rgb(33, 33, 33)" stroke="none" stroke-width="1px">140k</text><text x="947.7778899503348" y="0" dx="0em" dy="0.95em" style="text-anchor: middle; visibility: inherit; font-family: Roboto, sans-serif; font-size: 12px; font-weight: 200;" fill="rgb(33, 33, 33)" stroke="none" stroke-width="1px">160k</text><text x="1066.799788543558" y="0" dx="0em" dy="0.95em" style="text-anchor: middle; visibility: inherit; font-family: Roboto, sans-serif; font-size: 12px; font-weight: 200;" fill="rgb(33, 33, 33)" stroke="none" stroke-width="1px">180k</text><text x="1185.8216871367808" y="0" dx="0em" dy="0.95em" style="text-anchor: middle; visibility: inherit; font-family: Roboto, sans-serif; font-size: 12px; font-weight: 200;" fill="rgb(33, 33, 33)" stroke="none" stroke-width="1px">200k</text><text x="1304.843585730004" y="0" dx="0em" dy="0.95em" style="text-anchor: middle; visibility: inherit; font-family: Roboto, sans-serif; font-size: 12px; font-weight: 200;" fill="rgb(33, 33, 33)" stroke="none" stroke-width="1px">220k</text></g><line x1="0" y1="0" x2="1396" y2="0" fill="rgb(0, 0, 0)" stroke="rgb(204, 204, 204)" stroke-width="1px"></line></g></g></g></g></svg>